<svg id="Group_806" data-name="Group 806" xmlns="http://www.w3.org/2000/svg" width="29.295" height="34" viewBox="0 0 29.295 34">
  <path id="Path_2437" data-name="Path 2437" d="M44.908,17.7a.6.6,0,0,0,.627.214l.024-.006L64.02,13.195a.664.664,0,0,0,.5-.643v-4a.664.664,0,0,0-.5-.643L45.572,3.2l-.012,0a.628.628,0,0,0-.653.21h0L40.159,8.859V4.341a.662.662,0,0,0-.153-.424A2.483,2.483,0,0,0,40.446,2.5a2.511,2.511,0,0,0-5.022,0,2.483,2.483,0,0,0,.441,1.415.661.661,0,0,0-.153.424V20.859a.664.664,0,0,0,.664.664h.9V33.313a.679.679,0,0,0,.62.685.664.664,0,0,0,.708-.663V21.523h.9a.664.664,0,0,0,.664-.664V12.245l4.748,5.449,0,0ZM37.935,1.328A1.175,1.175,0,1,1,36.752,2.5,1.18,1.18,0,0,1,37.935,1.328Zm.9,18.866H37.04V5.006H38.83Zm24.361-8.159-3.235.825V8.243l3.235.825ZM58.629,13.2l-3.3.842V7.062l3.3.842ZM54,14.38l-3.3.841v-1.67a.664.664,0,0,0-1.328,0V15.56l-3.3.843V4.7l3.3.843v2a.664.664,0,0,0,1.328,0V5.882l3.3.841ZM44.743,5.619v9.865l-4.3-4.933Z" transform="translate(-35.424 0)" fill="#dcbb6a"/>
  <path id="Path_2438" data-name="Path 2438" d="M196.033,297.885a2.068,2.068,0,0,0-2.066,2.066.664.664,0,0,0,1.328,0,.739.739,0,0,1,.738-.738,1.174,1.174,0,0,1,1.172,1.172v.141a1.315,1.315,0,0,1-1.314,1.314H179.421a.664.664,0,0,0,0,1.328h16.471a2.645,2.645,0,0,0,2.642-2.642v-.141A2.5,2.5,0,0,0,196.033,297.885Z" transform="translate(-169.239 -278.104)" fill="#dcbb6a"/>
  <path id="Path_2439" data-name="Path 2439" d="M253.37,249.6h-7.247a.664.664,0,1,0,0,1.328h7.247a2.645,2.645,0,0,0,2.642-2.642v-.141a2.5,2.5,0,0,0-2.5-2.5,2.068,2.068,0,0,0-2.066,2.066.664.664,0,0,0,1.328,0,.739.739,0,0,1,.738-.738,1.174,1.174,0,0,1,1.172,1.172v.141A1.315,1.315,0,0,1,253.37,249.6Z" transform="translate(-231.511 -229.335)" fill="#dcbb6a"/>
  <path id="Path_2440" data-name="Path 2440" d="M246.546,149.181a.664.664,0,1,0,.248.8A.671.671,0,0,0,246.546,149.181Z" transform="translate(-231.563 -139.172)" fill="#dcbb6a"/>
</svg>
