<svg xmlns="http://www.w3.org/2000/svg" width="48.604" height="48.622" viewBox="0 0 48.604 48.622">
  <path id="footer-logo" d="M0,24.311A24.3,24.3,0,1,1,24.3,48.622,24.333,24.333,0,0,1,0,24.311ZM24.3,45.556a21.245,21.245,0,1,0-2.881-42.3q.18.109.354.222a36.067,36.067,0,0,1,6.275,5.275c1.618,1.666,3.111,3.451,4.594,5.24a38,38,0,0,1,4.222,6.161,14.6,14.6,0,0,1,1.788,9.491,8.727,8.727,0,0,1-3.76,5.784,12.762,12.762,0,0,1-3.2,1.639,6.927,6.927,0,0,0-.855.361c-.117.063-.277.03-.277.325s.237.2.373.238c.34.083.7.085,1.027.191a4.4,4.4,0,0,1,1.223.531,1.156,1.156,0,0,1-.021,1.841,3.917,3.917,0,0,1-2.338.711c-1.393.066-2.789.04-4.181.109a31.507,31.507,0,0,0-5.962.595,1.965,1.965,0,0,0-.65.241c-.181.129-.447.373-.419.516a.83.83,0,0,0,.5.488,4.682,4.682,0,0,0,1.176.208,21.189,21.189,0,0,0,4.353-.325c.609-.087,1.229-.1,1.849-.134a.586.586,0,0,1,.661.363.615.615,0,0,1-.223.765,15.382,15.382,0,0,1-1.94.917c-.554.208-1.15.3-1.724.456-.1.028-.217.049-.323.084ZM3.064,24.311A21.267,21.267,0,0,0,23.536,45.542a4.783,4.783,0,0,1,1.022-.458c.774-.286,1.563-.539,2.331-.829a1.6,1.6,0,0,0,.491-.37c.07-.071.113-.077.113-.293s-.191-.148-.285-.138c-.652.063-1.305.122-1.953.23a16.177,16.177,0,0,1-4.964.291,2.935,2.935,0,0,1-1.084-.374,1.006,1.006,0,0,1-.158-1.7,4.177,4.177,0,0,1,1.663-.752,40.754,40.754,0,0,1,4.1-.56c1.543-.134,3.1-.144,4.64-.246a18.445,18.445,0,0,0,2.1-.3c.151-.028.411-.061.411-.338s-.244-.322-.4-.365a4.469,4.469,0,0,0-1.028-.15,49.082,49.082,0,0,0-7.759.489,46.622,46.622,0,0,1-8.034.485,7.676,7.676,0,0,1-2.184-.436,1.468,1.468,0,0,1-.477-2.455,3.716,3.716,0,0,1,2.326-.942,24.913,24.913,0,0,1,3.007-.229c1.364-.009,2.726,0,4.088.015,1.285.012,2.57.023,3.856.017a15.2,15.2,0,0,0,6.861-1.524,7.741,7.741,0,0,0,4.214-4.528,9.877,9.877,0,0,0,.242-4.756,15.844,15.844,0,0,0-1.991-5.181,52.216,52.216,0,0,0-6.468-8.78,41.885,41.885,0,0,0-7.479-6.827,6.926,6.926,0,0,0-1.173-.678.931.931,0,0,0-.754,0c-.133.09-.158.473-.1.695.32,1.344.759,2.664,1.009,4.019.355,1.915.669,3.847.838,5.783s.186,3.871.156,5.8a27.063,27.063,0,0,1-1.2,7.355,23.936,23.936,0,0,1-1.806,4.4c-.229.427-.508.829-.759,1.243l-.118-.058c.172-.353.339-.709.514-1.062a24.908,24.908,0,0,0,2.335-7.6,31.12,31.12,0,0,0,.218-7.145c-.155-1.813-.338-3.624-.6-5.424a31.124,31.124,0,0,0-1.678-6.4,7.41,7.41,0,0,1-.351-1.217A21.282,21.282,0,0,0,3.064,24.311ZM15.069,37.988c-.218.014-.609.244-.6.339.035.341.391.3.648.317a25.966,25.966,0,0,0,5.588-.234.975.975,0,0,0,.427-.122c.07-.075.132-.036.007-.161s-.3-.09-.446-.1c-.58-.043-1.167-.02-1.734-.117a7.327,7.327,0,0,0-1.265-.1C16.816,37.808,15.943,37.927,15.069,37.988Z" fill="#dcbb6a"/>
</svg>
