<svg xmlns="http://www.w3.org/2000/svg" width="42.458" height="54.552" viewBox="0 0 42.458 54.552">
  <path id="golden-hook" d="M509.889,449.259c.117,3.693-6.566,9.321-6.566,10.2s1.935,1.055,1.935,1.055c-8.442,8.852-11.959,6.1-11.959,6.1-.771-1.465-1.06-14.337-1.168-22.98h9.756a1.529,1.529,0,0,0,1.524-1.524v-.41a1.529,1.529,0,0,0-1.524-1.524h-9.793c-.017-1.948-.023-3.4-.025-4.041a7.386,7.386,0,1,0-3.168,0c0,.637-.008,2.093-.025,4.041h-9.793a1.529,1.529,0,0,0-1.524,1.524v.41a1.529,1.529,0,0,0,1.524,1.524h9.756c-.108,8.643-.4,21.516-1.168,22.98,0,0-3.517,2.755-11.959-6.1,0,0,1.935-.176,1.935-1.055s-6.683-6.507-6.566-10.2c0,0-3.635,8.207-.645,12.37,0,0,.821.586,2.4-.176,0,0,4.893,9.551,17.58,14.606,0,.032.129.032.131,0,12.687-5.055,17.581-14.606,17.581-14.606,1.583.762,2.4.176,2.4.176C513.524,457.466,509.889,449.259,509.889,449.259Zm-23.8-20.342a4.4,4.4,0,1,1,4.4,4.4A4.4,4.4,0,0,1,486.088,428.916Z" transform="translate(511.714 476.082) rotate(180)" fill="#dcbb6a"/>
</svg>
