<svg id="Group_857" data-name="Group 857" xmlns="http://www.w3.org/2000/svg" width="25.964" height="25.964" viewBox="0 0 25.964 25.964">
  <path id="Path_2696" data-name="Path 2696" d="M12.982,2.339c3.466,0,3.877.013,5.246.076a7.186,7.186,0,0,1,2.411.447,4.023,4.023,0,0,1,1.493.971A4.023,4.023,0,0,1,23.1,5.326a7.184,7.184,0,0,1,.447,2.411c.062,1.369.076,1.78.076,5.246s-.013,3.877-.076,5.246a7.184,7.184,0,0,1-.447,2.411A4.3,4.3,0,0,1,20.639,23.1a7.183,7.183,0,0,1-2.411.447c-1.369.062-1.779.076-5.246.076S9.1,23.612,7.736,23.55A7.181,7.181,0,0,1,5.326,23.1a4.021,4.021,0,0,1-1.493-.971,4.023,4.023,0,0,1-.971-1.493,7.184,7.184,0,0,1-.447-2.411c-.062-1.369-.076-1.779-.076-5.246s.013-3.877.076-5.246a7.184,7.184,0,0,1,.447-2.411,4.022,4.022,0,0,1,.971-1.493,4.023,4.023,0,0,1,1.493-.971,7.185,7.185,0,0,1,2.411-.447c1.369-.062,1.78-.076,5.246-.076m0-2.339C9.456,0,9.014.015,7.63.078a9.529,9.529,0,0,0-3.151.6,6.364,6.364,0,0,0-2.3,1.5,6.364,6.364,0,0,0-1.5,2.3,9.529,9.529,0,0,0-.6,3.151C.015,9.014,0,9.456,0,12.982s.015,3.968.078,5.353a9.529,9.529,0,0,0,.6,3.151,6.364,6.364,0,0,0,1.5,2.3,6.363,6.363,0,0,0,2.3,1.5,9.528,9.528,0,0,0,3.151.6c1.385.063,1.827.078,5.353.078s3.968-.015,5.353-.078a9.528,9.528,0,0,0,3.151-.6,6.638,6.638,0,0,0,3.8-3.8,9.53,9.53,0,0,0,.6-3.151c.063-1.385.078-1.827.078-5.353s-.015-3.968-.078-5.352a9.53,9.53,0,0,0-.6-3.151,6.363,6.363,0,0,0-1.5-2.3,6.364,6.364,0,0,0-2.3-1.5,9.529,9.529,0,0,0-3.151-.6C16.95.015,16.508,0,12.982,0Zm0,6.316a6.667,6.667,0,1,0,6.667,6.667A6.667,6.667,0,0,0,12.982,6.316Zm0,10.994a4.327,4.327,0,1,1,4.327-4.327A4.327,4.327,0,0,1,12.982,17.31ZM21.47,6.052a1.558,1.558,0,1,1-1.558-1.558A1.558,1.558,0,0,1,21.47,6.052Z" transform="translate(0 0)" fill="#dcbb6a"/>
</svg>
