<svg id="itinerary-_sch" data-name="itinerary- sch" xmlns="http://www.w3.org/2000/svg" width="21.918" height="21.918" viewBox="0 0 21.918 21.918">
  <g id="Group_672" data-name="Group 672" transform="translate(0 0)">
    <g id="Group_671" data-name="Group 671" transform="translate(0 0)">
      <circle id="Ellipse_88" data-name="Ellipse 88" cx="0.981" cy="0.981" r="0.981" transform="translate(15.336 8.243)" fill="#333"/>
      <path id="Path_2178" data-name="Path 2178" d="M18.493,1.712H17.38V.856a.856.856,0,0,0-1.712,0v.856h-3.9V.856a.856.856,0,1,0-1.712,0v.856H6.207V.856a.856.856,0,1,0-1.712,0v.856H3.425A3.429,3.429,0,0,0,0,5.137V18.493a3.429,3.429,0,0,0,3.425,3.425h6.55a.856.856,0,1,0,0-1.712H3.425a1.714,1.714,0,0,1-1.712-1.712V5.137A1.714,1.714,0,0,1,3.425,3.425h1.07v.856a.856.856,0,1,0,1.712,0V3.425H10.06v.856a.856.856,0,1,0,1.712,0V3.425h3.9v.856a.856.856,0,1,0,1.712,0V3.425h1.113a1.714,1.714,0,0,1,1.712,1.712v4.88a.856.856,0,1,0,1.712,0V5.137A3.429,3.429,0,0,0,18.493,1.712Z" transform="translate(0 0)" fill="#333"/>
      <path id="Path_2179" data-name="Path 2179" d="M275.18,270a5.18,5.18,0,1,0,5.18,5.18A5.186,5.186,0,0,0,275.18,270Zm0,8.647a3.467,3.467,0,1,1,3.467-3.467A3.471,3.471,0,0,1,275.18,278.647Z" transform="translate(-258.442 -258.442)" fill="#333"/>
      <path id="Path_2180" data-name="Path 2180" d="M373.1,331.755h-.385v-.9a.856.856,0,0,0-1.712,0v1.755a.856.856,0,0,0,.856.856H373.1a.856.856,0,1,0,0-1.712Z" transform="translate(-355.118 -315.873)" fill="#333"/>
      <circle id="Ellipse_89" data-name="Ellipse 89" cx="0.981" cy="0.981" r="0.981" transform="translate(11.803 8.243)" fill="#333"/>
      <circle id="Ellipse_90" data-name="Ellipse 90" cx="0.981" cy="0.981" r="0.981" transform="translate(8.271 11.776)" fill="#333"/>
      <circle id="Ellipse_91" data-name="Ellipse 91" cx="0.981" cy="0.981" r="0.981" transform="translate(4.738 8.243)" fill="#333"/>
      <circle id="Ellipse_92" data-name="Ellipse 92" cx="0.981" cy="0.981" r="0.981" transform="translate(4.738 11.776)" fill="#333"/>
      <circle id="Ellipse_93" data-name="Ellipse 93" cx="0.981" cy="0.981" r="0.981" transform="translate(4.738 15.701)" fill="#333"/>
      <circle id="Ellipse_94" data-name="Ellipse 94" cx="0.981" cy="0.981" r="0.981" transform="translate(8.271 15.701)" fill="#333"/>
      <circle id="Ellipse_95" data-name="Ellipse 95" cx="0.981" cy="0.981" r="0.981" transform="translate(8.271 8.243)" fill="#333"/>
    </g>
  </g>
</svg>
