<svg xmlns="http://www.w3.org/2000/svg" width="376.795" height="727.062" viewBox="0 0 376.795 727.062">
  <g id="sea-map" transform="translate(-1132.228 -873.157)">
    <g id="Group_849" data-name="Group 849" transform="translate(-25.282 16)">
      <g id="Group_844" data-name="Group 844" transform="translate(464.614 641.928)">
        <path id="Path_2585" data-name="Path 2585" d="M1039.479,899.9l-.4.094a2.965,2.965,0,0,0-1.891-.269l-.334-.245-.111-.417.134-.44.334-.294a8.115,8.115,0,0,1,1.131-.094,1.309,1.309,0,0,1,1.139,1.665Z" transform="translate(-19.787 -39.331)" fill="none" stroke="#dcbb6a" stroke-width="1"/>
        <path id="Path_2586" data-name="Path 2586" d="M1039.479,899.9l-.4.094a2.965,2.965,0,0,0-1.891-.269l-.334-.245-.111-.417.134-.44.334-.294a8.115,8.115,0,0,1,1.131-.094,1.309,1.309,0,0,1,1.139,1.665Z" transform="translate(-19.787 -39.331)" fill="none" stroke="#dcbb6a" stroke-miterlimit="10" stroke-width="1"/>
        <path id="Path_2587" data-name="Path 2587" d="M801.178,411.889a7.583,7.583,0,0,0,.668,1.811l-.045.122a7.527,7.527,0,0,1-.957-2.081l.133-.074Z" transform="translate(-6.193 -11.292)" fill="none" stroke="#dcbb6a" stroke-width="1"/>
        <path id="Path_2588" data-name="Path 2588" d="M814.779,404.708l-.134.073-.134-.049a2.6,2.6,0,0,1-.111-.686l.067-.122a.333.333,0,0,1,.289-.025l.067.122A6.392,6.392,0,0,0,814.779,404.708Z" transform="translate(-6.974 -10.842)" fill="none" stroke="#dcbb6a" stroke-width="1"/>
        <path id="Path_2589" data-name="Path 2589" d="M803.325,415.4h-.111a3.572,3.572,0,0,0-.422-.906.825.825,0,0,0-.222-.734v-.172l.089-.122A4.106,4.106,0,0,1,803.325,415.4Z" transform="translate(-6.292 -11.395)" fill="none" stroke="#dcbb6a" stroke-width="1"/>
        <path id="Path_2590" data-name="Path 2590" d="M795.655,413.922a1.115,1.115,0,0,1-.289-.294l-.09.074-.022.171c.237.4.169.462.111.881l-.156.025c-.209-.087-.389-.528-.713-.636-.182-.062-.612-.062-.734-.221a.456.456,0,0,0-.022-.318.754.754,0,0,1-.289-.466c.079-.122.188-.221.267-.343a.586.586,0,0,1,.044-.319c.044-.049.453-.206.623-.343a.608.608,0,0,1,.334,0l.089.094C795.176,412.226,795.667,413.9,795.655,413.922Z" transform="translate(-5.767 -11.317)" fill="none" stroke="#dcbb6a" stroke-width="1"/>
        <path id="Path_2591" data-name="Path 2591" d="M792.151,424.374a.494.494,0,0,1,.356.245l-.023.122c-.206.058-.431-.065-.623.049l-.134-.024a.725.725,0,0,1,.222-.343Z" transform="translate(-5.667 -12.024)" fill="none" stroke="#dcbb6a" stroke-width="1"/>
        <path id="Path_2592" data-name="Path 2592" d="M797.247,421.615c.076.126.125.266.2.392,0,.272-.225.519-.089.808l.089.073c.038.188.213.348.245.514.037.189-.071.347-.044.539-.034-.432-.622-.864-.8-1.3a4.178,4.178,0,0,1-.111-.93l.067-.122A.408.408,0,0,1,797.247,421.615Z" transform="translate(-5.956 -11.86)" fill="none" stroke="#dcbb6a" stroke-width="1"/>
        <path id="Path_2593" data-name="Path 2593" d="M800.762,424.86c.188.266.427.776.134,1.028l-.156.025a2.085,2.085,0,0,1-.557-1.028l.045-.123A.646.646,0,0,1,800.762,424.86Z" transform="translate(-6.155 -12.045)" fill="none" stroke="#dcbb6a" stroke-width="1"/>
        <path id="Path_2594" data-name="Path 2594" d="M801.106,418.86c.135.065.305.044.422.147a17.355,17.355,0,0,1,.868,2.4l-.134.094a5.618,5.618,0,0,1-1.558-1.543.549.549,0,0,1,.067-.294c-.094-.331-.336-.565-.422-.93a.479.479,0,0,1,.377-.392l.155.073C800.971,418.5,801.008,418.732,801.106,418.86Z" transform="translate(-6.164 -11.676)" fill="none" stroke="#dcbb6a" stroke-width="1"/>
        <path id="Path_2595" data-name="Path 2595" d="M805.822,419.788c-.283.387-.049,1.518.044,1.979-.126.306-.6.16-.848.122l-.09.094-.022.172-.111.094a1.644,1.644,0,0,1-.445-.049c.033.161-.065.294-.111.441a1.245,1.245,0,0,1-.4.172c0,.3-.11.981-.512,1.028l-.044-.094a.555.555,0,0,0-.045-.612,4.2,4.2,0,0,1,.111-.441l-.066-.122c-.183-.006-.307.128-.49.122l-.135-.073a.518.518,0,0,1-.022-.539c.145.043.565-.332.848.024l.156.025c.35-.275.627-.228.934-.441l.045-.147c.377-.16.074-.577.111-.858a2.057,2.057,0,0,0,.4-1.3l.134-.094c.3.043.387-.151.579-.147.168.166.011.413-.044.587Z" transform="translate(-6.292 -11.722)" fill="none" stroke="#dcbb6a" stroke-width="1"/>
        <path id="Path_2596" data-name="Path 2596" d="M811.415,421.62c-.044.126-.213.172-.312.245l-.022.094.156.049-.089.122a.405.405,0,0,0-.267,0,3.922,3.922,0,0,0-.289.66,4.588,4.588,0,0,1-.913.123C810.221,422.749,810.778,421.5,811.415,421.62Z" transform="translate(-6.702 -11.865)" fill="none" stroke="#dcbb6a" stroke-width="1"/>
        <path id="Path_2597" data-name="Path 2597" d="M812.092,425.8a.9.9,0,0,1-.422.172c-.15.216-.108.442-.423.538a1.252,1.252,0,0,0-.292-.074,3.666,3.666,0,0,1-.754-1.763,1.635,1.635,0,0,1-.334-.466c-.017-.159.094-.269.177-.392A.585.585,0,0,0,810,423.5l.09-.122c.241.057.471-.244.778-.147.331.1.334.388.512.612C811.778,424.342,812.635,425.016,812.092,425.8Z" transform="translate(-6.712 -11.957)" fill="none" stroke="#dcbb6a" stroke-width="1"/>
        <path id="Path_2598" data-name="Path 2598" d="M809.8,426.048c.038.143.2.31.268.466l-.045.122-.177.049a4.871,4.871,0,0,0-.423-.539.368.368,0,0,1,.022-.294l.156-.025c.082.034.222.173.222.269l-.008-.016Z" transform="translate(-6.686 -12.108)" fill="none" stroke="#dcbb6a" stroke-width="1"/>
        <path id="Path_2599" data-name="Path 2599" d="M808.211,426.166a2.927,2.927,0,0,0,.579.417c.232.377-.229,1.469.111,2.154.118.029,1.236.8,1.58.93.014.041.27.415.311.466,0,.449.041.422-.222.783-.422.143-.64.509-1,.71-.951-.164-.8.864-.377,1.371l.156.049.134-.074.022-.146c-.067-.134-.229-.173-.268-.318a4.224,4.224,0,0,1,.4-.565l.134-.025a3.66,3.66,0,0,1-.156,1.42l-.156.049-.156-.049c-.222-.244-.5-.639-.8-.76a2.03,2.03,0,0,1-.471-.881c.136-.311.505-.178.754-.2l.089-.073-.044-.123c-.3-.218-2.515-1.343-2.581-1.469-.009-.109,1.016-2.4,1.131-2.79.057-.189,0-.482.111-.637A.953.953,0,0,1,808.211,426.166Z" transform="translate(-6.504 -12.127)" fill="none" stroke="#dcbb6a" stroke-width="1"/>
        <path id="Path_2600" data-name="Path 2600" d="M808.049,432.924l-.044.094-.178.025c-.317-.079-.714-.736-.934-.979a1.124,1.124,0,0,0-.023-.318l.111-.049C807.328,432.138,807.817,432.374,808.049,432.924Z" transform="translate(-6.54 -12.446)" fill="none" stroke="#dcbb6a" stroke-width="1"/>
        <path id="Path_2601" data-name="Path 2601" d="M815.527,432.71l.045.171-.045.122a.617.617,0,0,1-.245.122.378.378,0,0,1-.245-.094l-.022-.171.067-.122A.421.421,0,0,1,815.527,432.71Z" transform="translate(-7.009 -12.501)" fill="none" stroke="#dcbb6a" stroke-width="1"/>
        <path id="Path_2602" data-name="Path 2602" d="M824.978,434.773c.118.277.353.407.49.636.073.122.062.293.134.416.5.862,2.244,1.177,3,1.763a6.117,6.117,0,0,1,.534.613c.188.978.2,1.951.377,2.913.229.385.7.444,1,.754l-.245.319a1.122,1.122,0,0,1-.935-.049c-1.057-.531-1.38-1.7-2.2-2.45-.625-.565-1.545-.283-2.226-.808-.422-.325-.6-.942-1.157-1.175-1.03-.435-1.979.667-2.76.123a3.145,3.145,0,0,1-.646-2.571C820.869,434.393,824.338,434.231,824.978,434.773Z" transform="translate(-7.313 -12.605)" fill="none" stroke="#dcbb6a" stroke-width="1"/>
        <path id="Path_2603" data-name="Path 2603" d="M820.7,459.382a4.982,4.982,0,0,0,.334,1.346c.924,1.551,2.5,2.481,2.381,4.429a1.3,1.3,0,0,1-.245.929l-.377.221c-.507-.508-.565-1.48-1.18-2.081-.839-.816-4.38-2.306-2.96-4.064a6.054,6.054,0,0,1,.646-.538,1.351,1.351,0,0,1-.134-.882A2.146,2.146,0,0,1,820.7,459.382Z" transform="translate(-7.2 -14.004)" fill="none" stroke="#dcbb6a" stroke-width="1"/>
        <path id="Path_2604" data-name="Path 2604" d="M868.622,392.289c.182.525,1.174-.148,1.625.832a1.58,1.58,0,0,0,.4.2l.089.094a1.3,1.3,0,0,1-.022.686c-.189.139-.689-.083-.935-.049-.129.069-.159.237-.289.318a2.862,2.862,0,0,0-.69.024c-.21.094-.318.415-.6.343s-.525-.334-.754-.392l-.178.025a.581.581,0,0,0-.022.588c.367.966,1.17.981,2.025,1.249.239.075.432.352.6.392,1.9.45,1.3-1.311,3.427-.466a1.278,1.278,0,0,0,.2-.2.487.487,0,0,1,.134.392c-.361.221-.139,1.308.067,1.591.127.176.471.233.667.294a1.391,1.391,0,0,1,.178.221l.11.049a.756.756,0,0,1,.513.025c.283.393,1.294,1.131.823,1.689a2.127,2.127,0,0,1-1.2.221c-.189.094-.32.331-.491.466a2.057,2.057,0,0,1-.49-.074.469.469,0,0,0-.221-.171.5.5,0,0,0-.312.094l-.245-.094c-.278-.009-.565.3-.848.343a2.1,2.1,0,0,1-2.048-.784c-.076-.019-.794-.291-.824-.319a2.253,2.253,0,0,0-.245-.906c-.489-.352-1.791-.129-1.979-1.1.354-1.144-.1-.953-.267-1.79-.058-.3.077-.565.022-.833-.03-.144-.144-.255-.156-.416-.019-.263.188-.4.135-.66-.14-.167-.128-.349-.2-.539l.111-.049.156.049.134-.094c.069-.134.036-.295.134-.416.238-.3.748-.228.891-.66a.7.7,0,0,1,.578-.122v-.049Z" transform="translate(-9.983 -10.175)" fill="none" stroke="#dcbb6a" stroke-width="1"/>
        <path id="Path_2605" data-name="Path 2605" d="M882.8,397.193a7.158,7.158,0,0,0,1.225.27c.176.217.336.247.446.538,0,.145-.127.24-.09.392a1.11,1.11,0,0,1,.49-.094.376.376,0,0,1-.067.44c.045.018.829.687.848.711.478,2.025-.261,1.141-.912,1.713-.177.156-.2.412-.356.588-.13-.08-.159-.237-.29-.319-.29.106-.291.483-.689.417-.073-.313.079-.665-.2-.906-.471-.094-.453.033-.712-.44l.022-.122a2.529,2.529,0,0,0,.268-.319.942.942,0,0,0-.734-1l-.111-.094.022-.172-.089-.094a2.657,2.657,0,0,1-.848-.094l-.111.094a12.145,12.145,0,0,1-.111,1.469.538.538,0,0,1-.289.122l-.134.2a4.138,4.138,0,0,1-.891-.025l-.111-.094-.044-.147.044-.094c.31-.045,1.242-.927.891-1.273h-.2l-.111-.074c-.034-.171,0-.346-.044-.514l.067-.122a10.665,10.665,0,0,0,1.29-.49c.168-.11.222-.283.446-.318a.49.49,0,0,0,.356.024c.135-.138.593-.367.754-.2Z" transform="translate(-10.715 -10.452)" fill="none" stroke="#dcbb6a" stroke-width="1"/>
        <path id="Path_2606" data-name="Path 2606" d="M879.286,388.6c.188.038.255.267.4.368l.022.147-.111.025-.334-.221a.318.318,0,0,1-.222.147l-.022-.123a.687.687,0,0,0,.111-.294Z" transform="translate(-10.698 -9.962)" fill="none" stroke="#dcbb6a" stroke-width="1"/>
        <path id="Path_2607" data-name="Path 2607" d="M880.677,390.6c.016.122.009.34-.111.417l-.178-.025a.448.448,0,0,1,.023-.318,1.171,1.171,0,0,1,.2-.147Z" transform="translate(-10.776 -10.073)" fill="none" stroke="#dcbb6a" stroke-width="1"/>
        <path id="Path_2608" data-name="Path 2608" d="M881.034,388.677c.007.4-.414.383-.289,1l-.089.122c-.311.113-.742-.312-.623-.612a.375.375,0,0,1,.267.123h.134a1.434,1.434,0,0,1,.49-.66h.155C881.073,388.665,881.05,388.685,881.034,388.677Z" transform="translate(-10.755 -9.965)" fill="none" stroke="#dcbb6a" stroke-width="1"/>
        <path id="Path_2609" data-name="Path 2609" d="M884.484,388.954a9.835,9.835,0,0,0-.6.93l-.155.049-.135-.073a.476.476,0,0,1-.089-.417l.267.074c.154-.119.177-.344.245-.514a1.969,1.969,0,0,1,.4-.2Z" transform="translate(-10.955 -9.974)" fill="none" stroke="#dcbb6a" stroke-width="1"/>
        <path id="Path_2610" data-name="Path 2610" d="M883.98,386.21c.377.075.828-.068,1.157.025a1.132,1.132,0,0,1,.356,1.1h-.176c-.094-.171-.159-.342-.245-.515-.462-.333-.878-.041-1.136-.2-.08-.114-.214-.172-.311-.27Z" transform="translate(-10.963 -9.824)" fill="none" stroke="#dcbb6a" stroke-width="1"/>
        <path id="Path_2611" data-name="Path 2611" d="M885.8,385.427a6.523,6.523,0,0,1,.177.71h-.134c-.177-.155-.508-.465-.311-.734l.111-.073A.268.268,0,0,1,885.8,385.427Z" transform="translate(-11.07 -9.774)" fill="none" stroke="#dcbb6a" stroke-width="1"/>
        <path id="Path_2612" data-name="Path 2612" d="M886.937,385.487l.044.147-.111.049c.062.154.215.34.134.514h-.2a1.126,1.126,0,0,1-.534-.955l.111-.094Z" transform="translate(-11.116 -9.763)" fill="none" stroke="#dcbb6a" stroke-width="1"/>
        <path id="Path_2613" data-name="Path 2613" d="M887.82,385.2a.7.7,0,0,0,0,.343c.076.135.257.134.334.27-.258.2.057.486.044.66a1.446,1.446,0,0,1-.377.025l-.134.094a.744.744,0,0,0-.022.318c.057.167.977.415,1.2.539a.723.723,0,0,1,.066.27c-.246.078-.4-.083-.623-.094s-.393.216-.623.122c-.316-.4-.762,0-1.046-.049l-.089-.122a2.24,2.24,0,0,0-.023-.515l.067-.073a.68.68,0,0,0,.533-.049,1.477,1.477,0,0,0,.178-.565.9.9,0,0,0,.245-1l-.134-.049-.089-.122a.456.456,0,0,0-.044-.319l.044-.094.155.049C887.57,384.987,887.747,385.045,887.82,385.2Z" transform="translate(-11.131 -9.742)" fill="none" stroke="#dcbb6a" stroke-width="1"/>
        <path id="Path_2614" data-name="Path 2614" d="M890.291,387.769l.134.073-.022.147a3.292,3.292,0,0,1-.958.416l-.111-.049-.089-.122C889.284,388.177,890.119,387.924,890.291,387.769Z" transform="translate(-11.287 -9.914)" fill="none" stroke="#dcbb6a" stroke-width="1"/>
        <path id="Path_2615" data-name="Path 2615" d="M900.616,399.472c-.075.119-.223.165-.334.245-.213-.031-.476.154-.646.073a.862.862,0,0,1,.289-.49c.036-.149-.018-.331.067-.466a.62.62,0,0,1,.623.617Z" transform="translate(-11.886 -10.552)" fill="none" stroke="#dcbb6a" stroke-width="1"/>
        <path id="Path_2616" data-name="Path 2616" d="M909.937,386.847a.72.72,0,0,0,.245.094,7.188,7.188,0,0,0,.446.906c.161.2.4.2.49.49l-.022.172a2.219,2.219,0,0,1-1.491.27,3.2,3.2,0,0,1-.178-.784c-.5-.494.049-.589.2-.955.061-.149.026-.255.155-.392l.2.171Z" transform="translate(-12.438 -9.85)" fill="none" stroke="#dcbb6a" stroke-width="1"/>
        <path id="Path_2617" data-name="Path 2617" d="M913.363,386.8c.355.139.616.647,1.113.565a1.037,1.037,0,0,1,.29-.245h.2c.012.172-.149.264-.267.351-.681.5-1.2-.276-1.625-.694l-.023-.147a.369.369,0,0,1,.312.073v.094Z" transform="translate(-12.659 -9.848)" fill="none" stroke="#dcbb6a" stroke-width="1"/>
        <path id="Path_2618" data-name="Path 2618" d="M913.527,401.639a.453.453,0,0,1-.221.392l-.134.024-.111.094a1.442,1.442,0,0,1,.022.319l-.067.073-.044-.147c-.295-.161-.125-.973-.022-1.225l.089.094.156.049C913.225,401.4,913.421,401.378,913.527,401.639Z" transform="translate(-12.645 -10.687)" fill="none" stroke="#dcbb6a" stroke-width="1"/>
        <path id="Path_2619" data-name="Path 2619" d="M923.022,395.721a.586.586,0,0,1,.289.049c.419.283-.334,1.03.734,1.543.528.583-.163.893,1.268,1.077l.067.094c-.138.17-.617.138-.816.107-1.667-.262-2.063-1.568-2.255-3.044.125-.171.411-.171.6-.2a.468.468,0,0,0,.111.27v.1Z" transform="translate(-13.193 -10.351)" fill="none" stroke="#dcbb6a" stroke-width="1"/>
        <path id="Path_2620" data-name="Path 2620" d="M921.068,412a.45.45,0,0,0,.178.221c.141.067.321-.035.471-.049l.066.122c-.466.578-.99.23-1.314-.244a1.586,1.586,0,0,1,.513-.094Z" transform="translate(-13.087 -11.308)" fill="none" stroke="#dcbb6a" stroke-width="1"/>
        <path id="Path_2621" data-name="Path 2621" d="M917.857,411.79c.111.211.6.315.824.343a1.988,1.988,0,0,1,.471,1.273l-.111.074-.178-.049c-.2-.306-.355-.678-.578-.955-.1-.123-.24-.125-.334-.245l-.156-.025-.11-.094a2.085,2.085,0,0,1-.023-.466l.134.025.065.122.044.025-.029-.017Z" transform="translate(-12.924 -11.29)" fill="none" stroke="#dcbb6a" stroke-width="1"/>
        <path id="Path_2622" data-name="Path 2622" d="M930.572,424.285l-.044.172c-.377-.04-.546-.565-.754-.783A2.719,2.719,0,0,1,930.572,424.285Z" transform="translate(-13.623 -11.983)" fill="none" stroke="#dcbb6a" stroke-width="1"/>
        <path id="Path_2623" data-name="Path 2623" d="M968.359,474.848c-1.138-.309-2.02-3.3-2.38-4.309.326.149.545.535.754.808C967.992,472.96,968.084,472.577,968.359,474.848Z" transform="translate(-15.709 -14.684)" fill="none" stroke="#dcbb6a" stroke-width="1"/>
        <path id="Path_2624" data-name="Path 2624" d="M1015.237,552.058a3.524,3.524,0,0,1,.734.856l-.067.539-.333.2c-.668-.081-1.491-.712-1.157-1.471l.422-.2.222.123Z" transform="translate(-18.496 -19.378)" fill="none" stroke="#dcbb6a" stroke-width="1"/>
        <path id="Path_2625" data-name="Path 2625" d="M1019.121,553.025a2.361,2.361,0,0,0-1.491-.834Z" transform="translate(-18.686 -19.39)" fill="none" stroke="#dcbb6a" stroke-width="1"/>
        <path id="Path_2626" data-name="Path 2626" d="M1029.276,592.023l.334.22a5.272,5.272,0,0,0,1.425-1.935l.289.2a2.33,2.33,0,0,1-.49,2.178v.442c.526.556,1.078.97,1.024,1.837l-.4.048c-.839-.451-1.9-2.288-2.6-2.424-.133-.245-.318-.471-.446-.709-.3-.565-.882-3.123-.471-3.6l.446.094C1029.089,588.868,1028.835,591.177,1029.276,592.023Z" transform="translate(-19.271 -21.469)" fill="none" stroke="#dcbb6a" stroke-width="1"/>
        <path id="Path_2627" data-name="Path 2627" d="M1025.928,599.834c-.352.2-.481.727-.646,1.077l.29.269.333-.072a1.578,1.578,0,0,0,.49-.711,1.6,1.6,0,0,1,.377.66c.565.1,1.8.27,1.959.931l-.111.464a12.09,12.09,0,0,1-2.893.416,3.379,3.379,0,0,1-1.6-2.422c.414-.595.377-1.174,1.113-1.543l.356.094Z" transform="translate(-19.06 -22.082)" fill="none" stroke="#dcbb6a" stroke-width="1"/>
        <path id="Path_2628" data-name="Path 2628" d="M1053.816,618.749a1.225,1.225,0,0,1,1.291.367,2.12,2.12,0,0,1,.2.906c.228,1.433,1.152,3.317,1.291,4.456a3.04,3.04,0,0,1-.022.442l-.333.219-.533-.072c-.6-.4-.6-1.767-1-2.4-1.036-1.662-4.925-1.358-3.657-4.146.275-.608.519-1.279,1.343-1.12C1052.808,617.835,1053.251,618.561,1053.816,618.749Z" transform="translate(-20.597 -23.146)" fill="none" stroke="#dcbb6a" stroke-width="1"/>
        <path id="Path_2629" data-name="Path 2629" d="M1064.278,616.916a7.393,7.393,0,0,0,1.736.587l.222.342a1.1,1.1,0,0,1-.646,1.077c-.416-.094-.678-.464-.979-.734-.65-.226-1.252.294-1.914.025l-.267-.318.089-.442.312-.147a1.934,1.934,0,0,0,.356-.808,2.338,2.338,0,0,1-.267-.856l.289-.294A1.835,1.835,0,0,1,1064.278,616.916Z" transform="translate(-21.268 -23.029)" fill="none" stroke="#dcbb6a" stroke-width="1"/>
        <path id="Path_2630" data-name="Path 2630" d="M1061.492,611.533c.53.421,1.047.924,1.6,1.3l-.066.514c-.64.17-1.339-.243-2.025-.2-.314.022-.531.153-.868.048a1.314,1.314,0,0,1-.045-.856C1060.616,611.9,1060.587,611.463,1061.492,611.533Z" transform="translate(-21.13 -22.809)" fill="none" stroke="#dcbb6a" stroke-width="1"/>
        <path id="Path_2631" data-name="Path 2631" d="M1061.3,609.471a1.928,1.928,0,0,1,.111,1.029l-.222.342-.356-.122a1.867,1.867,0,0,0-.4-.734l-.044-.539A1.2,1.2,0,0,1,1061.3,609.471Z" transform="translate(-21.15 -22.685)" fill="none" stroke="#dcbb6a" stroke-width="1"/>
        <path id="Path_2632" data-name="Path 2632" d="M1057.931,608.105c.017.7.913,1.819.69,2.4l-.377-.122a7.889,7.889,0,0,1-.423-.687,4.742,4.742,0,0,1-.868-.269,7.871,7.871,0,0,1,.177-2.032l.312-.05A1.375,1.375,0,0,0,1057.931,608.105Z" transform="translate(-20.951 -22.568)" fill="none" stroke="#dcbb6a" stroke-width="1"/>
        <path id="Path_2633" data-name="Path 2633" d="M1058.665,604.051a1.514,1.514,0,0,1,.267.88,2.493,2.493,0,0,1-.713,1l-.289-.074a7.661,7.661,0,0,0-.668-1.592l.067-.392.4-.2C1057.977,603.864,1058.345,603.783,1058.665,604.051Z" transform="translate(-20.97 -22.357)" fill="none" stroke="#dcbb6a" stroke-width="1"/>
        <path id="Path_2634" data-name="Path 2634" d="M1052.886,606.7c.666.261,1.019,1.9.712,2.472-.611.06-1.069.512-1.669.612a1.612,1.612,0,0,1-.754-1A2.349,2.349,0,0,1,1052.886,606.7Z" transform="translate(-20.619 -22.531)" fill="none" stroke="#dcbb6a" stroke-width="1"/>
        <path id="Path_2635" data-name="Path 2635" d="M1049.424,616.1l-.245.342c-.624-.342-2.134-2.213-1.979-2.937l.4.073C1047.992,614.1,1049.5,614.945,1049.424,616.1Z" transform="translate(-20.389 -22.923)" fill="none" stroke="#dcbb6a" stroke-width="1"/>
        <path id="Path_2636" data-name="Path 2636" d="M1074.788,662.446l-.29.271c-.619.085-1.085-.558-1.713-.589-.482-.023-.769.234-1.268.05l-.134-.05c-.218-.72,0-2.722.754-3.11l.4.074c.377.413.492.911.824,1.319C1073.845,661.02,1074.91,661.482,1074.788,662.446Z" transform="translate(-21.779 -25.546)" fill="none" stroke="#dcbb6a" stroke-width="1"/>
        <path id="Path_2637" data-name="Path 2637" d="M1080.262,663.561l-.4-.073a1.287,1.287,0,0,1,.022-.906,1.392,1.392,0,0,1,.645-.392l.4.05A3.318,3.318,0,0,1,1080.262,663.561Z" transform="translate(-22.268 -25.729)" fill="none" stroke="#dcbb6a" stroke-width="1"/>
        <path id="Path_2638" data-name="Path 2638" d="M826.9,507.431l-.377.2c-.954-.962-.79-2.08-1.29-3.182-.53-1.165-1.209-2.2-1.692-3.4l.2-.367.534-.025a2.224,2.224,0,0,1,.778.613c.274.459.462,1.08.69,1.566.17.361.479.687.646,1.053C826.713,504.592,827.429,506.8,826.9,507.431Z" transform="translate(-7.501 -16.419)" fill="none" stroke="#dcbb6a" stroke-width="1"/>
        <path id="Path_2639" data-name="Path 2639" d="M801.178,411.889a7.583,7.583,0,0,0,.668,1.811l-.045.122a7.527,7.527,0,0,1-.957-2.081l.133-.074Z" transform="translate(-6.193 -11.292)" fill="none" stroke="#dcbb6a" stroke-width="1"/>
        <path id="Path_2640" data-name="Path 2640" d="M814.779,404.708l-.134.073-.134-.049a2.6,2.6,0,0,1-.111-.686l.067-.122a.333.333,0,0,1,.289-.025l.067.122A6.392,6.392,0,0,0,814.779,404.708Z" transform="translate(-6.974 -10.842)" fill="none" stroke="#dcbb6a" stroke-width="1"/>
        <path id="Path_2641" data-name="Path 2641" d="M803.325,415.4h-.111a3.572,3.572,0,0,0-.422-.906.825.825,0,0,0-.222-.734v-.172l.089-.122A4.106,4.106,0,0,1,803.325,415.4Z" transform="translate(-6.292 -11.395)" fill="none" stroke="#dcbb6a" stroke-width="1"/>
        <path id="Path_2642" data-name="Path 2642" d="M795.655,413.922a1.115,1.115,0,0,1-.289-.294l-.09.074-.022.171c.237.4.169.462.111.881l-.156.025c-.209-.087-.389-.528-.713-.636-.182-.062-.612-.062-.734-.221a.456.456,0,0,0-.022-.318.754.754,0,0,1-.289-.466c.079-.122.188-.221.267-.343a.586.586,0,0,1,.044-.319c.044-.049.453-.206.623-.343a.608.608,0,0,1,.334,0l.089.094C795.176,412.226,795.667,413.9,795.655,413.922Z" transform="translate(-5.767 -11.317)" fill="none" stroke="#dcbb6a" stroke-width="1"/>
        <path id="Path_2643" data-name="Path 2643" d="M792.151,424.374a.494.494,0,0,1,.356.245l-.023.122c-.206.058-.431-.065-.623.049l-.134-.024a.725.725,0,0,1,.222-.343Z" transform="translate(-5.667 -12.024)" fill="none" stroke="#dcbb6a" stroke-width="1"/>
        <path id="Path_2644" data-name="Path 2644" d="M797.247,421.615c.076.126.125.266.2.392,0,.272-.225.519-.089.808l.089.073c.038.188.213.348.245.514.037.189-.071.347-.044.539-.034-.432-.622-.864-.8-1.3a4.178,4.178,0,0,1-.111-.93l.067-.122A.408.408,0,0,1,797.247,421.615Z" transform="translate(-5.956 -11.86)" fill="none" stroke="#dcbb6a" stroke-width="1"/>
        <path id="Path_2645" data-name="Path 2645" d="M800.762,424.86c.188.266.427.776.134,1.028l-.156.025a2.085,2.085,0,0,1-.557-1.028l.045-.123A.646.646,0,0,1,800.762,424.86Z" transform="translate(-6.155 -12.045)" fill="none" stroke="#dcbb6a" stroke-width="1"/>
        <path id="Path_2646" data-name="Path 2646" d="M801.106,418.86c.135.065.305.044.422.147a17.355,17.355,0,0,1,.868,2.4l-.134.094a5.618,5.618,0,0,1-1.558-1.543.549.549,0,0,1,.067-.294c-.094-.331-.336-.565-.422-.93a.479.479,0,0,1,.377-.392l.155.073C800.971,418.5,801.008,418.732,801.106,418.86Z" transform="translate(-6.164 -11.676)" fill="none" stroke="#dcbb6a" stroke-width="1"/>
        <path id="Path_2647" data-name="Path 2647" d="M805.822,419.788c-.283.387-.049,1.518.044,1.979-.126.306-.6.16-.848.122l-.09.094-.022.172-.111.094a1.644,1.644,0,0,1-.445-.049c.033.161-.065.294-.111.441a1.245,1.245,0,0,1-.4.172c0,.3-.11.981-.512,1.028l-.044-.094a.555.555,0,0,0-.045-.612,4.2,4.2,0,0,1,.111-.441l-.066-.122c-.183-.006-.307.128-.49.122l-.135-.073a.518.518,0,0,1-.022-.539c.145.043.565-.332.848.024l.156.025c.35-.275.627-.228.934-.441l.045-.147c.377-.16.074-.577.111-.858a2.057,2.057,0,0,0,.4-1.3l.134-.094c.3.043.387-.151.579-.147.168.166.011.413-.044.587Z" transform="translate(-6.292 -11.722)" fill="none" stroke="#dcbb6a" stroke-width="1"/>
        <path id="Path_2648" data-name="Path 2648" d="M811.415,421.62c-.044.126-.213.172-.312.245l-.022.094.156.049-.089.122a.405.405,0,0,0-.267,0,3.922,3.922,0,0,0-.289.66,4.588,4.588,0,0,1-.913.123C810.221,422.749,810.778,421.5,811.415,421.62Z" transform="translate(-6.702 -11.865)" fill="none" stroke="#dcbb6a" stroke-width="1"/>
        <path id="Path_2649" data-name="Path 2649" d="M812.092,425.8a.9.9,0,0,1-.422.172c-.15.216-.108.442-.423.538a1.252,1.252,0,0,0-.292-.074,3.666,3.666,0,0,1-.754-1.763,1.635,1.635,0,0,1-.334-.466c-.017-.159.094-.269.177-.392A.585.585,0,0,0,810,423.5l.09-.122c.241.057.471-.244.778-.147.331.1.334.388.512.612C811.778,424.342,812.635,425.016,812.092,425.8Z" transform="translate(-6.712 -11.957)" fill="none" stroke="#dcbb6a" stroke-width="1"/>
        <path id="Path_2650" data-name="Path 2650" d="M809.8,426.048c.038.143.2.31.268.466l-.045.122-.177.049a4.871,4.871,0,0,0-.423-.539.368.368,0,0,1,.022-.294l.156-.025c.082.034.222.173.222.269l-.008-.016Z" transform="translate(-6.686 -12.108)" fill="none" stroke="#dcbb6a" stroke-width="1"/>
        <path id="Path_2651" data-name="Path 2651" d="M808.211,426.166a2.927,2.927,0,0,0,.579.417c.232.377-.229,1.469.111,2.154.118.029,1.236.8,1.58.93.014.041.27.415.311.466,0,.449.041.422-.222.783-.422.143-.64.509-1,.71-.951-.164-.8.864-.377,1.371l.156.049.134-.074.022-.146c-.067-.134-.229-.173-.268-.318a4.224,4.224,0,0,1,.4-.565l.134-.025a3.66,3.66,0,0,1-.156,1.42l-.156.049-.156-.049c-.222-.244-.5-.639-.8-.76a2.03,2.03,0,0,1-.471-.881c.136-.311.505-.178.754-.2l.089-.073-.044-.123c-.3-.218-2.515-1.343-2.581-1.469-.009-.109,1.016-2.4,1.131-2.79.057-.189,0-.482.111-.637A.953.953,0,0,1,808.211,426.166Z" transform="translate(-6.504 -12.127)" fill="none" stroke="#dcbb6a" stroke-width="1"/>
        <path id="Path_2652" data-name="Path 2652" d="M808.049,432.924l-.044.094-.178.025c-.317-.079-.714-.736-.934-.979a1.124,1.124,0,0,0-.023-.318l.111-.049C807.328,432.138,807.817,432.374,808.049,432.924Z" transform="translate(-6.54 -12.446)" fill="none" stroke="#dcbb6a" stroke-width="1"/>
        <path id="Path_2653" data-name="Path 2653" d="M815.527,432.71l.045.171-.045.122a.617.617,0,0,1-.245.122.378.378,0,0,1-.245-.094l-.022-.171.067-.122A.421.421,0,0,1,815.527,432.71Z" transform="translate(-7.009 -12.501)" fill="none" stroke="#dcbb6a" stroke-width="1"/>
        <path id="Path_2654" data-name="Path 2654" d="M824.978,434.773c.118.277.353.407.49.636.073.122.062.293.134.416.5.862,2.244,1.177,3,1.763a6.117,6.117,0,0,1,.534.613c.188.978.2,1.951.377,2.913.229.385.7.444,1,.754l-.245.319a1.122,1.122,0,0,1-.935-.049c-1.057-.531-1.38-1.7-2.2-2.45-.625-.565-1.545-.283-2.226-.808-.422-.325-.6-.942-1.157-1.175-1.03-.435-1.979.667-2.76.123a3.145,3.145,0,0,1-.646-2.571C820.869,434.393,824.338,434.231,824.978,434.773Z" transform="translate(-7.313 -12.605)" fill="none" stroke="#dcbb6a" stroke-width="1"/>
        <path id="Path_2655" data-name="Path 2655" d="M820.7,459.382a4.982,4.982,0,0,0,.334,1.346c.924,1.551,2.5,2.481,2.381,4.429a1.3,1.3,0,0,1-.245.929l-.377.221c-.507-.508-.565-1.48-1.18-2.081-.839-.816-4.38-2.306-2.96-4.064a6.054,6.054,0,0,1,.646-.538,1.351,1.351,0,0,1-.134-.882A2.146,2.146,0,0,1,820.7,459.382Z" transform="translate(-7.2 -14.004)" fill="none" stroke="#dcbb6a" stroke-width="1"/>
        <path id="Path_2656" data-name="Path 2656" d="M826.9,507.431l-.377.2c-.954-.962-.79-2.08-1.29-3.182-.53-1.165-1.209-2.2-1.692-3.4l.2-.367.534-.025a2.224,2.224,0,0,1,.778.613c.274.459.462,1.08.69,1.566.17.361.479.687.646,1.053C826.713,504.592,827.429,506.8,826.9,507.431Z" transform="translate(-7.501 -16.419)" fill="none" stroke="#dcbb6a" stroke-width="1"/>
        <path id="Path_2657" data-name="Path 2657" d="M868.622,392.289c.182.525,1.174-.148,1.625.832a1.58,1.58,0,0,0,.4.2l.089.094a1.3,1.3,0,0,1-.022.686c-.189.139-.689-.083-.935-.049-.129.069-.159.237-.289.318a2.862,2.862,0,0,0-.69.024c-.21.094-.318.415-.6.343s-.525-.334-.754-.392l-.178.025a.581.581,0,0,0-.022.588c.367.966,1.17.981,2.025,1.249.239.075.432.352.6.392,1.9.45,1.3-1.311,3.427-.466a1.278,1.278,0,0,0,.2-.2.487.487,0,0,1,.134.392c-.361.221-.139,1.308.067,1.591.127.176.471.233.667.294a1.391,1.391,0,0,1,.178.221l.11.049a.756.756,0,0,1,.513.025c.283.393,1.294,1.131.823,1.689a2.127,2.127,0,0,1-1.2.221c-.189.094-.32.331-.491.466a2.057,2.057,0,0,1-.49-.074.469.469,0,0,0-.221-.171.5.5,0,0,0-.312.094l-.245-.094c-.278-.009-.565.3-.848.343a2.1,2.1,0,0,1-2.048-.784c-.076-.019-.794-.291-.824-.319a2.253,2.253,0,0,0-.245-.906c-.489-.352-1.791-.129-1.979-1.1.354-1.144-.1-.953-.267-1.79-.058-.3.077-.565.022-.833-.03-.144-.144-.255-.156-.416-.019-.263.188-.4.135-.66-.14-.167-.128-.349-.2-.539l.111-.049.156.049.134-.094c.069-.134.036-.295.134-.416.238-.3.748-.228.891-.66a.7.7,0,0,1,.578-.122v-.049Z" transform="translate(-9.983 -10.175)" fill="none" stroke="#dcbb6a" stroke-width="1"/>
        <path id="Path_2658" data-name="Path 2658" d="M882.8,397.193a7.158,7.158,0,0,0,1.225.27c.176.217.336.247.446.538,0,.145-.127.24-.09.392a1.11,1.11,0,0,1,.49-.094.376.376,0,0,1-.067.44c.045.018.829.687.848.711.478,2.025-.261,1.141-.912,1.713-.177.156-.2.412-.356.588-.13-.08-.159-.237-.29-.319-.29.106-.291.483-.689.417-.073-.313.079-.665-.2-.906-.471-.094-.453.033-.712-.44l.022-.122a2.529,2.529,0,0,0,.268-.319.942.942,0,0,0-.734-1l-.111-.094.022-.172-.089-.094a2.657,2.657,0,0,1-.848-.094l-.111.094a12.145,12.145,0,0,1-.111,1.469.538.538,0,0,1-.289.122l-.134.2a4.138,4.138,0,0,1-.891-.025l-.111-.094-.044-.147.044-.094c.31-.045,1.242-.927.891-1.273h-.2l-.111-.074c-.034-.171,0-.346-.044-.514l.067-.122a10.665,10.665,0,0,0,1.29-.49c.168-.11.222-.283.446-.318a.49.49,0,0,0,.356.024c.135-.138.593-.367.754-.2Z" transform="translate(-10.715 -10.452)" fill="none" stroke="#dcbb6a" stroke-width="1"/>
        <path id="Path_2659" data-name="Path 2659" d="M879.286,388.6c.188.038.255.267.4.368l.022.147-.111.025-.334-.221a.318.318,0,0,1-.222.147l-.022-.123a.687.687,0,0,0,.111-.294Z" transform="translate(-10.698 -9.962)" fill="none" stroke="#dcbb6a" stroke-width="1"/>
        <path id="Path_2660" data-name="Path 2660" d="M880.677,390.6c.016.122.009.34-.111.417l-.178-.025a.448.448,0,0,1,.023-.318,1.171,1.171,0,0,1,.2-.147Z" transform="translate(-10.776 -10.073)" fill="none" stroke="#dcbb6a" stroke-width="1"/>
        <path id="Path_2661" data-name="Path 2661" d="M881.034,388.677c.007.4-.414.383-.289,1l-.089.122c-.311.113-.742-.312-.623-.612a.375.375,0,0,1,.267.123h.134a1.434,1.434,0,0,1,.49-.66h.155C881.073,388.665,881.05,388.685,881.034,388.677Z" transform="translate(-10.755 -9.965)" fill="none" stroke="#dcbb6a" stroke-width="1"/>
        <path id="Path_2662" data-name="Path 2662" d="M884.484,388.954a9.835,9.835,0,0,0-.6.93l-.155.049-.135-.073a.476.476,0,0,1-.089-.417l.267.074c.154-.119.177-.344.245-.514a1.969,1.969,0,0,1,.4-.2Z" transform="translate(-10.955 -9.974)" fill="none" stroke="#dcbb6a" stroke-width="1"/>
        <path id="Path_2663" data-name="Path 2663" d="M883.98,386.21c.377.075.828-.068,1.157.025a1.132,1.132,0,0,1,.356,1.1h-.176c-.094-.171-.159-.342-.245-.515-.462-.333-.878-.041-1.136-.2-.08-.114-.214-.172-.311-.27Z" transform="translate(-10.963 -9.824)" fill="none" stroke="#dcbb6a" stroke-width="1"/>
        <path id="Path_2664" data-name="Path 2664" d="M885.8,385.427a6.523,6.523,0,0,1,.177.71h-.134c-.177-.155-.508-.465-.311-.734l.111-.073A.268.268,0,0,1,885.8,385.427Z" transform="translate(-11.07 -9.774)" fill="none" stroke="#dcbb6a" stroke-width="1"/>
        <path id="Path_2665" data-name="Path 2665" d="M886.937,385.487l.044.147-.111.049c.062.154.215.34.134.514h-.2a1.126,1.126,0,0,1-.534-.955l.111-.094Z" transform="translate(-11.116 -9.763)" fill="none" stroke="#dcbb6a" stroke-width="1"/>
        <path id="Path_2666" data-name="Path 2666" d="M887.82,385.2a.7.7,0,0,0,0,.343c.076.135.257.134.334.27-.258.2.057.486.044.66a1.446,1.446,0,0,1-.377.025l-.134.094a.744.744,0,0,0-.022.318c.057.167.977.415,1.2.539a.723.723,0,0,1,.066.27c-.246.078-.4-.083-.623-.094s-.393.216-.623.122c-.316-.4-.762,0-1.046-.049l-.089-.122a2.24,2.24,0,0,0-.023-.515l.067-.073a.68.68,0,0,0,.533-.049,1.477,1.477,0,0,0,.178-.565.9.9,0,0,0,.245-1l-.134-.049-.089-.122a.456.456,0,0,0-.044-.319l.044-.094.155.049C887.57,384.987,887.747,385.045,887.82,385.2Z" transform="translate(-11.131 -9.742)" fill="none" stroke="#dcbb6a" stroke-width="1"/>
        <path id="Path_2667" data-name="Path 2667" d="M890.291,387.769l.134.073-.022.147a3.292,3.292,0,0,1-.958.416l-.111-.049-.089-.122C889.284,388.177,890.119,387.924,890.291,387.769Z" transform="translate(-11.287 -9.914)" fill="none" stroke="#dcbb6a" stroke-width="1"/>
        <path id="Path_2668" data-name="Path 2668" d="M900.616,399.472c-.075.119-.223.165-.334.245-.213-.031-.476.154-.646.073a.862.862,0,0,1,.289-.49c.036-.149-.018-.331.067-.466a.62.62,0,0,1,.623.617Z" transform="translate(-11.886 -10.552)" fill="none" stroke="#dcbb6a" stroke-width="1"/>
        <path id="Path_2669" data-name="Path 2669" d="M909.937,386.847a.72.72,0,0,0,.245.094,7.188,7.188,0,0,0,.446.906c.161.2.4.2.49.49l-.022.172a2.219,2.219,0,0,1-1.491.27,3.2,3.2,0,0,1-.178-.784c-.5-.494.049-.589.2-.955.061-.149.026-.255.155-.392l.2.171Z" transform="translate(-12.438 -9.85)" fill="none" stroke="#dcbb6a" stroke-width="1"/>
        <path id="Path_2670" data-name="Path 2670" d="M913.363,386.8c.355.139.616.647,1.113.565a1.037,1.037,0,0,1,.29-.245h.2c.012.172-.149.264-.267.351-.681.5-1.2-.276-1.625-.694l-.023-.147a.369.369,0,0,1,.312.073v.094Z" transform="translate(-12.659 -9.848)" fill="none" stroke="#dcbb6a" stroke-width="1"/>
        <path id="Path_2671" data-name="Path 2671" d="M913.527,401.639a.453.453,0,0,1-.221.392l-.134.024-.111.094a1.442,1.442,0,0,1,.022.319l-.067.073-.044-.147c-.295-.161-.125-.973-.022-1.225l.089.094.156.049C913.225,401.4,913.421,401.378,913.527,401.639Z" transform="translate(-12.645 -10.687)" fill="none" stroke="#dcbb6a" stroke-width="1"/>
        <path id="Path_2672" data-name="Path 2672" d="M923.022,395.721a.586.586,0,0,1,.289.049c.419.283-.334,1.03.734,1.543.528.583-.163.893,1.268,1.077l.067.094c-.138.17-.617.138-.816.107-1.667-.262-2.063-1.568-2.255-3.044.125-.171.411-.171.6-.2a.468.468,0,0,0,.111.27v.1Z" transform="translate(-13.193 -10.351)" fill="none" stroke="#dcbb6a" stroke-width="1"/>
        <path id="Path_2673" data-name="Path 2673" d="M921.068,412a.45.45,0,0,0,.178.221c.141.067.321-.035.471-.049l.066.122c-.466.578-.99.23-1.314-.244a1.586,1.586,0,0,1,.513-.094Z" transform="translate(-13.087 -11.308)" fill="none" stroke="#dcbb6a" stroke-width="1"/>
        <path id="Path_2674" data-name="Path 2674" d="M917.857,411.79c.111.211.6.315.824.343a1.988,1.988,0,0,1,.471,1.273l-.111.074-.178-.049c-.2-.306-.355-.678-.578-.955-.1-.123-.24-.125-.334-.245l-.156-.025-.11-.094a2.085,2.085,0,0,1-.023-.466l.134.025.065.122.044.025-.029-.017Z" transform="translate(-12.924 -11.29)" fill="none" stroke="#dcbb6a" stroke-width="1"/>
        <path id="Path_2675" data-name="Path 2675" d="M930.572,424.285l-.044.172c-.377-.04-.546-.565-.754-.783A2.719,2.719,0,0,1,930.572,424.285Z" transform="translate(-13.623 -11.983)" fill="none" stroke="#dcbb6a" stroke-width="1"/>
        <path id="Path_2676" data-name="Path 2676" d="M791.232,366.881c.249-.009.492.248.646.417" transform="translate(-5.639 -8.71)" fill="none" stroke="#dcbb6a" stroke-width="1"/>
        <path id="Path_2677" data-name="Path 2677" d="M968.359,474.848c-1.138-.309-2.02-3.3-2.38-4.309.326.149.545.535.754.808C967.992,472.96,968.084,472.577,968.359,474.848Z" transform="translate(-15.709 -14.684)" fill="none" stroke="#dcbb6a" stroke-width="1"/>
        <path id="Path_2678" data-name="Path 2678" d="M1015.237,552.058a3.524,3.524,0,0,1,.734.856l-.067.539-.333.2c-.668-.081-1.491-.712-1.157-1.471l.422-.2.222.123Z" transform="translate(-18.496 -19.378)" fill="none" stroke="#dcbb6a" stroke-width="1"/>
        <path id="Path_2679" data-name="Path 2679" d="M1019.121,553.025a2.361,2.361,0,0,0-1.491-.834Z" transform="translate(-18.686 -19.39)" fill="none" stroke="#dcbb6a" stroke-width="1"/>
        <path id="Path_2680" data-name="Path 2680" d="M1029.276,592.023l.334.22a5.272,5.272,0,0,0,1.425-1.935l.289.2a2.33,2.33,0,0,1-.49,2.178v.442c.526.556,1.078.97,1.024,1.837l-.4.048c-.839-.451-1.9-2.288-2.6-2.424-.133-.245-.318-.471-.446-.709-.3-.565-.882-3.123-.471-3.6l.446.094C1029.089,588.868,1028.835,591.177,1029.276,592.023Z" transform="translate(-19.271 -21.469)" fill="none" stroke="#dcbb6a" stroke-width="1"/>
        <path id="Path_2681" data-name="Path 2681" d="M1025.928,599.834c-.352.2-.481.727-.646,1.077l.29.269.333-.072a1.578,1.578,0,0,0,.49-.711,1.6,1.6,0,0,1,.377.66c.565.1,1.8.27,1.959.931l-.111.464a12.09,12.09,0,0,1-2.893.416,3.379,3.379,0,0,1-1.6-2.422c.414-.595.377-1.174,1.113-1.543l.356.094Z" transform="translate(-19.06 -22.082)" fill="none" stroke="#dcbb6a" stroke-width="1"/>
        <path id="Path_2682" data-name="Path 2682" d="M1053.816,618.749a1.225,1.225,0,0,1,1.291.367,2.12,2.12,0,0,1,.2.906c.228,1.433,1.152,3.317,1.291,4.456a3.04,3.04,0,0,1-.022.442l-.333.219-.533-.072c-.6-.4-.6-1.767-1-2.4-1.036-1.662-4.925-1.358-3.657-4.146.275-.608.519-1.279,1.343-1.12C1052.808,617.835,1053.251,618.561,1053.816,618.749Z" transform="translate(-20.597 -23.146)" fill="none" stroke="#dcbb6a" stroke-width="1"/>
        <path id="Path_2683" data-name="Path 2683" d="M1074.788,662.446l-.29.271c-.619.085-1.085-.558-1.713-.589-.482-.023-.769.234-1.268.05l-.134-.05c-.218-.72,0-2.722.754-3.11l.4.074c.377.413.492.911.824,1.319C1073.845,661.02,1074.91,661.482,1074.788,662.446Z" transform="translate(-21.779 -25.546)" fill="none" stroke="#dcbb6a" stroke-width="1"/>
        <path id="Path_2684" data-name="Path 2684" d="M1080.262,663.561l-.4-.073a1.287,1.287,0,0,1,.022-.906,1.392,1.392,0,0,1,.645-.392l.4.05A3.318,3.318,0,0,1,1080.262,663.561Z" transform="translate(-22.268 -25.729)" fill="none" stroke="#dcbb6a" stroke-width="1"/>
        <path id="Path_2685" data-name="Path 2685" d="M1064.278,616.916a7.393,7.393,0,0,0,1.736.587l.222.342a1.1,1.1,0,0,1-.646,1.077c-.416-.094-.678-.464-.979-.734-.65-.226-1.252.294-1.914.025l-.267-.318.089-.442.312-.147a1.934,1.934,0,0,0,.356-.808,2.338,2.338,0,0,1-.267-.856l.289-.294A1.835,1.835,0,0,1,1064.278,616.916Z" transform="translate(-21.268 -23.029)" fill="none" stroke="#dcbb6a" stroke-width="1"/>
        <path id="Path_2686" data-name="Path 2686" d="M1061.492,611.533c.53.421,1.047.924,1.6,1.3l-.066.514c-.64.17-1.339-.243-2.025-.2-.314.022-.531.153-.868.048a1.314,1.314,0,0,1-.045-.856C1060.616,611.9,1060.587,611.463,1061.492,611.533Z" transform="translate(-21.13 -22.809)" fill="none" stroke="#dcbb6a" stroke-width="1"/>
        <path id="Path_2687" data-name="Path 2687" d="M1061.3,609.471a1.928,1.928,0,0,1,.111,1.029l-.222.342-.356-.122a1.867,1.867,0,0,0-.4-.734l-.044-.539A1.2,1.2,0,0,1,1061.3,609.471Z" transform="translate(-21.15 -22.685)" fill="none" stroke="#dcbb6a" stroke-width="1"/>
        <path id="Path_2688" data-name="Path 2688" d="M1057.931,608.105c.017.7.913,1.819.69,2.4l-.377-.122a7.889,7.889,0,0,1-.423-.687,4.742,4.742,0,0,1-.868-.269,7.871,7.871,0,0,1,.177-2.032l.312-.05A1.375,1.375,0,0,0,1057.931,608.105Z" transform="translate(-20.951 -22.568)" fill="none" stroke="#dcbb6a" stroke-width="1"/>
        <path id="Path_2689" data-name="Path 2689" d="M1058.665,604.051a1.514,1.514,0,0,1,.267.88,2.493,2.493,0,0,1-.713,1l-.289-.074a7.661,7.661,0,0,0-.668-1.592l.067-.392.4-.2C1057.977,603.864,1058.345,603.783,1058.665,604.051Z" transform="translate(-20.97 -22.357)" fill="none" stroke="#dcbb6a" stroke-width="1"/>
        <path id="Path_2690" data-name="Path 2690" d="M1052.886,606.7c.666.261,1.019,1.9.712,2.472-.611.06-1.069.512-1.669.612a1.612,1.612,0,0,1-.754-1A2.349,2.349,0,0,1,1052.886,606.7Z" transform="translate(-20.619 -22.531)" fill="none" stroke="#dcbb6a" stroke-width="1"/>
        <path id="Path_2691" data-name="Path 2691" d="M1049.424,616.1l-.245.342c-.624-.342-2.134-2.213-1.979-2.937l.4.073C1047.992,614.1,1049.5,614.945,1049.424,616.1Z" transform="translate(-20.389 -22.923)" fill="none" stroke="#dcbb6a" stroke-width="1"/>
        <path id="Path_2692" data-name="Path 2692" d="M1053.485,942.055a29.105,29.105,0,0,1-1.813-4.1c-.207-.519-.538-1-.754-1.518-.385-.9-.54-1.955-.912-2.889-.406-1.02-.973-2-1.4-3.016-.391-.917-.832-2.8-1.469-3.475-.491-.519-1.21-.212-1.6-.66-.143-.483-.018-1-.156-1.469-.239-.813-1.02-1.244-1.446-1.885a13.864,13.864,0,0,1,.356-2.6c-.443-.55-1.118-.666-1.581-1.319.139-.826.715-1.373.868-2.105a2.081,2.081,0,0,0-.445-.66c-.93-.122-3.242.193-3.539-.979l.134-.442.311-.245a4.083,4.083,0,0,1,1.425.245l.356-.2c.465-.672-.013-1.55-.223-2.2-.5-1.553-.371-3.043-1.691-4.335-.253-.933.726-3.14-.69-3.525-.748,0-1.271.832-2.024.66l-.2-.367c.359-1.319,1.167-1.346,2.336-1.543a27.95,27.95,0,0,0-.4-3.769,1.242,1.242,0,0,0,.156-.856l-.245-.294-.377-.094c-1.16.334-1.531.994-2.8.367l-.067-.464-.267-.2a1.139,1.139,0,0,1-.89.023l-.2-.367a1.4,1.4,0,0,1,.356-.832,5.429,5.429,0,0,1,2.426-.147,3.88,3.88,0,0,1,.713-.392,2.207,2.207,0,0,0-.4-2.522c-.038-1.4,1.8-2.752,1.314-4.359-.3-1-1.389-.935-2.137-1.346a9.226,9.226,0,0,1-1.6-1.25,1.139,1.139,0,0,1,.177-.906l.4-.122c.456.05.719.436,1.069.685.671.234,1.058-.278,1.357-.782-.018-.452.14-1.131-.089-1.518l.135-.517v0c.336-.377,1.055-.353,1.245-.83a7.2,7.2,0,0,0-1.113-3.793c-.5-.754-1.539-1.225-2.092-1.91-.171-.212-1.874-3.2-2.115-3.648a5.9,5.9,0,0,0-.89-1.151c-.869-.585-2.033-.628-2.849-1.371a2.587,2.587,0,0,0-.512-1.151c-.34-.009-.684,0-1.024.024l-.311-.269a8.707,8.707,0,0,0-.646-1.566l-.4.024a1.1,1.1,0,0,0-.446.734l-.355.172-.513-.073a5.727,5.727,0,0,1-.623-1.053,2.355,2.355,0,0,0-.824-.367c-.412-.384-.483-.989-.823-1.4-.386-.462-2.373-.861-3.273-1.469a15.067,15.067,0,0,1-2.024-1.958,6.031,6.031,0,0,0-.624-1.027,10.48,10.48,0,0,1-1.508-1.348c-.58-.272-1.057.166-2.048-.318-.725-.354-1.336-1.209-2.092-1.395-1.355-.335-2.885-.008-4.229-.514a6.43,6.43,0,0,1-1.47-.858,10.421,10.421,0,0,1-.771-1.086c-1.548-2.012-2.869-4.1-4.326-6.16-.491-.7-2.312-1.846-2.426-2.155.044-.613.651-.806.623-1.664a3.331,3.331,0,0,0-.667-1.053c-.9-.685-4.127-2.639-4.585-3.453a2.784,2.784,0,0,1-.2-.882c-.145-.639-.548-1.358-.754-2.006-.321-1-.427-2.073-.734-3.061l-.579-1.1c-.234-.293-.724-.466-.957-.754a4.945,4.945,0,0,1-.334-.784c-.23-.421-.62-.5-.957-.782-.518-.429-.665-1.153-1.246-1.543-1.05-.709-2.689-.892-3.851-1.495a13.029,13.029,0,0,0-1.892-1.027c-.977-.324-2.167-.155-3.182-.442-1.193-.335-3.581-1.3-4.7-1.272-1.394.033-2.973,1.833-4.273,1.738-1.973-.143-2.49-3.32-5.253-3.4-.59-.188-1.037-1.255-1.446-1.738a7.929,7.929,0,0,0-.778-.906c-.345-.289-1.189-.521-1.447-.858-1.568-2.037-1.862-5.849-4.9-6.488-.365-.077-.765-.029-1.131-.074a4.361,4.361,0,0,0-1.381-.172l-.156.319c.256.554.677.712.848,1.395l-.334.221-.471-.05c-.565-.336-1.068-1.908-1.357-2.544a1.219,1.219,0,0,0-.689-.172,3.85,3.85,0,0,1-.646.539c-.01-.127-.228-.357-.311-.442l.029-.377a5.4,5.4,0,0,1,.171-.653,9.7,9.7,0,0,0-.008-1.215l.029-.377a2.758,2.758,0,0,1,.446-.711c.882-.015,1.74,1.776,2.716,2.227h.512l.177-.39a3.4,3.4,0,0,0-.445-.66A8.8,8.8,0,0,1,954,809.2l-.4.024-.245.344-.044.537-.356.221a2.528,2.528,0,0,1-.712-.979,1.845,1.845,0,0,0-.868-.294l-.045-.416a1.3,1.3,0,0,1,.935-.808l.134-.318c-.168-.535-1.03-.9-1.425-1.319a6.929,6.929,0,0,1-1.314-2.056c-.188-.427-.335-1.8-.6-2.008a2.022,2.022,0,0,0-.668.465l-.446-.147a5.746,5.746,0,0,1,.334-2.5c.211-1.319-.979-4.815-1.536-6.12-.271-.637-3.7-3.727-5.073-5.006l-.417-.377a37.644,37.644,0,0,1-3.7-4.6,22.283,22.283,0,0,1-.994-2,12.12,12.12,0,0,1-1.209-2.507,12.435,12.435,0,0,1-.222-1.933c-.078-.887-.519-1.769-.646-2.645-.242-1.686.432-4.878-.178-6.22-.485-1.068-1.2-1.277-1.869-2.1l-.267-.294c-.073-1.167-.539-2.457-.734-3.624-.109-.649-.094-1.307-.156-1.958a5.685,5.685,0,0,1-.134-1.395l-.222-.245a10.151,10.151,0,0,1,.156-1.077c.486-.328,1.037-.319,1.4-.858a7.331,7.331,0,0,0-.066-1.958,9.034,9.034,0,0,1,.912-3.134l-.044-.464a2.236,2.236,0,0,0-.6-.589c-.5-.78.668-1.778-.067-2.717l.045-.44c.188-.414.688-.425.868-.858.489-1.174,1.016-5.809.623-6.961-.266-.78-1.431-1.971-1.469-2.294.2-1.564.97-.9,1.4-1.493a9.918,9.918,0,0,0-.11-1.495l-.268-.318-.4.784H932.8a27.979,27.979,0,0,1-1.513-2.4,14.644,14.644,0,0,1,.734-3.5c.341-1.748-.2-1.769-.177-2.84.015-.67.46-1.268.446-1.979-.026-1.176-.77-1.311-.334-2.79a1.472,1.472,0,0,1,.712-.392c.113-.293.169-.624.289-.906a5.06,5.06,0,0,1,2.938-2.155,3.786,3.786,0,0,1,1.335.44l.066.466c-.168.414-.513.7-.6,1.151a1.818,1.818,0,0,0,.4.76c1.124.241,1.55-.348,2.356-.22.66.523,1.045,1.225,1.758,1.69,1.108.724,2.337-.565,3.6-.319a9.393,9.393,0,0,1,2.3,1.037c2.11,1.091,3.069-.164,4.576-1.159.221-.145.487-.236.712-.39,1.885.2,2.269,1.827,3.05,3.256a1.764,1.764,0,0,0,1.4.172l.312-.268-.067-.466c-.507-.631-1.183-1.051-1.669-1.74-.417-.591-.392-1.327-.823-1.958a15.292,15.292,0,0,0-5.208-4.6c-2.775-1.238-5.546.925-7.21-.76-1.1-1.116-.848-2.856-1.358-4.211-.942-2.487-3.46-3.547-5.5-4.92a6.21,6.21,0,0,0-2.248-1.274l-.356.172-.022.466c.278.738,1.368.937,1.558,1.861l-.156.44-.513.026c-1.67-.672-1.188-3.536-2.671-4.677a13.119,13.119,0,0,1-1.825-1.3,35.93,35.93,0,0,1-1.314-3.648,12.826,12.826,0,0,0-2.426-3.256c-.513-.611-.613-1.61-1.131-2.227a12.277,12.277,0,0,0-.958-.882c-.484-.454-.837-1.055-1.314-1.518a6.975,6.975,0,0,0-.69-.466c-.738-.587-1.027-1.522-1.891-2.105a24.831,24.831,0,0,1-2.2-1.319c-.509-.425-.9-1.047-1.424-1.445-1.711-1.3-2.639-1.537-4.029-3.5a12.5,12.5,0,0,1-1.131-2.767,11.412,11.412,0,0,0-4.362-4.335l-.49-.539c0-.39.164-.724.189-1.1.154-2.028.29-1.589,1.877-2.474a1.239,1.239,0,0,0-.2-1.741,1.277,1.277,0,0,0-.228-.144c-.238-.162-.534-.257-.778-.416a15.472,15.472,0,0,1-2.961-3.329,7.86,7.86,0,0,1-.356-1.274c-.094-.479-.03-1.037-.111-1.518-.132-.79-.8-1.18-.868-1.908a8.183,8.183,0,0,0-1.157-4.359,25.412,25.412,0,0,0-3.739-4.259c-.641-.624-1.745-1.161-2.27-1.791-.886-1.056.088-3.291-.111-4.48-.07-.419-.417-.769-.49-1.2-.182-1.086.269-2.592-.177-3.574-.608-1.336-3.148-2.462-3.54-3.379-.526-1.234.352-2.483-.289-3.941a8.1,8.1,0,0,0-.913-1.319c-.471-.687-.687-1.537-1.157-2.227-.3-.44-.7-.834-1-1.274a17.608,17.608,0,0,1-1.491-2.987,19.138,19.138,0,0,0-2.225-3.329c-.51-.72-.482-1.7-.891-2.45a17.668,17.668,0,0,0-1.158-1.69,28.651,28.651,0,0,1-1.357-2.57c-.593-1.265-1-2.678-1.6-3.966-.538-1.147-1.553-1.894-1.958-3.159a16.941,16.941,0,0,0-1.737-4.358c-.947-1.388-1.818-1.336-2.56-2.105-.385-.983-.393-2.128-.734-3.11a20.551,20.551,0,0,1-1.268-3.182,6.4,6.4,0,0,0-.4-2.327c-.741-1.319-1.657-1.483-2.181-3.5-.441-1.7-.169-2.6-1.157-4.357-.636-1.131-2.158-2.516-2.626-3.648-.427-1.037-.386-2.078-.734-3.11-.283-.825-.954-1.336-1.291-2.105-.421-.957-.463-2.073-.89-2.985-.977-2.082-3.408-2.707-4.7-4.53-.792-1.12-1-2.5-1.6-3.354s-1.491-1.225-2.136-1.935l-.134-.245c-.164-.3-.188-.651-.334-.956-.168-.357-.462-.687-.623-1.053-.66-1.489-.5-3.41-1.381-4.7-.54-.794-1.808-.911-2.38-1.713-.5-.7-.148-1.184-.446-1.763a9.8,9.8,0,0,1-3.675-5.459,21.1,21.1,0,0,0-.823-3.035,14.494,14.494,0,0,0-1.625-2.376c-.332-.471-.392-1.066-.712-1.541-.273-.407-.722-.78-.957-1.2-.713-1.276-.743-2.721-1.625-3.966-.66-.933-1.555-1.467-2.025-2.572-1.245-2.921-2.005-6.023-3.36-8.91a12.253,12.253,0,0,0-1.023-1.813c-.151-.206-.426-.368-.557-.587-.424-.712-.493-1.708-.935-2.45-.77-1.294-2.073-2.179-2.715-3.6-1.225-2.7-1.463-6.342-2.871-8.79-.909-1.578-2.544-2.81-3.339-4.5-.65-1.388-.377-2.161-1.446-3.6a4.39,4.39,0,0,0-.754-.981c-.848-.651-3.3-.138-4.452-2.08a3.61,3.61,0,0,1-.289-1.191c-.277-1.933.209-1.767.49-3.393.144-.832-.2-1.878.2-2.644.283-.544.865-.621.979-1.371a6.564,6.564,0,0,0-.779-1.493c.033-.324.026-.689.089-1,.094-.451.435-.879.446-1.347.03-1.311-1.188-2.073.022-3.574a1.461,1.461,0,0,1,.6-.538l.471.146c.335.246,1.037,2.091,2.493,1.319.891-1.272-.443-2.744-.49-3.868-.044-1.026.471-1.086.6-1.811-.745-.308-1.623-.316-2.356-.686-.385-.194-.565-.584-.868-.857-.209-.188-.484-.314-.69-.514-1.1-1.072-.748-2.85-1.58-4.015a6.3,6.3,0,0,0-1.2-1.131c.008-1.815-1.791-2.494-1.847-3.794a1.385,1.385,0,0,1,1.38-.147l.4-.122c.032-.645-2.4-4.1-2.96-4.456-.719-.455-1.958-.433-2.45-1.152-1.049-1.538-.118-2.419-.491-3.892-.189-.743-.8-1.142-1.045-1.79l.155-.465a11.454,11.454,0,0,0,1.158-1.175c.283-.992.1-4.472-.647-5.264-.848-.9-2.12-.591-3.093-1.174-.471-.283-.909-.711-1.335-1.029-.754-.56-1.77-.556-2.515-.979a11.848,11.848,0,0,1-3.317-3.133c-1.043-1.477-.609-2.351-.667-3.746a8.034,8.034,0,0,0-.312-1.319c-.228-.9-1.271-3.71-1.937-4.284-.5-.432-1.225-.754-1.58-1.347a12.392,12.392,0,0,1-.09-2.473,3.487,3.487,0,0,0-1.2-.612c-.609-.3-.911-1.089-1.446-1.469-.747-.531-1.75-.643-2.56-1.1-.294-.167-.628-.168-.8-.514-.265-1.225.283-1.6.712-2.473a5.569,5.569,0,0,1-.4-.979,6.262,6.262,0,0,0-.044-.881A22.218,22.218,0,0,0,784,415.009c-.393-.384-.972-.579-1.335-.98-.24-.265-.113-.505-.512-.857-.308-.064-1.07-.037-1.2-.343-.061-.25.188-.318.289-.466.243-.343-.2-.29.6-1.077.1-.1.242-.176.29-.319.2-.023.443-.413.578-.565.21-.039.356-.219.579-.221.273-.1.386-.233.557-.221.911.067,1.178,1.021,1.491,1.665a.442.442,0,0,0,.471-.049c.046-.328-.4-.641-.4-1.3a2.4,2.4,0,0,1,1.131.27c.283.208.486.719.712.857.117.371.278.486.067.882a3.319,3.319,0,0,0,.466.685.794.794,0,0,0,.623-.122c.045-.646-.462-.612-.689-1.028-.283-.511-.425-1.179-.646-1.665-.094-.208-.346-.308-.49-.466-.359-.1-.831.062-1.2-.024-.609-.143-.357-.958-.533-1.347-.137-.3-.466-.332-.667-.514.108-.254.243-.33.289-.466a1.365,1.365,0,0,0,.377-.245c.106-.5.565-2.647.734-2.986.087-.174.29-.3.267-.515a3.463,3.463,0,0,0-.471-.49l-.177-.025a4.451,4.451,0,0,0-.779.565c-.353.113-1.037.7-1.425.318-.151-.148-.087-.294-.334-.417a2.669,2.669,0,0,0-.734-1.225c-.151-.106-.394-.085-.471-.294-.164-.471-.031-.887-.334-1.371-.7-.339-.31-.2-.712-.636-.321-.354-1.424-.283-1.424-1.249,0-.608.815-3.194,1.869-1.885,1.017-.2,1,.057,1.58.514a3.894,3.894,0,0,1,.668.094c.213.094.283.37.466.49s.369.05.491.294c.243.06.526.283.8.368l.356.123c.11-.169.067-.266.022-.319.6-.144.644.307.98.515.068.2-.089.413-.023.66.471.329.352.777.579,1.2l.245-.025v-.172a.382.382,0,0,1,.423-.122l.111-.221c-.212-.182-.431-.695-.268-.955.23.464.453,1.312.913,1.4a6.911,6.911,0,0,1-.646-2.356c0-.276.083-.548.066-.825a.438.438,0,0,0-.2-.2c-.094-.262-.2-.219-.178-.565a2.51,2.51,0,0,0,.4-.221c.109-.667.024-.761-.556-1.053a4.342,4.342,0,0,1-1.225-1.714c-.034-.267.065-.689-.044-.93-.237-.521-.822-.781-.868-1.469-.088-.146-.407-.236-.534-.417-.377-.526-.265-1.21-.6-1.738-.2-.315-.572-.427-.8-.71a9.492,9.492,0,0,1-.533-1c-.084-.137-.413-.447-.423-.565-.613-.253-1.46-2.313-2.248-2.986s-1.728-.807-2.493-1.4c-.88-.678-.832-1.214-2.159-1.3a.966.966,0,0,0-.712-.66c-.179.068-2.58.456-2.626.441-.329-.111-.221-.78-.754-1a.49.49,0,0,1,.022-.44.775.775,0,0,0-.111-.27.939.939,0,0,0-.267-.123.683.683,0,0,0-.312.294.4.4,0,0,1-.267,0c-.094-.134-.215-.366-.377-.416a.7.7,0,0,0-.422.172h-.178c-.141-.139.015-.417-.2-.565a.784.784,0,0,1-.311-.074c-.094-.405.231-.482.267-.76-.155-.159-.247-.222-.312-.294l.09-.244a1.439,1.439,0,0,1-.245-.294.319.319,0,0,1,.356-.2c.188-.565-1.475-1.283-1.847-1.641-1-.964-1.523-2.209-2.515-3.11-3.925-.252-2.195-2.153-2.8-3.2-.177-.3-.53-.355-.8-.565-.189-.146-.245-.406-.446-.539-.283-.188-.643-.073-.912-.22-.246-.135-.549-1.053-.779-1.175a.908.908,0,0,0-.334-.441A18.778,18.778,0,0,1,757.018,364c-.283-.352-.829-.531-1.092-.857a8.115,8.115,0,0,1-.753-1.763c0-.2.049-.3-.067-.49a1.594,1.594,0,0,0-.355-.2c-.221-.67-1.063-.534-1.47-.882-.189-.16-.146-.462-.334-.612-.093-.076-.27-.1-.312-.245-.156-.56.231-.99-.267-1.811-.2-.322-.746-.584-.8-.979-.073-.528.66-1.508-.4-2.791-.155-.04-.316-.218-.471-.294a12.741,12.741,0,0,1-1.469-.66c-.858-.565-1.319-1.628-2.225-2.228a2.965,2.965,0,0,0,0-.66,4.654,4.654,0,0,0-.319-.384c-.356-.314-.4-1.027-.571-1.453-.305-.741-.859-1.279-1.18-1.979a9.3,9.3,0,0,0-.311-.98c-.2-.338-.754-.471-.979-.783-.081-.115-.07-.928-.29-1.273-.471-.738-1.6-.532-1.869-.832-.591-.649-.837-1.747-1.58-2.105a9.331,9.331,0,0,1-.913-1.64c-.848-.313-.642-.929-1.225-1.131s-1.284-.211-1.869-.44c-.5-.2-.92-.628-1.38-.784a2.9,2.9,0,0,1-1.18-.565c-.233-.2.065-1.082.045-1.4a14.151,14.151,0,0,0-.2-1.738,25.975,25.975,0,0,0-1.046-3.427c-.157-.319-.52-.492-.667-.881-.2-.518.107-1.065-.044-1.567-.081-.265-.283-.493-.356-.783-.045-.18.044-.313.044-.49a4.025,4.025,0,0,0-.512-1.4,1.239,1.239,0,0,1-.134-.49c-.023-.372.218-.675.2-.93-.013-.188-.289-.424-.4-.565a15.194,15.194,0,0,1-1.4-2.865,7.1,7.1,0,0,0-1.58-1.739c-.848-.6-1.8-.471-2.715-.734-.155-.551-.833-.793-1.108-1.225-.141-.223-.107-.486-.2-.734a3.165,3.165,0,0,0-1.646-2.056c-.178-.107-.406-.352-.623-.343a14.135,14.135,0,0,1-1.2-1.175,14.374,14.374,0,0,1-.579-1.347c-.106-.194-.026-.715-.155-1.028-.146-.353-.4-.68-.512-1.053a8.615,8.615,0,0,0-.513-1.861c-.446-.7-1.008-.962-1.535-1.543-.194-.214-.283-.555-.471-.734-.4-.389-1.319-1.1-1.446-1.64-.484-2.133.791-2.8.712-3.354-.159-.244-.234-.223-.245-.565.626-1.048-.5-1.574-.155-2.62.255-.269.642-.148.8-.368.4.074.476.441.913.565l.177-.049c-.094-.554-.71-.565-.556-1.225.259-.457,1.172-.7,1.179-1.319,1.686-1.854-.492-2.876-.89-4.627a13.023,13.023,0,0,1,.089-1.314c0-.647-.377-.064-.023-1.131a.4.4,0,0,0-.022-.417c-.652-.272-.066-.906-.754-1.665a1.24,1.24,0,0,1-.022-.318c-.189-.465-.612.033-.778-1.738-.641-.5.349-1.072.422-1.347a7.943,7.943,0,0,0-.446-1.3,1.763,1.763,0,0,1-.667-.49c.283-1.878-.968-1.346-1.046-2.522.1-.115.324-.3.356-.441-.058-.292-.292-.489-.334-.832-.1-.832-.149-1.714-.311-2.544a3.011,3.011,0,0,0-.111-.49,1.406,1.406,0,0,0-.178-.277c-.122-.178-.34-.269-.445-.433-.225-.354-.3-.741-.49-1.1l-.268-.2c-.064-.155-.263-.181-.334-.31-.177-.323-.368-1.183-.646-1.428-.136-.119-.351-.175-.491-.294-.377-.322-.664-.775-1.023-1.131-.277-.271-.717-.471-1.023-.734-.451-.384-.848-.848-1.291-1.225-.2-.174-.565-.207-.754-.441-.343-.425-.462-1.186-.891-1.469-.274-.181-.9-.181-1.113-.441-.154-.188-.178-.613-.334-.857a13.481,13.481,0,0,0-1.6-1.3c-.306-.236-.293-.724-.623-.955s-.806-.156-1.157-.368c-.377-.223-.565-.635-.868-.906a8.888,8.888,0,0,0-1.358-.588c-.312-.172-.362-.574-.6-.784a15.819,15.819,0,0,1-1.424-1.077c-.267-.293-.188-.706-.334-1.053-.121-.291-.526-.409-.623-.754-.068-.244,0-.492-.045-.734-.03-.156-.265-.316-.356-.482a4.2,4.2,0,0,1-.177-.718,6.8,6.8,0,0,0-1-1.131c-.292-1.263,1.648-2.82,1.713-3.819.048-.736-.947-2.116-.557-3.06a13.924,13.924,0,0,1,2.4-3.354c.3-.377.086-.722.2-1.1.058-.2.218-.313.289-.49a3.4,3.4,0,0,0,.623-.343c.337-.418.637-1.97,1.447-2.986,1.328-1.669,3.846-2.9,4.629-4.872.953-.524.306-.812.754-1.371a14.561,14.561,0,0,1,1.225-1.175c-.2-.254-.921-.018-1.158.024-.283-.138-.312-.456-.754-.392-.363-.346-.811-.471-.868-1.077a.32.32,0,0,0,.155-.22c-.448-.533-1.15-.471-1.18-1.371.053-.094.261-.16.356-.245.128-.6.746-1.444.779-1.909.015-.221-.094-.377.022-.6l.289-.189c.107-.155.107-.368.267-.49.606-.466,1.4-.581,2.025-1.037a2.469,2.469,0,0,1,.579-.384c.435-.094.811.149,1.225.122a1.292,1.292,0,0,0,.267-.319.8.8,0,0,1,.312.049c.508.112.592-.1,1-.146a1.494,1.494,0,0,1,.623,1.86c.359.2.585-.173.667-.392.477-1.258-.894-1.713-.957-2.669-.036-.549.794-2.4,1.38-2.473.219.026.272.262.311.44l-.089.27a1.214,1.214,0,0,0-.423.565c.115.21.249.388.377.587l-.022.172a6.028,6.028,0,0,1-1.246.368,1.045,1.045,0,0,0-.067.318c.2.283.444.214.624.368.3.259.283.772.445,1.1.117.236.415.262.557.441l-.111.245-.267.123c.587.305.336.251.556.637-.042.13-.05.336-.177.416a1.551,1.551,0,0,1-.356.025,4.131,4.131,0,0,1-.245.342,1.16,1.16,0,0,0-.356-.024l-.044.2c.243.089,4.39,4.355,4.451,4.53.3.848-.167,1.57-.156,2.35-.094.118-.264.114-.334.245a2.322,2.322,0,0,0-.8.531c-.157.23-.344.39-.245.718.13.429,2.45,2.185,2.96,2.742.237.26,1.022,1.257,1.225,1.542.356.5-.1,1.037,1,1.347.441,1.335,1.461,1.037,1.6,3.231a8.726,8.726,0,0,1-.356,1.64,1.206,1.206,0,0,0-.155.368,1.666,1.666,0,0,0-.022.343,1.573,1.573,0,0,1,.222.565l-.044.171c-.155.139-.5.253-.579.392-.405.743.538,4.043.471,5.141-.037.554-.64,1.037-.624,1.494.728.392,2.3.9,2.45,1.664.042.219-.071.439-.023.686l.178.2.022.2.267.094c.094.216.014.48.089.66.538,1.3-.251.956.156,1.909-.046.194-.2.4-.221.565a6.508,6.508,0,0,0,.49,2.007,3.733,3.733,0,0,1,.334,1,22.034,22.034,0,0,1-1.18,2.963c.189.15.61.242.735.441v-.221a.739.739,0,0,1-.471-.294c-.01-.044.764-1.991.848-2.105.65.163.33,1.081.111,1.4a1.829,1.829,0,0,0,.422-.171,6.494,6.494,0,0,1,.668,1.053.675.675,0,0,1-.334-.049l-.045.27c.515.435,1.494.471,1.959.979l1.29.44c.351.3-.071.416.712.66a1.509,1.509,0,0,0,1.2,1.131c.425.527,1.5,1.885,1.18,2.6-.2.447-.552.7-.734,1.175.068.206.288.23.311.514a.553.553,0,0,0-.177.2c.471.53,1.482,1.458.89,2.154a11.425,11.425,0,0,0,.111,1.175c.239.266.837.244,1.18.588.077,1.178,1.055.6,1.469,1.249.094.155.923,1.721.934,1.811.046.352-.065.725-.044,1.077a8.166,8.166,0,0,0,.754,2.154c.388.549.74.517,1.269.808.59.324.982,1.12,1.58,1.4,1.364.625,1.839-.583,2.8,1.542a7.093,7.093,0,0,1,.377.76c.094.034.715.81.86.942.4.353,1.037.246,1.432.678.49.539.792,1.777,1.38,2.13.188.115.519.094.754.2.283.346.352,1.061.624,1.319.217.209.565.234.8.392.44.29.26.556.49.881.319.451.505.04.754.808.189.153.451.189.6.319.673.592.222,1.005.222,1.713.377.583,1.242.8,1.558,1.2a5.667,5.667,0,0,1,.471,1.053c.527.313,1.144,0,1.691.27.293.146.448.581.734.808a3.667,3.667,0,0,1,.556-.049,5.642,5.642,0,0,1,1.446,1.86c.319.1.449.459.868.245.494.053.62,1.338.534,1.714s-.554.763-.579,1.175c-.02.314.223.651.2.979-.032.451-.363.842-.111,1.371a2.312,2.312,0,0,1,.957,2.375c-.166.5-.824,1.17-.824,1.689,0,.318.177.62.177.979,0,.6-.305,1.144-.267,1.836.034.6.323,1.238.334,1.811a.469.469,0,0,0-.089.221c.451.62.075.754.245,1.053.094.131.259.108.377.2.262.188.355.571.624.754a8.96,8.96,0,0,1,1.113.637c.462.451.163,1.225.42,1.74.169.339.67.481.934.808.729.9.261,2.5-.4,3.3.061.312.283.578.156.93s-.619.476-.754.808c-.368.888.45.873-.423,2.081a6.4,6.4,0,0,1-.377,1.518c.76.712.331,1.087.471,1.42.066.16.283.276.4.392.322.315.254.59.422.93.141.283.484.5.579.808.108.36-.334.62-.334.93,0,.461.806,1.458.289,2.669.049.325.347.438.513.71s.056.519.11.784a6.226,6.226,0,0,0,1.091,1.445c.146.094.39.134.556.221l.178-.025c-.133-.259-.309-.328-.446-.466a.583.583,0,0,1-.289-.074,11.5,11.5,0,0,1-.534-1.615c.034-.482,1.344-.726,1.669-.466a20.944,20.944,0,0,1,1,2.424c-.021.263-.176.471-.155.754-.351-.177-.311-.418-.311-.636a.356.356,0,0,0-.4-.074l-.09.441a3.634,3.634,0,0,0,1.18.955c.283.612.309,1.3.646,1.885.371.643,1.032.907,1.446,1.493.106.149.214.533.334.637.308.264.836.348,1.135.636.137.131.189.328.311.466.408-.03.4.083.668.294.352.028.66.049,1.023.049.169.145.233.4.4.565l-.089.22c.077.2.253.182.377.27.449.314.848.99,1.268,1.249.131.565-.35.821.312,1.641.437.541,1.7,1.131,1.736,1.543.934.653-.2,1.552,1.914,2.326a3.423,3.423,0,0,0,.869,1.249,3.1,3.1,0,0,1,.734.074,2.339,2.339,0,0,0,.512.441c.274.038.557-.172.824-.025a2.108,2.108,0,0,1,.49.466,26.008,26.008,0,0,0,2.351,1.967.587.587,0,0,1,.208.31c.377.213.723.454,1.09.66.317.046.613-.219.935-.245.27.423.278.6.712.636.471.328,1.022,1.062,1.825,1.131.248.407.7,1.562.912,1.762.119.115.351.188.446.319.143.2.13.825.267,1.077s.359.273.512.441c.356.392.367,1.268,1.069,1.371a.486.486,0,0,1,.111-.245c.244.1.178.435.6.539a15.314,15.314,0,0,1,.868,2.45c.161,1.154-.235,1.212.779,2.2.232.227.5.262.734.441.188.141.119.515.334.612.257-.221.094-.466.2-.66a2.558,2.558,0,0,1,1.2.734c-.217,3.353.617,1.894,1.135,2.938a5.726,5.726,0,0,0,1.357,2.252c.3.291,1.1,1.236.623,1.641l-.2.172.045.172.245.147a.614.614,0,0,0,.156.221c.2.118.422-.069.623.049.451.188,1.3.921,1.335,1.3.734.648,1.91.058,2.248,1.469-.138.23-.6,1.12-.512,1.347.333.22.727.17.89.294a1.833,1.833,0,0,0,.423.538c.283-.02.582.045.868.025.238.094.675,1.346.868,1.665.345.565,1.019.555,1.18.955.213.084.3.328.49.441a10.5,10.5,0,0,0,.979.565c.194.089.441.046.623.147.356.2.606.79,1,.955a.774.774,0,0,1,.377,0c.416.386.9,1.562,1.179,1.713.417-.073.45-.377,1.024-.147a2.005,2.005,0,0,1,.356-.221c.377-.172,1.25-.232,1.535.123a15.087,15.087,0,0,1,.848,1.909c.251.434.837.754,1.131,1.175.117.165.232.451.422.538.385.177.66-.027.979.074.178.057.32.312.557.392.366.123.736,0,1.131.2a3.405,3.405,0,0,1,1.6,2.081.77.77,0,0,1,.445.319c.347.634.915.7,1.114,1.028.108.18.113.43.245.637.327.514.873.828,1.2,1.347.1.162.112.387.221.538a16.944,16.944,0,0,0,1.536.955c.588.353,1.149.393,1.647.882.366.1.9-.261,1.268-.343a5.887,5.887,0,0,1,4.073,1.028c.252.008.471-.226.734-.245.222-.015.457.094.668-.025,1.107-.131.991.476,1.508.98.269.258.66.369.935.612a7.627,7.627,0,0,1,1.469,2.375c.492.2,1.356.982,1.713.955a.583.583,0,0,0-.289-.466v-.245c.175.138.471.471.712.368.428-.343-.678-1.729-.754-2.13l.044-.172c.139-.129.269-.222.4-.367-.754-.218-1.454.227-2.136-.245l-.156.2c-.385.094-1.518-1.268-1.2-1.885a1.531,1.531,0,0,0,.49-.466l.178-.049a1.135,1.135,0,0,1,.245.318c.465.233.828-.305,1.225-.416.2.267.049.394.089.588.682-.273,1.082.011,1.713-.343.408-.691.129-1.328.8-2.13a1.034,1.034,0,0,0-.067-.343,1.785,1.785,0,0,0-.312-.073v-.27c1.6-1.161.268-2.321.779-2.718a1.649,1.649,0,0,1,.848-.025c.155.164-.007.377.022.565h.178c.145-.128.3-.236.334-.441a.365.365,0,0,0-.156-.2l.045-.27a.511.511,0,0,1,.289.049c.146.211.089.377.134.612.21.335,1.319.329,1.58.074.013-.012.506-1.3.512-1.371a1.322,1.322,0,0,1-.156-1.053c.157-.142.391-.122.579-.2-.612-.826.754-.909-.156-1.713v-.294a1.353,1.353,0,0,0,.2-.2,1.128,1.128,0,0,1,.935.319h.2c.237-.377.3-.439.623-.539.483-.24.707.254,1.179-.221.094-.166-.1-.7-.177-.881l.044-.172c.99-.716,1.591-.27,1.513-1.79.6-.459.891-1.087,1.447-1.319.2-.086.684.052.824-.049.109-.221.541-.328.754-.441.115-.163-.067-.518,0-.734a1.771,1.771,0,0,0,.89-1.4c-.018-.235-.134-.27-.066-.565.124-.541.5-1.077.334-1.665-.055-.189-.66-.524-.69-1.028-.046-.754.5-1.44.446-2.2-.019-.262-1.294-1.16-.754-1.934.172-.067.252-.221.446-.27.477-.654-.008-1.037.245-1.542.172-.348.5-.6.533-1.028.047-.66-.3-1.375-.2-2.056.081-.534.462-.769.533-1.319a6.038,6.038,0,0,0-.134-1.2c-.01-.172.016-.506-.156-.612a1.183,1.183,0,0,0-.512-.073.354.354,0,0,1-.067-.294c.646-.711-.072-.754-.557-.832-.149-.025-.243-.182-.4-.172a.461.461,0,0,0-.222-.172.35.35,0,0,1-.066-.294.445.445,0,0,0,.2-.392.57.57,0,0,0-.311.049,4.193,4.193,0,0,1-.734-2.6c.066-.294.311-.507.311-.832,0-.2-.439-1.074-.512-1.42a17.834,17.834,0,0,1-.111-2.644c-.021-.329-.258-.549-.289-.881a4.186,4.186,0,0,0,.4-.784c.048-.23-.037-.458.067-.686.119-.261.483-.3.578-.588.217-.66-.041-.785.513-1.4,1.159-.21.963-1.213,1.179-1.517.13-.183.413-.288.49-.49.307-.812-.582-1.445.2-2.228a14,14,0,0,1,.377-1.714c.182-.932-.471-1.451,1-1.64.418-.293.123-.685.178-1.077.058-.42,1.368-1.966,1.958-1.885.651.094.55.437.868.49.412-.17,1.114-2.859,1.114-3.329,0-.267-.22-.4-.356-.612-.9-.9.188-3.843,1.179-4.236,1.414-1.855.754-2.389,1.069-2.937a20.519,20.519,0,0,1,2.025-2.033c.167-.366-.024-.848.134-1.225a.378.378,0,0,0,.222-.343.922.922,0,0,1-.134-.754c.118-.216.407-.231.557-.417a8.448,8.448,0,0,0,.578-1.543,1.2,1.2,0,0,0,.69-.465c.486-.98.714-2.109,1.291-3.061.26-.431.719-.66.652-1.233a1.689,1.689,0,0,1-.408-1.828c.169-.1.611-.723.512-.93a.737.737,0,0,1-.2-.221.991.991,0,0,1,.067-.318c-.188-.354-.551-.861-.156-1.2a.431.431,0,0,0-.023-.318.51.51,0,0,1-.044-.514c.575-.2.233-1.021-.134-1.249-.117-.486.177-.66.2-1.028-.682-1.272.227-1.388.356-2.032.391-.22.74-.151,1.068-.319a.766.766,0,0,0,.245-.515c.028-.471-.238-.826-.267-1.273a9.528,9.528,0,0,1,.2-1.3,2.769,2.769,0,0,0-.134-.612c-.112-.8.11-1.778,0-2.571-.113-.812-.959-1.071-.4-2.424.151-.364,1.2-.535,1.6-.979a2.306,2.306,0,0,0,1.491-.66c.044-.221.208-.393.274-.612a4.2,4.2,0,0,0,.126-1.077c.087-1.319.175-.987-.8-1.812-.152-.2,0-.463-.067-.685-.139-.459-.667-.386-.667-.882,0-.357.382-.707.377-.882.17-.134.505-.417.446-.66a.528.528,0,0,0-.334-.27c-.094-.156-.006-.422.015-.6.024-.212-.115-.537-.037-.727.143-.35.644-.619.734-1.053.135-.642-.7-.519-.022-1.763.126-.233.108-.438.311-.636a2.843,2.843,0,0,1,.377-1.273c.063-.139-.056-.3,0-.466.273-.585.221-1.78.423-2.056.217-.3,1.047-.011,1.447-.319.266-.2.2-.572.311-.832.094-.232.56-.584.734-.832.258-.366.158-.675.334-1.028.089-.177.259-.247.356-.416a10.677,10.677,0,0,1-.044-1.909c-.035-.565-.571-1.059-.377-1.689a7.484,7.484,0,0,1,.646-1.1c.273-.55-.1-.926-.044-1.3.047-.307.356-.495.356-.783a3.283,3.283,0,0,0-.267-.857c-.163-.074-.311-.665-.29-.832,1.247-.457.677-.3.979-1.1.166-.227.423-.24.534-.466s.04-.421.274-.629c.37-.116.692-.094,1.037-.2l.245-.147c.117-.1.633-2.587,1.045-2.79,2.015,0,.761-1.8,1.291-2.13.165-.011.326.039.49.025.031-.224-.135-.413-.067-.636.177-.586,1.008-.843,1.2-1.319-.019-.227-.283-.221-.4-.368l.022-.172a4.017,4.017,0,0,0,1.314-.66c.068-.342.387-.572.49-.881.231-.7.03-1.058.422-1.861.615-.131.471-.8,1.158-1.028a3.687,3.687,0,0,0,.89-.245c.161-.107.159-.188.377-.221.41-.06.86.177,1.247,0a3.418,3.418,0,0,0,.942-.588c.329-.32.357-.826.579-1.175a17.553,17.553,0,0,1,1.225-1.469c.273-.337.416-.762.69-1.1.154-.188.371-.241.512-.441.173-.245.085-.645.2-.754a.3.3,0,0,1,.267.025c.064.15.771.36.942.384a2.412,2.412,0,0,1,.311.094.933.933,0,0,0,.482.163c.727.741,2.236.587,1.425,2.105a.455.455,0,0,0-.177.171c-.441.546-.495,1.613-.824,2.277-.225.454-.848.766-1.09,1.249s-.033.83-.134,1.273c-.073.323-.512.529-.512,1.077a6.882,6.882,0,0,0,.2.734c.066.471-.188.877-.134,1.319.041.316.264.614.222.955-.074.613-.561.7-.668,1.053-.084.276.153.532.134.808-.027.4-.394.825-.134,1.2.014.188-.121.289-.134.466s.135.361.111.613c-.026.283-.216.3-.4.42a13.525,13.525,0,0,0-.8,1.319,1.447,1.447,0,0,0,.2.392c.039.259-.31.784-.358,1.152.077.134.2.182.291.293.156.194.493,1.451.244,1.616a.35.35,0,0,1-.289.024c-.141-.188-.754-.163-.98-.146-.133.172-.055.405-.155.587-.565,1.031-.377,1.406.244,2.351a1.227,1.227,0,0,1-.022.367.6.6,0,0,1,.09.466,1.274,1.274,0,0,0-.2.2.4.4,0,0,0,.471.244c-.487,1.112-1.742,1.111-1.958,1.273-.2.55-.487.817-.446,1.494a.437.437,0,0,0,.377-.123.73.73,0,0,1-.346.973.754.754,0,0,1-.165.056c-.13.126-.159.36-.269.515-.76,1.075-.269,1.866-.49,2.937-.163.789-.56,1.017-.778,1.592-.3.793-.073,1.722-.466,2.522a4.482,4.482,0,0,1-.423,2.6c-.023.377.247.531.089,1.054-.2.653-.761.884-1.069,1.444a2.96,2.96,0,0,0-.334,1.91c-.04.159-.159.249-.156.441a.664.664,0,0,0,.178.245c.152.022.234.14.377.171l.177.246c.029.234-.1.446-.089.685.163,2.5-.724,1.71-1,3.036-.237,1.131.538,2.515-.471,3.477a.371.371,0,0,0-.188.081c-.271.238-.266,1.087-.408,1.462-.133.349-.754,1.59-.779,1.714a.845.845,0,0,0,.6.147c.137.047.183.215.268.318,1.436.355-.052,1.628-.044,2.45a.575.575,0,0,0,.267.074.491.491,0,0,1,.134.27c-.509.208-.565,1.743-.471,2.154a1.452,1.452,0,0,1,.377.565.79.79,0,0,1-.216.228c-.385.344-.327,1.08-.541,1.508-.168.337-.583.471-.691.857a3.526,3.526,0,0,0,.156.417c-.066.274-.848.66-.534,1.053-.067.253.01.565-.065.833-.115.411-.445.6-.624.93-.139.254-.035.529-.111.784-.138.463-.545.785-.646,1.3-.172.875-.181,1.852-.438,2.693-.114.372-.508.557-.63.857a3.587,3.587,0,0,0-.156,1.591l.267.147c.123.153.3.238.43.377.326.358-.016,1.155.089,1.591,1.073.922.332,2.639.267,3.77-.08,1.408.824,2.482.824,4.211,0,.319.216.345.111.808-.114.5-.53.95-.668,1.445-.115.411-.143.843-.267,1.249a1.632,1.632,0,0,1-.177.392c-.466.66-1.45.924-1.647,1.861-.069.328.074.584.044.881-.119.132-.334.245-.422.368-.108.15-.044.3-.044.466s-.037.176-.111.294a4.22,4.22,0,0,0-.334,1.176c-.214.762-1.174,1.529-1.513,2.35-.3.733-.182,1.8-.445,2.6-.232.7-.848,1.189-1.046,1.861-.2.652.188.782-.534,1.64.094.471-.754,1.857-.979,2.3-.253.509-.255,1.281-.578,1.738a2.215,2.215,0,0,1-.4.343c.009.211-.16.362-.2.565a1.188,1.188,0,0,1-.471.318l-.045.245c.29.045.511-.2.779-.2a.948.948,0,0,1-.134.734.63.63,0,0,1-.712-.122c-.34.18-.094.454-.134.686a1.056,1.056,0,0,0-.2.392l.044.172a1.013,1.013,0,0,0,.268.122c-.062.227-.377.353-.513.538-.189.263.007.665-.089.98-.144.477-.552.789-.712,1.225.141.237.525.148.754.2l.044.172c-.055.165-.386.408-.512.636-.357.248-.72.06-.979.2-.09.112-.209.169-.245.319a.6.6,0,0,1,.022.22c-.183.443.073.576.134.881l.134-.22a1.117,1.117,0,0,1,.312-.025.848.848,0,0,1,.044.637.985.985,0,0,1-.512.049l-.044.294.245.094a.5.5,0,0,1,.471-.073,1.026,1.026,0,0,1,.177.882c-.269.078-.884.332-1.113.147-.268-.9-.193-.327-.734-.783a.44.44,0,0,0,.245-.147l-.222-.172c-.169.07-.517.053-.623.172a.631.631,0,0,1-.267.49,2.331,2.331,0,0,0-.089.49c.511,1.024-1,.334-.824,1.592l-.334.049v.172a1.212,1.212,0,0,1,.178.22c-.283.161-.533-.066-.779-.024-1.48,1.041-.539,1.539-1.38,1.861-.114.111-.108.283-.222.392l-.377.2.044.171a.543.543,0,0,1,.2.172l-.022.2c-.146.146-.314.2-.377.417l.022.172c.07.228-.056.4-.022.515a2.488,2.488,0,0,0,.533.221,1.08,1.08,0,0,1,.067-.294,2.617,2.617,0,0,1,.445.049,5.962,5.962,0,0,1,.6-.93c.318-.1.828.221,1.046.44l-.022.172a1.825,1.825,0,0,0-.29.123l.312.22.044.172a.54.54,0,0,0-.134.245c.164.206.247.319.334.417-.068.341-.4.764-.423,1.1a.805.805,0,0,0,.053.27,6.057,6.057,0,0,1,.437,1.592.938.938,0,0,0,.29-.368l.177-.025c.268.2.317.632.111.76l-.289-.025a1.135,1.135,0,0,1,.134.466.994.994,0,0,1-.267.122l.044.294c.159.16.522.464.754.368l.022-.172c.236-.059.332.189.533.221l.089-.392a.345.345,0,0,0,.289-.073.679.679,0,0,1,.067-.588,3.054,3.054,0,0,1,.445.024c.234-.574-.044-1.037-.044-1.42,0-.319.283-.646.377-.955a.284.284,0,0,1,.222,0,.432.432,0,0,1,.512-.294c.208.117.27.29.557.2.024-.444-.032-1.158-.471-1.151a1.733,1.733,0,0,1-.222-.565,1.492,1.492,0,0,1-.471-.294l-.044-.172c.01-.118.841-1.083.979-1.319.241-.076.477-.2.712-.27.044-.22.283-.39.377-.588.2-.4-.21-.66.377-1.131a1.708,1.708,0,0,1,.49-.024c.211.205.283.547.646.49.577-.094.317-.711.49-1a.577.577,0,0,1,.445-.074,2.564,2.564,0,0,1,.334,1.1c.122.146.188.369.4.416a1.755,1.755,0,0,1,.29.294,4.482,4.482,0,0,0-.646.147v.245a.779.779,0,0,0,.222.122c.156-.014.261-.188.356-.294a1.1,1.1,0,0,1,.49.343.377.377,0,0,1,.268.294,2.828,2.828,0,0,0,.422.172c.268-.188.345-.393.712-.343.013.013.492.236.534.245.169.188.235.565.534.612a.428.428,0,0,0,.156.245l.178.049.066-.294a.316.316,0,0,1,.222-.049c.074.188.189.394.245.588h.177l.222-.2a1.409,1.409,0,0,1,.423.2.307.307,0,0,0,.177-.2l-.111-.27.045-.172a.566.566,0,0,1,.49,0c.032-.356.062-.584.356-.686a.662.662,0,0,0,.4-.122c.482.066.565-.353,1.357-.049a.321.321,0,0,1-.044.368c-.194.18-.352.257-.356.441l.09.245a.456.456,0,0,1,.267.172,2.5,2.5,0,0,0-.334.466c-.339.073-.66-.031-.912.025a.353.353,0,0,0-.067.294,1.044,1.044,0,0,0-.289.122c.06.283.209.548-.134.734l-.178-.049a1,1,0,0,0,.245.27c.265-.055.547.25.754.2.149-.094.146-.267.29-.343a.351.351,0,0,1,.2-.392c.076-.432.516-.8.754-1.175a1.287,1.287,0,0,1,.512-.049,2,2,0,0,1,.134-.466c-.205-.277-.415-.132-.579-.392.2-.136.3-.247.471-.27a.525.525,0,0,0,.471,0l.356-.123a.855.855,0,0,1,.356-.392,3.361,3.361,0,0,1,1.069.245l.289-.123a.353.353,0,0,1,.067.294l-.245.172a8.065,8.065,0,0,1-.824.514,1.631,1.631,0,0,0-.377.025c-.393.3-.539.377-.356.881a1.273,1.273,0,0,0,.267.171.873.873,0,0,1,.089.27,1.418,1.418,0,0,0-.579.636.707.707,0,0,0,.422-.049.728.728,0,0,1,.045.342,1.037,1.037,0,0,0,.222.172h.2c.06-.094.377-.135.513-.245v-.343l.134-.27c.267-.207.43.1.623.172l.2-.049a.716.716,0,0,1,.823-.245.645.645,0,0,1,.423-.147c.082.094.044.366.044.49.294,0,.654-.144.935-.049.237.08.2.3.533.245a7.934,7.934,0,0,1,1.314-.221.512.512,0,0,0,.579.122,2.769,2.769,0,0,0,.312-.22l.089-.245c.239-.154.608-.565.891-.514a.928.928,0,0,0,.556-.27c-.43-.172-.634.127-.957.172l-.066-.172a1.144,1.144,0,0,1,.2-.392c.4-.188.739.063,1.046,0,.211-.043.383-.209.6-.245.6.483,1.573-.5,2.048-.734.294-.147.694-.126.957-.27.047.085.639.5.754.686.179.283.156.653.471.857.2.027.477-.132.646,0-.089-.113-.177-.2-.222-.27a.6.6,0,0,0,.066-.514c-.174-.108-.214-.27-.356-.392h-.311l.066-.2a.344.344,0,0,0-.156-.221l-.067.172a.8.8,0,0,1-.311.172c-.189-.1-.257-.252-.4-.392a.615.615,0,0,1,.044-.294.361.361,0,0,0,.245-.171.941.941,0,0,1,.935.417.36.36,0,0,1,.245.172c.391,0,1,.345,1.246.294.294-.353,1.175-.612,1.4-.049.17.2.435.541.6.565a6.135,6.135,0,0,1,2.2,1.469,2.41,2.41,0,0,1,.49.343c.134.165.139.441.3.58.387.032,2.813-.058,2.931.057.288.471-.047.29.578.979a2.835,2.835,0,0,1,.534.073v.318a.647.647,0,0,0,.533-.2l.045-.2a.6.6,0,0,1,.245-.123c.255.075.229.415.533.466.155.234.357.188.446.319a9.422,9.422,0,0,1,1.6-.172.763.763,0,0,0,.312.049c.66.581,1.314.864,1.314,1.861l-.156.22a.567.567,0,0,1-.6-.073.331.331,0,0,0-.177.343,1.383,1.383,0,0,1-.534.049c-.3-.283-.582-.084-.89-.073a3.537,3.537,0,0,1-2.494,1.028.793.793,0,0,0-.155.27c.041.157.188.276.222.417.04.173-.1.31-.067.466a1.413,1.413,0,0,0,.377.049c.692.117.046.519,1.335.245l.177.049a1.055,1.055,0,0,0,.423.342,1.576,1.576,0,0,0,.289.343c.3-.075.713.261.979.368a3,3,0,0,0,.111.441c.131.094.293.106.423.2l.177.147a1.169,1.169,0,0,0,.156.245h.312a.313.313,0,0,1,.177.2c.44,1.013,1.488.471,2.181,1.151.743.726.386,1.929.824,2.571.573.841,1.481,1.2,2.115,1.958a5.844,5.844,0,0,1,.4.76c.223.345.727.466,1,.734a8.273,8.273,0,0,1,.86,1.281,6.182,6.182,0,0,1,1.009,1.559c.377,1.422.054,2.955.778,4.284.64,1.172,2.3.679,3.161,1.518a12.02,12.02,0,0,1,2.293,4.088c.258.709.952,1.044,1.225,1.665.25.565.255,1.251.471,1.836.921,2.532,1.72,3.312,4.006,4.652.317.7.359,1.443.734,2.13a3.121,3.121,0,0,1,.177.392c.241,1.007-.538,2.52-.008,3.338.094.6-.052,1.186.053,1.657a41.535,41.535,0,0,0,2.537,4.945c.229.283,1.588,1.729,1.625,1.812a3.971,3.971,0,0,1,.222,1.591c.215.22.471.243.712.392a6.022,6.022,0,0,1,1.09,1.225c.764.95,1.136,2.306,1.891,3.28.188.242.454.32.646.515.565.58.674,1.508,1.447,2.032a10.769,10.769,0,0,0,2.137.832,15,15,0,0,1,1.825,1.054c1.358.7,2.65,1.414,2.581,3.158-.041,1.051,1.109,2.544,1.914,3.183a3.081,3.081,0,0,1,.646.514,11.835,11.835,0,0,1,1.825,3.4c.714,2.114.188,2.492-.646,4.335-.061.137-.337.708-.356.808-.159.877.762,2.639.935,3.675.326.122.361.4.533.637.547.754,1.248,1.385,1.825,2.13,1.037,1.343,1.64,2.952,2.76,4.236a8.02,8.02,0,0,0,2.025,1.444c.668.436.81,1.12,1.269,1.69a8.2,8.2,0,0,0,.934.808c.666.575,1.594.616,2.27,1.174.8.66.8,1.423,1.314,2.179a5.069,5.069,0,0,0,.979.808c1.014.808,2.639.892,3.494,1.763a9.1,9.1,0,0,1,.734,1c.56,1.232-.235,2.225-.044,3.427.133.836.832,1.524,1.131,2.3.113.29.108.636.2.93.269.865.576,1.732.848,2.6a16.022,16.022,0,0,0,2.649,4.26c.737.56,1.421.691,2.048,1.469.3.371,1.15,2.544,1.6,3.06a6.116,6.116,0,0,0,.979.76c.495.37.648.842,1.024,1.272.293.336.734.416,1.069.687.482.392.883.937,1.357,1.346.208.18.525.291.712.466.594.556.479,1.784.823,2.082a3.282,3.282,0,0,0,.869.293,5.574,5.574,0,0,1,.466.687c.307.72.189,2.167.713,2.717a3.252,3.252,0,0,1,2.181,2.939,4.158,4.158,0,0,0,.135,1.051c.188.458.63.979.868,1.445.814,1.594.023,2.067,1.825,3.427.361.74.214,1.535.512,2.279a49.057,49.057,0,0,0,2.57,4.374c.673,1.274.9,2.871,1.626,4.113.237.405,1.131.806,1.558,1.274a10.159,10.159,0,0,1,1.246,2.277c.2.383.555.565.8.929.377.556.6,1.294,1.083,1.979a1.561,1.561,0,0,1,.215.359l.1.261c-.646,2.167.674,2.282.868,3.4a10.381,10.381,0,0,1-.022,1.248l-.222.344.067.293a1.192,1.192,0,0,1,.557.565,2.227,2.227,0,0,0-.156.931c1.055.959.651.577,1.937,1a4.086,4.086,0,0,0,.6,1.543c.942.18,2.057,1.748,2.983,2.179l.512-.024c.223.3.453.792.8.954.289.137.639.019.934.025,1.627.037,3.261.123,4.875.268a11.5,11.5,0,0,1,1.314.416c.672.132,1.184.034,1.508.831a7.214,7.214,0,0,1,.2,1.495,3.813,3.813,0,0,1,.579,3.622,10.114,10.114,0,0,0-.734,1.593,31.022,31.022,0,0,1-.534,3.943c-.094.278-.289.5-.4.754a10.615,10.615,0,0,1-.512,1.247c-.558.968-1.573,1.528-2.293,2.351.043.564,1.156,1.053,1.536,1.469.812.894,1.142,4.154,2.581,4.064l.312.294c.2.78-.5,1.968.422,2.522a4.459,4.459,0,0,0,.979-.147c.306.471.632,1.55,1.18,1.64.4-.53,1.777-.392,2.314-.145a4.573,4.573,0,0,1,.913.808l.356.024.134-.466a2.529,2.529,0,0,1-.579-1.2,1.708,1.708,0,0,1,.356-.808h.471a3.171,3.171,0,0,1,1.09,1.225c1.814.78,1.319,1.769,2.493,2.816l1.536,1.348c1.006.9,2.45,1.319,3.317,2.4.821,1.027.349,1.307.711,2.13a17.33,17.33,0,0,0,1.714,1.813,15.109,15.109,0,0,1,.623,2.79,16.109,16.109,0,0,0,.022,1.666c1.961.081,1.459,2.518,1.847,3.917.453.541,1.173.769,1.647,1.248.328.332.527,1.1.89,1.348.336.226.854.328,1.225.539.79.448,1.46,1.182,2.27,1.64l.177.39c-.2.4-.377.8-.557,1.2,0,.641.721.828.557,1.642a5.991,5.991,0,0,0-.712.929c-.18.716.321,1.016.646,1.518.245.377.224.867.446,1.272.139.257.366.429.512.66.4.645-.307,1.609.49,3.2a61.884,61.884,0,0,0,4.54,5.141c.653.21,1.29-.228,1.958.025.574.631.533,1.259.957,1.933.575.919,1.7,1.4,2.356,2.229a13.836,13.836,0,0,1,1.068,1.861c.21.334.623.55.848.882.266.394.124.894.312,1.319.646,1.465,1.177,1.46,1.131,3.427-.051,2.356-1.7,1.745-1.18,3.864a20.03,20.03,0,0,0,1.335,2.669c.35.436.888.681,1.131,1.174a8.682,8.682,0,0,1,.471,1.791c3.256,1.842-1.252,6.046-1.491,7.761a11.725,11.725,0,0,0,1.2,3.427c.256.548.3,1.225.533,1.791.177.431.511.66.557,1.174a4.664,4.664,0,0,1-.423.734c-.615.6-1.636.66-2.381,1.029-.466.234-.855.823-1.4.882-1.047.112-2.031-1.1-3.717-.516l-.245.344c.131,1.267,1.486,1.657,2.073,2.619.319.527.221,1.225.557,1.738.273.422.8.483,1.113,1.1,1.138.089,1.749-.677,2.649-.637l.333.245a1.957,1.957,0,0,1-.245,1.837,2.761,2.761,0,0,1-1.046.094l-.334.2a1.313,1.313,0,0,0,.067.931,3.28,3.28,0,0,1,1.7,2.35,6.27,6.27,0,0,1,.422,1.319c.039.353-.058.66.178.979.76.151,1.1.678,1.736.942a4.943,4.943,0,0,0,1.09.254c1.88.385,1.846,1.037,2.537,2.6l.283.122" transform="translate(0 0)" fill="none" stroke="#dcbb6a" stroke-miterlimit="10" stroke-width="1"/>
      </g>
      <text id="_" data-name="" transform="translate(1298 1168.4)" fill="#dcbb6a" font-size="36" font-family="SegoeUI, Segoe UI"><tspan x="-11.619" y="0"></tspan></text>
      <text id="_2" data-name="" transform="translate(1304 1050.4)" fill="#dcbb6a" font-size="36" font-family="SegoeUI, Segoe UI"><tspan x="-11.619" y="0"></tspan></text>
      <text id="_3" data-name="" transform="translate(1332 968.4)" fill="#dcbb6a" font-size="36" font-family="SegoeUI, Segoe UI"><tspan x="-11.619" y="0"></tspan></text>
      <text id="_4" data-name="" transform="translate(1284 1125.4)" fill="#dcbb6a" font-size="36" font-family="SegoeUI, Segoe UI"><tspan x="-11.619" y="0"></tspan></text>
      <text id="_5" data-name="" transform="translate(1334 1238.322)" fill="#dcbb6a" font-size="36" font-family="SegoeUI, Segoe UI"><tspan x="-11.619" y="0"></tspan></text>
      <text id="_6" data-name="" transform="translate(1374 1324.4)" fill="#dcbb6a" font-size="36" font-family="SegoeUI, Segoe UI"><tspan x="-11.619" y="0"></tspan></text>
      <text id="_7" data-name="" transform="translate(1420 1461.4)" fill="#dcbb6a" font-size="36" font-family="SegoeUI, Segoe UI"><tspan x="-11.619" y="0"></tspan></text>
    </g>
    <text id="Sharm_El_Sheikh" data-name="Sharm
El Sheikh" transform="translate(1278.824 1082.4)" fill="#fff" font-size="16" font-family="SegoeUI, Segoe UI" letter-spacing="0.005em"><tspan x="0" y="0">Sharm</tspan><tspan x="0" y="21">El Sheikh</tspan></text>
    <text id="Dahab" transform="translate(1262.824 971.4)" fill="#fff" font-size="16" font-family="SegoeUI, Segoe UI" letter-spacing="0.005em"><tspan x="-23.14" y="0">Dahab</tspan></text>
    <text id="Hurghada" transform="translate(1248.824 1146.4)" fill="#fff" font-size="16" font-family="SegoeUI, Segoe UI" letter-spacing="0.005em"><tspan x="-70.716" y="0">Hurghada</tspan></text>
    <text id="EL_Quseir" data-name="EL Quseir" transform="translate(1287.824 1253.4)" fill="#fff" font-size="16" font-family="SegoeUI, Segoe UI" letter-spacing="0.005em"><tspan x="-66.359" y="0">EL Quseir</tspan></text>
    <text id="Safaga" transform="translate(1261.824 1182.4)" fill="#fff" font-size="16" font-family="SegoeUI, Segoe UI" letter-spacing="0.005em"><tspan x="-47.752" y="0">Safaga</tspan></text>
    <text id="Marsa_Alam" data-name="Marsa Alam" transform="translate(1331.824 1337.4)" fill="#fff" font-size="16" font-family="SegoeUI, Segoe UI" letter-spacing="0.005em"><tspan x="-84.22" y="0">Marsa Alam</tspan></text>
    <text id="Hamata" transform="translate(1380.824 1481.4)" fill="#fff" font-size="16" font-family="SegoeUI, Segoe UI" letter-spacing="0.005em"><tspan x="-55.384" y="0">Hamata</tspan></text>
  </g>
</svg>
