<svg xmlns="http://www.w3.org/2000/svg" width="343.582" height="338.679" viewBox="0 0 343.582 338.679">
  <g id="compass" transform="matrix(0.966, -0.259, 0.259, 0.966, -108.343, 18.459)" opacity="0.12">
    <path id="Path_2141" data-name="Path 2141" d="M176.994,117.554c-.348-.8-.778-1.471-1.369-1.412-2.07.2-2.063-1.137-2.207-2.557a20.069,20.069,0,0,0-.686-2.881c-.167-.649-.507-1.306.412-2.055a27.879,27.879,0,0,0,5.192,4.092c.477.321-.1.925-.043,1.4.082.708-.268,1.481.456,2.327a183.109,183.109,0,0,1,27.335-12.37c.047-.8-.215-1.484-.831-1.613-1.706-.358-1.486-1.392-1.217-2.64a26.9,26.9,0,0,0,.35-3.312c.057-.669-.031-1.391.752-1.734.948.1.806.954,1.118,1.506a10.989,10.989,0,0,0,1.465,2.133c1.086,1.157,1.762,2.289.63,3.8a3.131,3.131,0,0,0-.315,1.009c.463.371.885.177,1.293.072A129.327,129.327,0,0,1,232.4,99.8c1.57-.117,2.151-.69,2.38-2.311.577-4.09,1.443-8.139,2.187-12.205.143-.782.441-.864,1.32-.929,1.063-.079,1.13.3,1.281,1,.924,4.285,1.786,8.583,2.306,12.937.141,1.179.854,1.347,1.773,1.431,5.358.493,10.722.95,16.015,1.951,2.895.547,5.764,1.226,8.627,1.841.1-.264.2-.413.162-.471-1.335-2.1-.672-3.81.959-5.4a3.972,3.972,0,0,0,1.105-2.108.808.808,0,0,1,.747-.719c.55-.017.763.43.795.857a31.687,31.687,0,0,0,.673,5.514c.185.727-.461.943-1,1.092a1.752,1.752,0,0,0-1.334,1.757,185.536,185.536,0,0,1,27.249,12.374,1.069,1.069,0,0,0,.571-1.4c-.544-1.915.455-2.94,2.014-3.649,1.3-.592,2.011-1.922,3.411-2.809.829,2.089-.853,3.733-.567,5.463.479,2.9-3.184,1.388-3.464,3.648,1.118.66,2.329,1.372,3.538,2.088a141.7,141.7,0,0,1,19.323,13.114,73.815,73.815,0,0,1,13.588,14.895c2.3,3.373,4.722,6.662,7.022,10.034.85,1.245,1.7,1.232,2.036-.108.546-2.195,1.98-2.619,3.889-2.654a4.766,4.766,0,0,0,2.485-.658c.4-.251.92-.539,1.3.043a.933.933,0,0,1-.226,1.185,22.145,22.145,0,0,0-3.183,4.09.92.92,0,0,1-1.434.3c-1.1-.686-1.985-.239-2.988.551a161.333,161.333,0,0,1,6.412,15.753c1.333,3.721,2.388,7.541,3.553,11.321.552,1.79,1.348,2.1,2.4.606a3.162,3.162,0,0,1,4.026-1.293,10.477,10.477,0,0,0,3.886.083c.4.635.283,1.068-.106,1.326a36.352,36.352,0,0,0-4.689,3.312c-.454.417-.951.141-1.3-.25-.931-1.027-1.974-.74-3.285-.274a87.376,87.376,0,0,1,3.216,27.356c5.112.926,10.085,1.793,15.041,2.751,1.015.2,2.74-.066,2.77,1.242.031,1.368-1.707,1.121-2.7,1.285-4.368.719-8.65,1.895-13.065,2.376a2.433,2.433,0,0,0-2.484,2.545,118.954,118.954,0,0,1-3.483,22.7,7.085,7.085,0,0,0-.009,1.287c2.782-2.428,4.543-.4,6.38,1.115.692.571,1.931.251,2.237,1.4-.3.848-1.028.779-1.7.823a21.876,21.876,0,0,0-2.589.184c-1.48.275-3.042,1.05-3.59-1.312-.1-.419-.748-.589-1.376-.616a185.462,185.462,0,0,1-12.384,27.25c.36.636.774.7,1.109.589,2.149-.689,3.3.48,4.088,2.211.568,1.24,1.967,1.807,2.5,3.009-.548.757-1.144.6-1.756.413-.771-.229-1.538-.487-2.324-.642-1.58-.313-3.646.106-3.445-2.618.028-.378-.528-.8-.863-1.268a13.1,13.1,0,0,0-2.582,3.712c-5.186,8.583-10.418,17.116-17.592,24.274-6.046,6.032-13.183,10.612-20.079,15.525-.509.362-1.417.468-1.281,1.371.119.8.9,1.063,1.519,1.2,1.451.309,1.937,1.108,1.967,2.559a7.024,7.024,0,0,0,.9,3.747.726.726,0,0,1-.06,1.013.862.862,0,0,1-1.185-.1,25.437,25.437,0,0,0-4.24-3.294c-.623-.357-.528-.933-.216-1.456.67-1.12.178-1.984-.6-2.911a163.1,163.1,0,0,1-15.973,6.495c-3.661,1.316-7.428,2.338-11.151,3.482-1.7.52-2.039,1.372-.617,2.289,1.864,1.2,1.836,2.644,1.315,4.365-.378,1.251.138,2.55-.157,3.74a.929.929,0,0,1-1.359-.4,25.315,25.315,0,0,0-3.087-4.393.859.859,0,0,1,.11-1.318c1.079-.969.868-2.039.36-3.294-4.349.844-8.56,2.074-12.933,2.535a69.446,69.446,0,0,1-10.173.623c-1.356-.056-1.957.359-2.138,1.8-.634,5.023-1.537,10.006-2.61,14.956-.168.773-.438.868-1.322.931-1.061.076-1.128-.3-1.283-1-1.107-5.007-1.961-10.058-2.668-15.135-.119-.858-.274-1.55-1.4-1.526a85.159,85.159,0,0,1-23.709-3.253c-.544,1.221-.857,2.271.209,3.272.386.363.668.854.252,1.306A34.831,34.831,0,0,0,206.331,349c-.215.327-.582.43-1.258.265a26.772,26.772,0,0,0-.5-6.423c-.1-.753.984-.81,1.421-1.324.478-.561,1.2-.989,1.066-1.841-.14-.917-1.037-.756-1.633-.925a178.276,178.276,0,0,1-26.268-9.63,5.872,5.872,0,0,0-.688-.22c-.728.922-1.174,1.8-.492,2.907a.985.985,0,0,1-.451,1.538,19.122,19.122,0,0,0-3.791,2.965c-.364.348-.816.661-1.328.345-.593-.367-.3-.9-.049-1.3a4.433,4.433,0,0,0,.618-2.116c.125-2,.338-3.8,2.86-4.344,1.08-.232,1.187-1.1.1-1.847-3.36-2.319-6.683-4.692-10.029-7.029A76.557,76.557,0,0,1,145.1,298.6c-2.814-4.367-5.873-8.577-8.286-13.2-.364-.7-.838-1.34-1.25-1.993-.9.365-1.553.838-1.486,1.658.121,1.477-.667,1.718-1.884,1.839a27.059,27.059,0,0,0-3.615.786c-.658.16-1.32.463-1.93-.533a18.5,18.5,0,0,0,3.885-4.946c.256-.464.724-.285,1.166-.2a5.97,5.97,0,0,0,2.872-.151,185.683,185.683,0,0,1-12.484-27.533c-.837-.1-1.514.209-1.666.913-.321,1.479-1.176,1.488-2.338,1.143a15.428,15.428,0,0,0-3.867-.4c-.558-.021-1.23-.036-1.376-.691-.163-.733.489-.887,1.036-1.024a6.816,6.816,0,0,0,2.782-1.792c1.054-.942,2-1.528,3.32-.51a5,5,0,0,0,1.42.454,22.375,22.375,0,0,0-.974-5.085,117.288,117.288,0,0,1-2.534-18.728c-.107-1.9-1.023-2.315-2.571-2.566-4.449-.722-8.882-1.53-13.321-2.312-.425-.075-.839-.213-1.264-.3-.573-.112-1.2-.284-1.191-.949s.631-.831,1.2-.937c3.277-.614,6.553-1.239,9.83-1.846q2.821-.523,5.649-1c.742-.126,1.228-.334,1.191-1.277a87.932,87.932,0,0,1,3.057-25.7,3.773,3.773,0,0,0,.043-.626c-1.139-.491-2.2-.751-3.181.332-.3.334-.773.611-1.15.266-1.514-1.388-3.342-2.324-4.959-3.557-.246-.187-.283-.536.008-1.1a21.605,21.605,0,0,0,6.191-.493c.838-.147.867.923,1.362,1.354.6.521,1.055,1.338,1.985,1.148.864-.176.713-1.078.883-1.683a179.389,179.389,0,0,1,9.886-26.813c-.939-.843-1.861-1.249-3.021-.548a.92.92,0,0,1-1.414-.376,20.059,20.059,0,0,0-3.073-3.941c-.354-.369-.629-.858-.268-1.334.4-.525.918-.217,1.327.037a4.852,4.852,0,0,0,2.307.619c1.888.124,3.561.315,4.042,2.721.233,1.172,1.108,1.355,1.934.152,2.346-3.416,4.749-6.793,7.135-10.182a76.483,76.483,0,0,1,21.024-20.43c4.515-2.927,8.89-6.074,13.669-8.583C175.8,118.385,176.337,117.976,176.994,117.554Zm66.02-12.668c1.183,7.026,2.319,13.726,3.432,20.43.15.905.663,1.18,1.516,1.273a95.4,95.4,0,0,1,21.422,5.069c14.174,4.99,27.047,11.7,37.822,22.715,9.059,9.26,15.144,20.042,19.712,31.728a104.565,104.565,0,0,1,6.606,25.978c.179,1.55.6,2.388,2.4,2.533,2.509.2,4.982.842,7.477,1.265,3.451.585,6.906,1.143,10.525,1.74a76.429,76.429,0,0,0-3.42-25.3c-.869.241-1.577.422-2.278.634-3.492,1.056-6.977,2.137-10.476,3.167-.608.179-1.5.569-1.79-.284-.311-.914.653-1.02,1.267-1.219,3.763-1.222,7.52-2.471,11.31-3.607,1.266-.38,1.424-.891,1.068-2.126a186.919,186.919,0,0,0-6.778-19.033c-.878-2.144-1.921-4.221-2.98-6.527-1.83,1.271-3.379,2.381-4.964,3.439q-3.085,2.06-6.223,4.038c-.486.3-1.175.765-1.612-.006-.364-.642.268-.979.721-1.3.707-.5,1.419-.99,2.131-1.482,2.935-2.03,5.871-4.059,8.71-6.022-4.127-8.947-10.7-15.7-17.388-22.488-.886.841-1.633,1.572-2.4,2.276a1.167,1.167,0,0,1-1.668.185c-.668-.592-.4-1.3.131-1.781.775-.7,1.661-1.284,2.439-1.872-2.5-3.179-17.494-13.079-23.69-15.822-1.006,1.8-2,3.639-3.048,5.449-1.175,2.035-2.369,4.058-3.6,6.055-.331.534-.7,1.425-1.511,1.005-.9-.467-.223-1.181.08-1.736.711-1.3,1.479-2.572,2.2-3.87,1.451-2.627,2.882-5.265,4.382-8.008a163.425,163.425,0,0,0-25.842-11.926c-.462,2.525-.841,4.772-1.293,7q-.735,3.633-1.593,7.242c-.119.506-.341,1.187-1.108.919-.586-.2-.514-.755-.413-1.266.167-.848.3-1.7.463-2.552.733-3.933,1.468-7.865,2.233-11.966A132.423,132.423,0,0,0,243.014,104.886ZM122.6,217.444a15.041,15.041,0,0,0,1.547-.078c5.782-.96,11.557-1.95,17.343-2.885,1.022-.166,1.276-.766,1.38-1.64.864-7.332,2.981-14.374,4.99-21.44a43.312,43.312,0,0,1,2.064-6.536c5.193-11.172,10.2-22.476,19.962-30.66.7-.589.327-1.706,1.187-1.951,1.422-.4,2.243-1.508,3.166-2.478a43.913,43.913,0,0,1,10.424-7.98c13.648-7.658,28-13.341,43.671-15.162a1.807,1.807,0,0,0,1.856-1.807c.44-2.934.975-5.853,1.464-8.781.607-3.631,1.2-7.264,1.849-11.154a130,130,0,0,0-23.935,3.949c.907,4.924,1.768,9.6,2.632,14.268.111.6.393,1.353-.469,1.527-.838.169-.96-.674-1.088-1.228-.543-2.347-1.022-4.71-1.519-7.068-.477-2.259-.582-4.609-1.5-6.843a166.89,166.89,0,0,0-25.653,11.916c1.931,3.435,3.774,6.709,5.61,9.988.483.862.959,1.73,1.4,2.611a.718.718,0,0,1-.233.984.7.7,0,0,1-.976-.224,8.491,8.491,0,0,1-.883-1.185c-1.765-3.049-3.506-6.112-5.269-9.161a4.047,4.047,0,0,0-1.52-1.938c-7.976,4.6-15.914,9.3-23.54,15.5,1.139.925,2,1.543,2.755,2.265a1.075,1.075,0,0,1,.127,1.648,1.12,1.12,0,0,1-1.661-.077c-.821-.723-1.6-1.491-2.469-2.3-6.765,6.809-13.314,13.578-17.392,22.471,3.565,2.465,7.168,4.954,10.767,7.452.493.341,1.241.7.748,1.42-.469.689-1.155.2-1.646-.112-2.041-1.282-4.056-2.607-6.069-3.934a43.391,43.391,0,0,0-5.115-3.357,158.668,158.668,0,0,0-10.028,27.006c.714.247,1.286.455,1.864.642q5.471,1.766,10.945,3.525c.582.187,1.419.341,1.223,1.109-.236.927-1.125.564-1.732.4-2.383-.657-4.749-1.38-7.123-2.072A35.747,35.747,0,0,0,126,192.414,76.5,76.5,0,0,0,122.6,217.444Zm227.023,33.374c1.393-4.1,1.919-8.212,2.687-12.261.586-3.091.832-6.25,1.2-9.382.082-.716.142-1.871-.929-1.521-2.25.737-4.588.7-6.862,1.153-3.164.624-6.343,1.216-9.542,1.61-1.287.159-1.839.542-2.026,1.826-.417,2.874-.648,5.771-1.328,8.613a128.254,128.254,0,0,1-9.97,27.477c-3.96,7.955-8.613,15.32-15.484,21.047-1.21,1.009-1.081,3.04-2.116,3.293a8.264,8.264,0,0,0-3.774,2.441,46.116,46.116,0,0,1-7.626,5.873,123.3,123.3,0,0,1-42.343,15.671c-4.642.835-4.662.812-5.458,5.468-.884,5.161-1.735,10.329-2.6,15.475,3.776,1,19.467-1.666,22.715-3.464-.175-.633-.34-1.29-.536-1.936-1.043-3.431-2.115-6.853-3.123-10.294-.207-.706-.788-1.77.263-2.092.949-.292,1.013.856,1.228,1.515.537,1.645.991,3.317,1.531,4.962.821,2.5,1.687,4.984,2.559,7.548a158.886,158.886,0,0,0,27.132-10.151c-1.292-1.851-2.408-3.4-3.474-4.989-1.31-1.949-2.6-3.913-3.849-5.9-.336-.536-.965-1.273-.244-1.808.811-.6,1.155.323,1.52.84.855,1.212,1.658,2.461,2.508,3.676,1.654,2.363,3.326,4.714,4.966,7.036,6.178-2.926,19.945-13.858,22.4-17.887-.687-.582-1.472-1.191-2.186-1.872-.524-.5-.837-1.17-.25-1.8.608-.653,1.234-.274,1.8.174.811.643,1.344,1.605,2.3,2.068,2.758-2.25,13.128-18.03,15.317-23.356-1.8-1-3.645-1.99-5.453-3.039q-3.208-1.859-6.358-3.817c-.43-.268-1.063-.652-.678-1.322s.953-.319,1.452-.056c.329.173.664.333.987.515,3.656,2.06,7.309,4.124,11.145,6.289a164.86,164.86,0,0,0,11.853-25.518,2.514,2.514,0,0,0-1.805-.738c-3.873-.8-7.759-1.535-11.633-2.333-.673-.139-1.756-.169-1.614-1.136.166-1.126,1.17-.564,1.826-.446C340.3,249.085,344.85,249.937,349.622,250.818ZM181.465,323.792A158.061,158.061,0,0,0,208.4,333.8c.2-.472.371-.8.482-1.142,1.234-3.824,2.454-7.652,3.691-11.475.2-.622.31-1.616,1.163-1.388,1,.267.528,1.242.347,1.9-.639,2.324-1.348,4.63-2.022,6.945a35.442,35.442,0,0,0-1.656,5.773c7.442,2.076,14.862,3.609,22.719,3.384-1.068-6.314-2.142-12.335-3.069-18.379-.225-1.473-.767-2.13-2.251-2.292-6.729-.738-13.1-3.043-19.636-4.611-7.368-1.767-13.872-5.542-20.593-8.8a46.9,46.9,0,0,1-13.3-9.341c-.77-.79-1.519-1.619-2.811-1.535-.519.034-1.073-.281-.819-.916.432-1.077-.409-1.437-.962-1.946-4.471-4.122-8.688-8.446-11.748-13.78a125.319,125.319,0,0,1-13.808-33.682c-.8-3.388-1.265-6.8-1.746-10.23-.157-1.119-.469-1.72-1.766-1.875-2.568-.306-5.1-.888-7.657-1.322-3.257-.553-6.521-1.07-9.787-1.6-.449,3.755,2.421,20.535,3.952,23.289,4.644-.856,9.317-1.716,13.988-2.58.6-.111,1.355-.385,1.517.483.155.833-.685.951-1.241,1.079-2.347.541-4.711,1.019-7.068,1.518-2.257.479-4.61.569-6.772,1.487,1.792,5.531,9.166,22.24,12.056,25.555,3.242-1.822,6.518-3.665,9.8-5.5.808-.454,1.62-.9,2.439-1.335.413-.218.857-.273,1.15.178.31.48-.03.82-.366,1.1a7.518,7.518,0,0,1-1.052.754c-3.051,1.761-6.113,3.5-9.163,5.268-.672.389-1.471.634-1.919,1.51,4.577,8,9.295,15.92,15.42,23.453.954-1.1,1.6-1.93,2.343-2.671a1.078,1.078,0,0,1,1.649-.115,1.128,1.128,0,0,1-.087,1.663c-.725.82-1.491,1.6-2.3,2.463,6.812,6.767,13.58,13.317,22.466,17.388,2.435-3.516,4.887-7.07,7.357-10.613.363-.521.7-1.447,1.515-.886.752.518.13,1.265-.2,1.8-1.247,1.99-2.548,3.946-3.841,5.907A40.727,40.727,0,0,0,181.465,323.792Zm6.48-56.715c-.867-.942-1.686-1.7-2.354-2.58-6.231-8.164-10.8-17.12-12.774-27.274a1.639,1.639,0,0,0-1.608-1.586c-7-1.146-13.97-2.445-20.971-3.573-1.959-.315-3.908-1.013-6.1-.766.433,2.918.692,5.694,1.274,8.4a119.107,119.107,0,0,0,11.693,31.133,72.12,72.12,0,0,0,5.972,9.6c2.569,3.4,5.72,6.227,8.863,9.354Zm116.762,22.861c16.669-16.254,24.1-36.45,27.9-58.64a17.207,17.207,0,0,0-4.791.541c-7.472,1.24-14.93,2.575-22.4,3.811a1.792,1.792,0,0,0-1.732,1.733,60.445,60.445,0,0,1-7.717,19.753,44.9,44.9,0,0,1-7.41,9.9Zm-14.718-114a31.368,31.368,0,0,1,2.242,2.854,121.8,121.8,0,0,1,13.559,29.547,1.673,1.673,0,0,0,1.614,1.388c6.267,1.031,12.512,2.19,18.782,3.2a26.717,26.717,0,0,0,5.907.794c-.111-.8-.208-1.4-.279-2-.82-6.964-2.959-13.62-4.87-20.317-2.809-9.844-7.753-18.693-13.316-27.185-2.32-3.541-5.6-6.317-8.752-9.394ZM171.65,154.809c-3.165,3.122-6.431,5.961-8.852,9.515A110.863,110.863,0,0,0,146.1,204.209a64.125,64.125,0,0,0-1.578,9.37,2.3,2.3,0,0,0,1.6.088c7.11-1.211,14.206-2.506,21.333-3.6,2.135-.326,3.046-1.118,3.755-3.3a113.714,113.714,0,0,1,15.226-30.985Zm75.516,160.843c.921-.115,1.519-.2,2.116-.264,6.364-.716,12.384-2.88,18.543-4.446,8.72-2.217,16.449-6.7,24.282-10.924a43.2,43.2,0,0,0,10.222-8.155,3.012,3.012,0,0,0-.412-.531q-10.166-7.623-20.329-15.249c-.765-.577-1.272-.341-1.962.091a104.727,104.727,0,0,1-22.758,11.149c-4.131,1.358-5.957,3.347-6.4,7.7C249.768,301.828,248.339,308.558,247.165,315.652ZM229.28,315.5c-.107-.828-.172-1.5-.282-2.162-1.2-7.193-2.485-14.373-3.548-21.586a3.586,3.586,0,0,0-2.837-3.278,122.634,122.634,0,0,1-25.533-12.208,1.91,1.91,0,0,0-2.58.142c-6.31,4.777-12.666,9.493-19,14.245-.464.348-1.131.553-1.2,1.274C185.8,304.632,214.444,314.21,229.28,315.5Zm73.571-162.488c-10.222-12.564-43.782-24.753-55.678-24.345a1.1,1.1,0,0,0-.064.356c1.35,8.171,2.724,16.338,4.042,24.515.162,1.009.751,1.054,1.529,1.188a57.149,57.149,0,0,1,12.9,3.942,74.289,74.289,0,0,1,16.364,9.955ZM229.5,128.382c-3.19.434-6.069.678-8.912,1.328a129.437,129.437,0,0,0-14.049,4.1,109.114,109.114,0,0,0-26.6,13.338,42.91,42.91,0,0,0-6.33,5.809l20.923,15.618c1.96-1.4,3.733-2.74,5.577-3.975a60.516,60.516,0,0,1,23.785-9.865c1.105-.185,1.38-.629,1.535-1.615.653-4.152,1.4-8.289,2.091-12.436C228.187,136.68,228.815,132.666,229.5,128.382Zm25.388,93.09h109.5c-7.147-1.43-14.3-2.692-21.469-3.918q-33.75-5.772-67.5-11.522c-2.071-.354-4.141-.8-6.209.011-5.661,2.217-10.369,6.161-15.969,8.645A29.206,29.206,0,0,1,254.89,221.472Zm-140.71,2.175c.02.157.039.315.06.472,9.665,1.631,19.335,3.243,29,4.9q28.748,4.921,57.489,9.878c2.186.375,4.375.927,6.576.07,5.67-2.208,10.37-6.171,15.986-8.646a29.146,29.146,0,0,1-1.654-6.858C185.768,223.192,149.976,224.06,114.18,223.648ZM239.6,346.684c1.344-3.357,1.547-6.832,2.121-10.223,4.358-25.723,9.018-51.4,13.13-77.162a6.86,6.86,0,0,0-.757-4.8c-2.946-4.814-4.966-10.1-7.767-14.983-.475-.827-.893-1.052-1.737-.724a24.776,24.776,0,0,1-3.663,1.3c-1.07.233-1.354.655-1.351,1.73q.056,23.386.024,46.771Q239.6,317.641,239.6,346.684Zm-2.955-142.2V99.684a3.634,3.634,0,0,0-.709,1.776q-7.1,42.048-14.232,84.092a6.971,6.971,0,0,0,.741,4.98c2.953,4.808,4.97,10.092,7.767,14.977.485.846.921,1.005,1.749.69C233.571,205.586,235.194,205.014,236.647,204.484Zm1.187,32.063c7.374.635,14.494-6.5,14.619-12.882.179-9.08-5.029-15.67-13.76-16.163-6.943-.391-14.268,6.7-14.635,13.759C223.6,229.965,229.135,236.382,237.834,236.546Zm-59.773-28.381,27.886-4.757L190.93,182.173C184.7,190.033,180.852,198.675,178.062,208.166Zm107.377-25.771-14.856,21.022,27.935,4.751C295.529,198.752,292.106,189.947,285.439,182.394ZM179.21,237.039c2.7,9.023,6.841,16.765,13.513,23.268l13.224-18.721Zm104.6,23.279a51.838,51.838,0,0,0,13.468-23.246l-26.565,4.5c.269.486.367.71.505.906C275.352,248.335,279.486,254.189,283.813,260.318Zm-8.606-86.666c-4.777-5.445-19.135-13.046-22.7-11.952,1.485,8.388,2.972,16.8,4.507,25.465Zm-55.687,13.514c1.537-8.717,3.027-17.166,4.608-26.128a52.587,52.587,0,0,0-22.9,12.544Zm7.216,48.755-44.888,46.337a4.56,4.56,0,0,0,2.239-1.238c11.05-8.241,22.064-16.532,33.145-24.732a20.5,20.5,0,0,0,6.562-8.121c1.285-2.813,2.634-5.588,4.139-8.291C229.22,237.562,229.181,237.541,226.737,235.922Zm67.675-72.9-.232-.288c-.494.346-1,.679-1.48,1.039-11.142,8.328-22.26,16.689-33.44,24.967a20.463,20.463,0,0,0-6.545,8.136c-1.283,2.815-2.641,5.586-4.142,8.291-1.292,2.329-1.252,2.351,1.24,3.889Zm-114.9-.045-.291.213q14.458,20.231,28.917,40.461a4.178,4.178,0,0,0,1.707,1.393c4.95,2.231,10,4.277,14.311,7.6a3.914,3.914,0,0,0,1.517-2ZM297.037,282.04l.229-.287q-14.4-20.159-28.8-40.316a3.918,3.918,0,0,0-1.516-1.338c-5.031-2.334-10.21-4.377-14.636-7.777a3.956,3.956,0,0,0-1.414,2.069Zm-73.33-.543-4.194-23.662-17.5,13.012A68.906,68.906,0,0,0,223.707,281.5Zm33.3-23.66c-1.409,7.975-2.77,15.68-4.18,23.664a68.428,68.428,0,0,0,21.676-10.671Zm65.4-119.5c7.294,6.573,12.341,14.694,17.943,22.338a2.38,2.38,0,0,0,1.617-.858c-4.182-9.12-10.922-16.216-17.861-23.284ZM136.2,160.658c5.587-7.663,10.681-15.782,17.8-22.22a4.193,4.193,0,0,0-1.709-1.81c-6.775,7.068-13.618,14.057-17.738,23.273C135.024,160.173,135.423,160.668,136.2,160.658Zm161.65,163.575a2.021,2.021,0,0,0,.866,1.563c9.224-4.152,16.217-10.947,23.236-17.768-.592-.656-.985-1.294-1.8-1.523-3.533,3.175-6.775,6.675-10.714,9.4C305.527,318.605,301.713,321.45,297.852,324.234ZM154.528,307.967c7.091,6.924,14.165,13.722,23.321,17.865a2.209,2.209,0,0,0,.775-1.667c-7.7-5.573-15.778-10.7-22.307-17.869ZM297.215,120.974c8.23,4.738,16.2,9.633,23.47,15.606a3.7,3.7,0,0,0,1.748-1.917,188.438,188.438,0,0,0-23.891-15.584A3.96,3.96,0,0,0,297.215,120.974ZM154.066,134.7a3.869,3.869,0,0,0,1.9,1.908,86.368,86.368,0,0,1,11.3-8.266,138.464,138.464,0,0,1,12.111-7.3,4.143,4.143,0,0,0-1.431-1.959A189.9,189.9,0,0,0,154.066,134.7Zm.53,169.87c-6.047-7.317-10.915-15.374-15.684-23.541-.532.319-.909.525-1.263.765a6.3,6.3,0,0,0-.623.574,186.065,186.065,0,0,0,15.807,24.093c.569-.543.89-.823,1.18-1.133C154.22,305.11,154.384,304.852,154.6,304.572ZM337.561,281.1c-4.747,8.218-9.632,16.2-15.607,23.458a3.627,3.627,0,0,0,1.965,1.737,194.81,194.81,0,0,0,15.54-23.9A3.868,3.868,0,0,0,337.561,281.1ZM123.709,253.75a171.249,171.249,0,0,0,12.177,26.807,3.4,3.4,0,0,0,1.962-1.374,183.352,183.352,0,0,1-12.032-25.9A3.338,3.338,0,0,0,123.709,253.75Zm57.45-133.859a183.946,183.946,0,0,1,26.016-12.1,2.55,2.55,0,0,0-.692-2.016,166.748,166.748,0,0,0-26.65,12.132A4.318,4.318,0,0,0,181.159,119.891Zm115.685-1.9a168.988,168.988,0,0,0-26.856-12.231,2.638,2.638,0,0,0-.58,2.072,185.911,185.911,0,0,1,26.089,12.1ZM340.6,280.631a167.981,167.981,0,0,0,12.192-26.81,2.627,2.627,0,0,0-2.091-.52,182.323,182.323,0,0,1-12.02,25.9A4.564,4.564,0,0,0,340.6,280.631ZM124.829,189.861a166.262,166.262,0,0,1,10.156-27.4,8.707,8.707,0,0,0-.839-.6,8.8,8.8,0,0,0-.986-.373,171.047,171.047,0,0,0-10.123,27.916A2.159,2.159,0,0,0,124.829,189.861ZM269.045,337.408a170.426,170.426,0,0,0,27.921-10.174,2.159,2.159,0,0,0-1.033-1.763,166.992,166.992,0,0,1-27.314,10.121,6.1,6.1,0,0,0,.072.9A8.67,8.67,0,0,0,269.045,337.408ZM353.5,189.338a169.663,169.663,0,0,0-10.124-27.756,2.163,2.163,0,0,0-1.791,1.048c2.214,4.278,3.781,8.894,5.693,13.366,1.932,4.52,2.811,9.4,4.666,14.056C352.542,189.811,353.065,189.881,353.5,189.338ZM207.935,335.751c-4.593-1.8-9.42-2.689-13.911-4.592-4.522-1.916-9.158-3.556-13.59-5.781-.283.429-.466.672-.612.936-.114.206-.183.438-.358.872a168.561,168.561,0,0,0,27.973,10.2,4.339,4.339,0,0,0,.34-.692A8.048,8.048,0,0,0,207.935,335.751ZM352.3,192a84.955,84.955,0,0,1,3.513,25c-.019.894.418,1.224,1.317,1.053a3.653,3.653,0,0,0,.176-.706,82.044,82.044,0,0,0-2.946-24.955C354.009,191.073,353.283,191.573,352.3,192Zm-233.05,26.07c1.684.017,1.493-.989,1.481-1.818a81.255,81.255,0,0,1,2.791-21.618,6.569,6.569,0,0,0,.514-2.671c-1.267-.865-1.726-.3-2.012.938a115.579,115.579,0,0,0-2.369,12.363A85.694,85.694,0,0,0,119.25,218.068ZM243.1,341.146a75.962,75.962,0,0,0,23.877-3.2c.018-1.266-.215-1.848-1.5-1.5a79.593,79.593,0,0,1-21.333,3.182C243.14,339.62,242.8,340.036,243.1,341.146Zm-9.689,0c.442-1.465-.377-1.552-1.341-1.518a63.926,63.926,0,0,1-8.475-.618c-4.613-.453-9.042-1.784-13.6-2.764a3.945,3.945,0,0,0-.347.709,7.836,7.836,0,0,0-.1,1.019C217.4,340.1,225.286,341.506,233.407,341.147Zm-24.129-234a120.353,120.353,0,0,1,23.544-4.063c.833-.049,1.255-.4,1.025-1.355a3.3,3.3,0,0,0-.7-.09,166.934,166.934,0,0,0-23.036,3.253C208.613,105.224,208.391,105.783,209.278,107.143Zm33.375-5.507c-.182,1.492.716,1.408,1.529,1.468a106.082,106.082,0,0,1,16.49,2.467c2.209.517,4.423,1.016,6.616,1.519.862-1.316.648-1.977-.887-2.193s-3.029-.586-4.54-.9A146.025,146.025,0,0,0,242.653,101.636ZM125.138,251.079a119.66,119.66,0,0,1-4.033-23c-.061-.9-.506-1.15-1.4-1.111a135.815,135.815,0,0,0,3.525,24.582A1.918,1.918,0,0,0,125.138,251.079Zm226.239.029c1.424.925,2.058.643,2.27-.86.215-1.524.589-3.025.9-4.534a129.185,129.185,0,0,0,2.248-18.316c-.969-.342-1.331-.021-1.372.882-.049,1.109-.142,2.218-.272,3.32A129.161,129.161,0,0,1,351.376,251.109ZM185.825,179.375a82.285,82.285,0,0,0-5.678,10.1c2.953,1.256,2.951,1.254,4.444-1.177.548-.892,1.1-1.787,1.677-2.657C188.346,182.537,188.352,182.541,185.825,179.375Zm83.2,100.907a82.644,82.644,0,0,0,10.083-5.694c-3.129-2.54-3.125-2.534-6.129-.519-.872.585-1.765,1.137-2.66,1.689C267.894,277.255,267.891,277.252,269.028,280.283Zm22-18.643c1.72-2.51,3.616-4.688,4.624-7.471l-3.729-1.446a54.764,54.764,0,0,1-4.591,6.192A12.682,12.682,0,0,0,291.026,261.64Zm-22.168-95.025a53.514,53.514,0,0,1,6.191,4.606,10.026,10.026,0,0,0,2.642-3.735c-2.4-1.72-4.614-3.565-7.382-4.606C269.814,164.152,269.372,165.292,268.858,166.615Zm-70.055.967a9.982,9.982,0,0,0,2.783,3.62,56.932,56.932,0,0,1,6.063-4.659l-1.465-3.722A34.482,34.482,0,0,0,198.8,167.582Zm-9.608,91.239a52.457,52.457,0,0,1-4.634-6.08l-3.744,1.465a34.847,34.847,0,0,0,4.743,7.386A10.012,10.012,0,0,0,189.195,258.821ZM289.177,183.9c.94,1.494,1.892,2.984,2.82,4.49,1.423,2.311,1.7,2.385,4.38,1.034a70.06,70.06,0,0,0-4.461-8.056A15.525,15.525,0,0,0,289.177,183.9Zm-93.353,24.141c6.556,4.681,13.455,8.811,20.287,13.04,1.3.807,2.756.535,4.205.128C211.915,217.209,203.862,212.642,195.824,208.039Zm-8.355.605c.386.3.611.5.865.665,6.331,3.99,12.9,7.6,19.115,11.769a1.64,1.64,0,0,0,1.875.27,1.982,1.982,0,0,0-.359-.446q-9.6-6.166-19.21-12.316A1.886,1.886,0,0,0,187.469,208.644Zm64.812-37.8c-.24.18-.369.232-.427.327q-5.883,9.637-11.748,19.285a1.862,1.862,0,0,0-.1,2.092c4.193-6.659,8.233-13.069,12.267-19.482A2.1,2.1,0,0,0,252.282,170.841ZM224.3,264.232c.17.105.274.209.316.187a.7.7,0,0,0,.267-.248c3.838-6.129,7.692-12.25,11.5-18.4.836-1.352.529-2.866.266-4.366Q230.948,253.12,224.3,264.232Zm-.1,9.78c.25-.19.376-.243.436-.338,4.026-6.365,7.589-13.012,11.767-19.285a1.78,1.78,0,0,0,.1-2.093c-4.2,6.658-8.251,13.064-12.288,19.478A2.259,2.259,0,0,0,224.2,274.012Zm-23.967,2.305a61.382,61.382,0,0,0,7.608,4.091c-.258-1.441,1.249-2.636-.018-3.619a61.289,61.289,0,0,0-5.653-3.534Zm89.289-40.111L270.467,224.46a1.934,1.934,0,0,0-1.97-.047c6.5,4.135,12.733,8.108,18.975,12.073A1.624,1.624,0,0,0,289.522,236.207ZM252.05,180.792a1.937,1.937,0,0,0-1.253,1.171c-3.321,5.277-6.573,10.6-9.961,15.83a6.7,6.7,0,0,0-.949,5.408C243.566,195.636,247.619,188.285,252.05,180.792Zm6.04,43.635c7.78,3.761,15.253,8.058,22.774,12.272-5.757-4.189-11.9-7.746-17.862-11.6A5.948,5.948,0,0,0,258.09,224.428Zm42.8-25.4c-1.165.828-3.162.377-2.9,2.329a27.293,27.293,0,0,0,1.642,5.016l3.964-.377C302.668,203.615,301.831,201.457,300.89,199.028Zm-125.3.271a50.613,50.613,0,0,0-2.532,6.734l3.677.309c.145-.153.27-.226.307-.331q.519-1.484,1.011-2.976C179,200.2,178.835,199.936,175.592,199.3Zm4.3,53.194a7.111,7.111,0,0,0,3.482-1.62l-2.973-5.38c-1.142.28-2.264.239-3.324.954Zm119.627-6.17a11.18,11.18,0,0,0-3.443-.759l-2.978,5.461a8.609,8.609,0,0,0,3.579,1.388C297.607,250.418,298.511,248.48,299.517,246.322Zm-30.949-84.454-6.035-2.8a10.14,10.14,0,0,0-.88,3.363l5.4,2.957A6.859,6.859,0,0,0,268.568,161.868ZM214.059,159.2c-1.65.351-2.993,1.436-4.562,1.919-1.68.517-1.749,1.447-.956,2.747.308.505.367,1.2,1.113,1.45l5.23-2.907A10.161,10.161,0,0,0,214.059,159.2Zm22.79,129.152c-.233.055-.4.043-.452.115-2.663,3.711-5.048,7.6-7.4,11.514a2.43,2.43,0,0,0,.166,2.557c2.567-4.031,5.022-7.865,7.454-11.714A3.512,3.512,0,0,0,236.848,288.349Zm-77.7-75.049c.227.29.307.465.443.553q5.61,3.615,11.233,7.208a3.24,3.24,0,0,0,2.852.323c-.14-.213-.2-.4-.332-.49q-5.828-3.788-11.67-7.556A2.783,2.783,0,0,0,159.144,213.3Zm88.206-71.053c-2.586,4.082-5,7.875-7.391,11.684a2.471,2.471,0,0,0-.148,2.37c.406.07.527-.177.651-.372q3.489-5.463,6.964-10.934A2.657,2.657,0,0,0,247.35,142.248Zm-77.51,69.375c3.526,2.965,14.337,9.719,15.934,9.771-4.624-3.542-9.1-6.8-13.7-9.887A1.968,1.968,0,0,0,169.84,211.623ZM249.2,153.2c-2.894,3.279-9.433,14-9.281,15.4,3.342-4.369,6.455-8.716,9.4-13.182A1.9,1.9,0,0,0,249.2,153.2Zm47.9,45.4,3.1-1.27-2.952-6.06c-1,.6-2.133.373-2.986,1.118Zm-117.887-7.2c-.977,2.051-1.91,4.009-2.87,6.022l3.149,1.126,2.848-6.354Zm31,86.579-.826,3.2,6.006,2.881,1.2-3.239A49.358,49.358,0,0,1,210.211,277.974Zm49.749,2.96,1.214,3.134,6-2.927-.863-3.083Zm-32.638,11.023,9.913-15.266c-.577-.221-.784-.191-.874-.073-3.15,4.113-6.159,8.327-9.064,12.616C226.8,289.974,226.819,290.717,227.322,291.957Zm90.53-60.566c-3.729-2.389-7.3-4.7-10.906-6.971-.754-.475-1.611-.325-2.82-.128,3.925,2.853,7.733,5.222,11.6,7.5A1.85,1.85,0,0,0,317.852,231.391Zm-101.975-72.96c.618,1.17.575,2.385,1.341,3.414,1.138-.46,2.214-.9,3.291-1.33,2.291-.922,2.487-1.331,1.812-3.866A35.417,35.417,0,0,0,215.877,158.431ZM259.5,161.9c.4-1.33.719-2.363,1.06-3.484a27.738,27.738,0,0,0-6.579-1.754c.129,1.225-.678,2.592.775,3.322S257.8,161.23,259.5,161.9Zm12.64,77.418c-8.126-5-17.053-9.316-18.707-9.092C260.085,234.925,268.959,239.3,272.139,239.321Zm-90.668-30.153-.309.59c3.385,3,17.535,11.708,19.4,11.63ZM292.3,224.362c2.883,2.112,5.541,4.081,8.223,6.016,1.5,1.08,3.024,2.123,4.558,3.148.716.479,1.4.162,2.065-.219C303.958,230.508,293.881,224.282,292.3,224.362ZM251.631,164.83l-.57-.28c-2.8,3.058-11.237,16.877-11.176,18.833Zm-27,115.546c.991.014,1.155-.251,1.319-.507q5.215-8.087,10.42-16.182c.416-.65.378-.674.092-1.989Zm-11.443-58.46.326-.613c-3.615-2.986-20.6-13.376-22.16-13.365Zm23.707,26.619c-2.4,2.19-13.254,20-13.2,21.479C228.175,262.7,232.846,255.805,236.894,248.534Zm58.53-12.84.339-.544c-.055-.1-.084-.249-.169-.3q-7.909-5.164-15.829-10.311a1.533,1.533,0,0,0-1.893-.065Zm-72.886,47.268c-4-1.8-4.759-1.534-5.181,1.824a25.383,25.383,0,0,0,4.953,1.909C222.388,285.428,222.459,284.266,222.538,282.962ZM253.3,175.4l-.6-.368-13.3,21.025.656.4Q246.673,185.929,253.3,175.4Zm11.731,48.414-.306.6c3.509,2.919,19.4,12.613,20.943,12.584Zm36.514,15.55c-3.567-.336-4.154.183-4.638,4.069l3.267,1.016C300.608,242.7,301.45,241.148,301.542,239.363ZM147.013,215.455c2.7,1.8,5.331,3.508,7.906,5.293a3.944,3.944,0,0,0,3.705.558c-3.288-2.1-6.327-4.059-9.378-6C148.539,214.86,147.841,215.181,147.013,215.455Zm97.011-74.761c2.9-2.946,3.125-3.913,1.7-6.73L239.4,144.844l.545.316c.782-1.239,1.536-2.5,2.356-3.711.842-1.246,1.459-2.667,2.931-3.521Q244.626,139.312,244.024,140.695Zm11.1,145.674a17.609,17.609,0,0,0,4.057-1.6c-.461-3.391-1.494-3.758-4.9-1.758C254.54,284.045,254.806,285.1,255.123,286.368Zm-18.375,17c-2.021,3.166-3.85,6.008-5.651,8.867-.455.723-.228,1.443.1,2.348,1.693-2.575,3.214-4.971,4.824-7.3A4.427,4.427,0,0,0,236.748,303.366Zm2.7-162.583.555.279c1.813-2.821,3.639-5.635,5.426-8.472.417-.662.21-1.372-.189-2.585C243.456,134.027,240.045,136.645,239.445,140.784ZM162.088,221.77l.314-.558-8.791-5.7c1.336-.3,2.14.739,3.37.727-1.768-2.052-3.779-2.531-6.4-1.335Zm11.884-10.943c4.47,3.511,9.1,6.8,13.559,10.32.733.578,1.51.446,2.728.225C184.646,217.618,179.143,214.492,173.973,210.828Zm63.146,89.2-.531-.346c-1.848,2.575-3.249,5.478-5.614,7.722l1.284-3.1c-2.6,2.58-2.858,3.807-1.491,6.493Zm-15.061-85.547c-8.253-5.653-14.156-8.611-17.492-8.752C210.814,208.5,216.175,211.976,222.058,214.481ZM216.214,188.3c.472,3.975.094,7.841,1.518,11.465.189-3.318.213-6.608.172-9.9C217.894,189.034,217.25,188.644,216.214,188.3Zm43.5,58.234c0,3.06-.012,6.12.006,9.179.005,1,.566,1.527,1.786,1.737C260.924,253.691,261.442,249.951,259.715,246.537ZM330.3,229.415c-3.874-1.592-6.21-5.163-10.39-5.077,2.268,1.73,4.671,3.209,7.021,4.769A3.333,3.333,0,0,0,330.3,229.415ZM175.24,240.274a12.783,12.783,0,0,0,1.27,4.15l3.311-1.077a13.86,13.86,0,0,0-1.434-3.473Zm140.9-16.329c-.093.183-.186.364-.28.547,2.48,1.884,5.394,3.178,8.009,5.457a3.893,3.893,0,0,1-2.258-.713c-.577-.246-1.132-.544-1.7-.819,2.715,2.655,3.543,2.843,6.345,1.511ZM260.532,200.9c3.111-.188,6.192-.1,9.255-.325.979-.072,1.488-.585,1.64-1.785C267.668,199.495,263.893,199.063,260.532,200.9Zm-55.746,45.663c3.7-.7,7.505-.188,10.861-2.118-3.092.221-6.175.118-9.24.361C205.485,244.877,204.995,245.419,204.786,246.561Zm83-22.248c5.394,3.357,10.376,6.527,15.287,9.808-4.088-3.3-8.3-6.4-12.5-9.518C289.866,224.073,289.109,224.076,287.789,224.314Zm-66.43-5.2c-6.139-3-12.224-6.11-18.351-9.136C206.072,212.362,219.437,219.123,221.358,219.115Zm-78-2.792c3.306,1.646,5.965,4.286,9.635,5.059-2.481-1.969-5.12-3.661-7.754-5.361C144.62,215.624,144.073,215.763,143.355,216.323Zm25.041,5.238c-1.931-2.288-11.1-7.757-12.455-7.46C160.189,216.623,164.031,219.53,168.4,221.562ZM236.7,271.646c-2.788,4.368-5.372,8.42-7.957,12.47,2.807-3.2,5.339-6.586,7.853-9.983A2.5,2.5,0,0,0,236.7,271.646ZM236.9,309.2c-2.87,2.464-5.558,7.562-4.815,8.993C233.642,315.095,236.071,312.584,236.9,309.2Zm2.87-173.445c1.727-2.923,4.624-5.245,4.914-8.928C242.874,129.713,240.387,132.228,239.767,135.755ZM239.7,151.3a71.627,71.627,0,0,0,7.252-11.782C244.278,143.289,241.489,147,239.7,151.3Zm-2.785,142.295c-2.35,2.134-7.359,10.607-7.145,12.121C232.2,301.514,235.041,297.838,236.916,293.591Zm83.642-62.071.425-.72c-3.707-2.279-7.268-4.8-11.1-6.871l-.362.6Zm-47.694,2.973a106.912,106.912,0,0,0-15.048-8.14l-.257.495ZM247.386,161.3l-.258-.249c-2.379,3.206-4.766,6.407-7.13,9.624a2.47,2.47,0,0,0-.175,2.249c.359-.446.567-.659.724-.9Q243.973,166.67,247.386,161.3Zm77.8,62.885c3.313,3.222,6.756,5.023,8.582,4.5C330.72,227.183,328.418,224.808,325.187,224.19Zm-74.175-62.17-.622-.381-7.88,12.732.395.242C245.433,170.309,248.591,166.389,251.012,162.02Zm-24.1,93.791a119.726,119.726,0,0,0,8.178-15.458l-.536-.267Zm22.316-66.185a115.425,115.425,0,0,0-8.007,15.061l.544.268ZM225.392,282.79l.743.395,7.52-12.206-.348-.21Zm-59.561-70.8-.358.538,13.551,9.083.285-.429Zm61.852,83.724.532.351q4.342-6.539,8.684-13.079l-.4-.266Zm21.142-146.543c-.186-.12-.373-.24-.56-.361q-4.243,6.419-8.485,12.837l.4.257Q244.5,155.537,248.824,149.169Zm-70.036,60.575-.4.667a108.218,108.218,0,0,0,12.736,7.536Zm119.758,25.1a70.239,70.239,0,0,0-11.277-7.14C291.019,230.1,294.413,233.072,298.546,234.843Zm12.6-1.928.321-.569-12.421-8.295c-.093.143-.185.284-.277.427Zm-55.106,20.631.643-.129-1.223-10.951C255.31,246.195,255.139,249.926,256.035,253.545Zm1.012-48.2c3.63-.148,7.41.168,10.961-1.056l-.08-.547Zm-37.467,34.608c-3.733-.5-10.534.5-11.311,1.685Zm.059-49.076-.549.045c.413,3.791.1,7.657,1.5,11.35Q220.113,196.574,219.639,190.876Zm2.551,12.2c.116-3.364.448-6.826-.557-10.13l-.531.062Zm35.841,51.928.479-.042c-.221-3.672-.144-7.372-.859-11l-.5.044Q257.593,249.507,258.031,255.007ZM269.2,202.3c-2.624-.626-10,.379-11.2,1.369ZM132.613,217.959c2,1.408,3.822,3.089,6.329,3.4C136.92,220.023,135.22,218.085,132.613,217.959Zm74.566,25.088c3.445.564,9.9-.394,10.954-1.34Zm35.71-127.275c-2.17,2.294-3.144,4.237-3.032,5.881C240.946,119.726,242.862,118.238,242.888,115.772Zm-6.171,207.5c-1.074,1.936-3.305,3.325-3,5.948C234.929,327.347,236.547,325.686,236.717,323.274Zm102.422-98.931c1.73.987,3,2.919,5.366,2.6C342.806,225.885,341.38,224.268,339.138,224.343ZM199.6,181.2l.584-.126c-.6-1.966.294-4.255-1.732-5.909Q199.022,178.181,199.6,181.2Zm79.227.561.15.6c1.877-.575,4.1.226,5.579-1.927Zm-83.195-8.988c.3,1.836-.067,3.912,1.506,5.428C196.9,176.335,197.069,174.365,195.629,172.772Zm91.153,4.771c-1.822.364-3.858.077-5.244,1.717C283.353,178.88,285.342,179.075,286.782,177.543Zm-8.9,87.71c.121,1.9-.569,3.991,1.171,5.514A14.142,14.142,0,0,0,277.886,265.253Zm-86.138-.334,5.651-1.324-.138-.535C195.363,263.453,193.211,262.877,191.748,264.919Zm-2.207,2.91c1.758-.43,3.763-.067,5.045-1.7C192.821,266.5,190.857,266.266,189.541,267.829Zm92.57,5.18c-.312-1.715.107-3.649-1.541-4.936C281.037,269.74,280.618,271.656,282.111,273.009Zm-143.75-56.327-.221.457,6.57,3.979C142.667,219.516,140.8,217.634,138.361,216.682Zm128.2,37.853c-.261,3.26.123,6.446.906,7.544C267.149,259.389,266.856,256.962,266.565,254.534Zm-15.291-9.4.572.029-.406-6.5C251.25,240.836,250.776,243.007,251.274,245.138Zm-7.179-123.509-.481-.291-3.367,5.6A17.269,17.269,0,0,0,244.094,121.629Zm-33.832,62.4q.418,3.445.838,6.89C211.148,188.576,211.208,186.235,210.263,184.029Zm25.646,134.405c-1.358,1.484-2.9,2.862-3.036,5.062ZM121.222,219.862c1.437.786,2.414,1.86,4.319,1.54C124.106,220.583,123.156,219.444,121.222,219.862ZM249.3,236.291a6.722,6.722,0,0,0,.07,4.593A9.193,9.193,0,0,0,249.3,236.291Zm4.184,13.449.513.041q-.226-2.982-.451-5.964l-.062.017ZM127.208,218.9c1.575.874,2.96,2.044,4.711,2.5C129.993,219.686,128.6,218.935,127.208,218.9Zm-12.326-30.284c.915,1.093,1.68,1.915,2.8.458C116.935,187.695,115.97,188.39,114.882,188.616Zm246.8.013c-1.151-.248-2.162-.923-2.845.474C360.1,190.556,360.776,189.588,361.682,188.629ZM207.006,342.646c-1.165.9-.719,1.788-.32,2.884C207.616,344.587,208.537,343.863,207.006,342.646Zm63.028,2.949c.037-1.191.848-2.235-.587-2.865C268.426,344.033,268.426,344.033,270.034,345.595Z" transform="translate(-4.663 -3.717)"/>
    <path id="Path_2142" data-name="Path 2142" d="M240.872,50.369c2.528,0,4.841-.106,7.136.043,1.244.08,1.878,1.33,2.639,2.174,3.686,4.088,7.306,8.234,10.962,12.349.312.351.511.849,1.266,1.013V51.655c-1.1-.629-2.693.468-3.9-.778.864-.817,1.838-.459,2.7-.514,1.48-.094,2.968-.122,4.451-.091.654.014,1.774-.42,1.776.669,0,.952-1.06.491-1.668.577-.475.068-.961.054-1.462.078,0,4.788.013,9.469-.006,14.152-.009,2.288-.069,4.576-.128,6.865-.016.6.1,1.322-.682,1.558-.865.261-1.1-.528-1.568-1-4.936-4.954-8.837-10.817-13.812-15.734-.216-.213-.479-.379-.928-.728V71.985c.885.429,1.9.111,2.858.252.507.073,1.035.159,1.021.822-.011.536-.438.733-.9.735q-3.709.013-7.42-.026c-.445-.005-.889-.172-.884-.738s.438-.7.888-.741c.73-.074,1.462-.123,2.395-.2,0-2.017,0-3.972,0-5.927a87.389,87.389,0,0,1,.1-8.9c.264-2.513-.947-3.758-2.823-4.84C242.231,52.041,241.327,51.93,240.872,50.369Z" transform="translate(-20.045 0)"/>
    <path id="Path_2143" data-name="Path 2143" d="M71.378,233.736a34.516,34.516,0,0,0-1.989,6.632c-.494,1.864-1.335,3.59-1.853,5.432-.12.43-.271.867-.83.819-.523-.045-.627-.494-.794-.9-2.015-4.98-4.008-9.969-6.1-14.92-.544-1.291-.788-2.959-2.69-3.189a.583.583,0,0,1-.409-.733.741.741,0,0,1,.786-.642q4.08.005,8.159.063a.637.637,0,0,1,.672.72.714.714,0,0,1-.752.667c-.838.065-1.679.1-2.707.159,1.6,3.74,3.935,6.9,5.186,11.1.874-2.5,1.614-4.556,2.31-6.627.373-1.108.667-2.242,1-3.363.16-.535.291-1.109.978-1.208.711-.1.952.448,1.224.931A60.062,60.062,0,0,1,78.74,239.13c.124.374.142.888.816,1.051,1.208-4.044,3.2-7.838,3.783-12.3-1.127-.058-2.207-.111-3.287-.169-.45-.025-.936-.118-.994-.635-.074-.655.468-.834.976-.849,2.039-.061,4.079-.093,6.119-.107.551,0,1.234.012,1.281.75.058.892-.689.859-1.308.905-.3.023-.607.053-1.138.1-.553,4.814-2.7,9.167-4.1,13.755-.415,1.356-.98,2.667-1.455,4.007-.145.411-.206.895-.757.909-.594.016-.821-.456-1.037-.916-.919-1.956-1.861-3.9-2.762-5.867A54.529,54.529,0,0,0,71.378,233.736Z" transform="translate(0 -19.148)"/>
    <path id="Path_2144" data-name="Path 2144" d="M428.985,230.356c-.129-2.452-1.906-1.888-3.384-1.905-1.346-.015-2.694,0-3.992,0V237.9c1.457,0,2.742,0,4.027,0,.457,0,.853-.07,1.026-.586.143-.428.361-.83.913-.71.609.132.7.63.707,1.149.014.865.026,1.731.025,2.6,0,.567-.005,1.2-.732,1.3-.742.107-.9-.48-1.011-1.053-.057-.29-.128-.577-.206-.92h-4.63v7.678h6.822c.264-.1-.017-.664.2-1,.457-.7.988-.717,1.449-.029a1.868,1.868,0,0,1-1.445,2.924c-4.077.043-8.154.03-12.231.039-.64,0-1.34-.03-1.5-.778-.152-.726.54-.867,1.05-1.055.75-.276.734-.9.739-1.527.04-5.069.1-10.138.114-15.208,0-1.1-.3-2.1-1.624-2.337-.451-.081-.9-.282-.878-.793.029-.606.554-.8,1.069-.806,4.265-.012,8.53-.018,12.8.013.944.006,1.415.613,1.549,1.536C429.953,229.1,430.38,229.928,428.985,230.356Z" transform="translate(-38.936 -19.22)"/>
    <path id="Path_2145" data-name="Path 2145" d="M257.649,407.262a30.891,30.891,0,0,1-3.535-.025c-1.9-.222-2.37.791-2.38,2.391a6.006,6.006,0,0,0,3.728,5.721c2.794,1.334,3.951,3.79,4.933,6.407a3.735,3.735,0,0,1-1.287,4.468,10.743,10.743,0,0,1-7.49,2.695c-2.1-.053-5.921-3.736-6.094-5.847a.989.989,0,0,1,.372-.985c.465-.323.858-.062,1.142.258a12.381,12.381,0,0,1,.953,1.357,5.011,5.011,0,0,0,7.408,1.2c1.116-.91,1.354-1.856.381-3a34.152,34.152,0,0,0-5.3-5.421c-1.97-1.486-3.475-3.254-3.222-6.062.235-2.6,1.725-4.42,4.393-4.573,2.217-.126,4.449,0,6.673-.019.8-.005,1.113.41,1.164,1.125.065.925.126,1.85.168,2.777.023.528-.079,1.027-.745,1.052a.83.83,0,0,1-.872-.794C257.9,409.15,257.8,408.3,257.649,407.262Z" transform="translate(-20.551 -38.704)"/>
    <path id="Path_2146" data-name="Path 2146" d="M127.378,108.726a2.133,2.133,0,0,1,1.393.837q9.735,9.554,19.457,19.119c.566.558,1.346,1.231.67,2.046-.725.876-1.458.157-2.026-.406q-9.813-9.737-19.6-19.5c-.443-.441-.872-.912-.609-1.622A.724.724,0,0,1,127.378,108.726Z" transform="translate(-7.605 -6.37)"/>
    <path id="Path_2147" data-name="Path 2147" d="M149.417,343.146a2.05,2.05,0,0,1-.751,1.385q-9.743,9.806-19.5,19.6c-.53.531-1.192,1.15-1.894.4-.625-.666.017-1.265.484-1.741q9.675-9.874,19.373-19.726c.481-.489,1-.967,1.781-.686A.81.81,0,0,1,149.417,343.146Z" transform="translate(-7.652 -31.793)"/>
    <path id="Path_2148" data-name="Path 2148" d="M381.084,109.6a2.3,2.3,0,0,1-.891,1.429q-9.531,9.5-19.07,18.983a6.75,6.75,0,0,1-.983.845.986.986,0,0,1-1.354-.043,1.012,1.012,0,0,1-.006-1.365,7.8,7.8,0,0,1,.985-1.1q9.46-9.3,18.934-18.592a4.217,4.217,0,0,1,1.152-.913C380.584,108.518,381.032,108.842,381.084,109.6Z" transform="translate(-32.85 -6.369)"/>
    <path id="Path_2149" data-name="Path 2149" d="M359.139,342.279a2.711,2.711,0,0,1,1.653,1.02q9.5,9.662,18.979,19.335c.528.539,1.419,1.2.527,2-.719.641-1.369-.078-1.892-.6q-9.627-9.661-19.239-19.338c-.512-.515-1.142-1.035-.8-1.913A.825.825,0,0,1,359.139,342.279Z" transform="translate(-32.823 -31.791)"/>
    <path id="Path_2150" data-name="Path 2150" d="M155.375,134.867c1.284.082,2.281.609,2.338,2.17a2.5,2.5,0,0,1-2.627,2.677,2.127,2.127,0,0,1-2.214-2.393A2.346,2.346,0,0,1,155.375,134.867Z" transform="translate(-10.467 -9.216)"/>
    <path id="Path_2151" data-name="Path 2151" d="M356.952,137.337a2.124,2.124,0,0,1-2.227,2.377,2.491,2.491,0,0,1-2.612-2.508,2.18,2.18,0,0,1,2.452-2.338A2.316,2.316,0,0,1,356.952,137.337Z" transform="translate(-32.153 -9.216)"/>
    <path id="Path_2152" data-name="Path 2152" d="M354.129,340.713a2.167,2.167,0,0,1-2.351-2.361,2.492,2.492,0,0,1,2.63-2.493,2.188,2.188,0,0,1,2.208,2.576A2.279,2.279,0,0,1,354.129,340.713Z" transform="translate(-32.117 -31.092)"/>
    <path id="Path_2153" data-name="Path 2153" d="M158.058,338.613a2.152,2.152,0,0,1-2.394,2.09,2.305,2.305,0,0,1-2.448-2.576c.1-1.43.794-2.3,2.329-2.261A2.562,2.562,0,0,1,158.058,338.613Z" transform="translate(-10.504 -31.093)"/>
    <path id="Path_2154" data-name="Path 2154" d="M341.268,156.633c-1.682,2.456-1.118,3.646,1.641,3.922.59.06,1.417-.1,1.355.809-.056.82-.88.729-1.464.761a3.687,3.687,0,0,1-4.036-3.379c0-2.38,2.073-4.605,4.216-4.523a3.727,3.727,0,0,1,3.647,4.023c-.071,1.292-.642,1.619-1.81,1.194A9.717,9.717,0,0,1,341.268,156.633Z" transform="translate(-30.7 -11.322)"/>
    <path id="Path_2155" data-name="Path 2155" d="M335.983,155.557c-1.213.453-2.02.211-2.48-.643-.553-1.028.47-1.35,1.02-1.866a7.615,7.615,0,0,0,2.427-2.943c-1.7-1.607-2.024-1.609-3.626-.094-.582.55-1.167,1.1-1.789,1.6a1.31,1.31,0,0,1-1.985.036c1.2-1.721,3.091-2.726,4.363-4.332.05-.937-1.453-1.039-1.127-2.224,1.421-.479,2.125.532,2.6,1.538A2.2,2.2,0,0,0,336.5,147.9c2.376,1.116,2.565,2.433.765,4.606C336.549,153.379,335.136,153.929,335.983,155.557Z" transform="translate(-29.697 -10.315)"/>
    <path id="Path_2156" data-name="Path 2156" d="M178.173,148.3c-.4-1.146-.808-2.288-1.185-3.442-.2-.6-.4-1.294.434-1.542.7-.207.955.363,1.138.926.589,1.82,1.215,3.629,1.76,5.461.184.618.466,1.39-.323,1.828-.658.365-1.164-.11-1.651-.5a4.562,4.562,0,0,0-1.971-1.2c-.282,1.052.367,1.9.538,2.811.107.572.161,1.115-.356,1.52-.492.386-.926.074-1.369-.143a25.517,25.517,0,0,1-4.579-2.419c-.412-.316-.807-.692-.464-1.234.329-.521.855-.39,1.325-.17a13.62,13.62,0,0,0,3.249,1.53,10.8,10.8,0,0,0-.856-3.594,1.009,1.009,0,0,1,.117-1.207c.452-.426.911-.209,1.348.065l2.493,1.56Z" transform="translate(-12.333 -10.131)"/>
    <path id="Path_2157" data-name="Path 2157" d="M163.057,159.249c-.577.356-.458,1.177-1.338,1.221a1.53,1.53,0,0,1,.29-2.534c1.54-.933,1.8-3.673,4.346-3.113,1.914.421,3.187,1.793,4.493,3.106.114.029.245.109.34.077.535-.179,1.134-.929,1.6-.156.536.886-.433,1.441-.85,2.042-.472.681-1.11.366-1.552-.151a14.135,14.135,0,0,0-2.926-2.806c-.87-.567-1.758-1.045-2.609,0s-.062,1.663.663,2.283a6.978,6.978,0,0,1,2.116,2.3c.38.88,1.24.645,1.813,1.042a1.748,1.748,0,0,1-.951,2.184c-1.052.405-1.343-.659-1.66-1.327C166.006,161.671,164.481,160.6,163.057,159.249Z" transform="translate(-11.371 -11.38)"/>
    <path id="Path_2158" data-name="Path 2158" d="M339.446,319.924a2.493,2.493,0,0,0,1.768,1.011c1.838.332,2.405-.1,2.559-1.981.036-.441,0-.945.533-1.039.624-.111.807.371.952.887a2.783,2.783,0,0,1-1.828,3.546,5.245,5.245,0,0,1-5.977-2.567,3.348,3.348,0,0,1,3-4.964c.678-.016,1.412-.012,1.758.735a1.524,1.524,0,0,1-.459,1.683C341.008,318.123,340.243,319,339.446,319.924Z" transform="translate(-30.515 -28.802)"/>
    <path id="Path_2159" data-name="Path 2159" d="M332.478,324.137c1.254.462,2.227-.353,3.3-.467a2.2,2.2,0,0,1,2.486,1.726c.707,1.951.4,3.29-1.04,4.044-1.191.623-2.457.9-3.613-.123-.143-.126-.116-.446-.167-.67.706-.676,1.467-.136,2.161-.243,1.092-.168,1.707-.618,1.476-1.847-.221-1.175-.838-1.56-1.976-1.19-.585.191-1.19.321-1.79.462a1.8,1.8,0,0,1-1.92-2.989c.607-.743,1.117-1.712,2.3-1.639a1.065,1.065,0,0,1,.973.977c.116.644-.246.905-.864.849C333,322.955,332.791,323.537,332.478,324.137Z" transform="translate(-29.835 -29.496)"/>
    <path id="Path_2160" data-name="Path 2160" d="M173.067,328.3c1.68-.635,3.083-1.191,4.507-1.694.624-.22,1.456-.568,1.753.317.3.9-.592,1.039-1.212,1.276-1.439.549-2.844,1.215-4.319,1.632-2.014.569-2.8-.294-2.259-2.329.17-.644.393-1.274.614-1.984a2.388,2.388,0,0,0-.621-.07c-.923.2-2.014,1-2.726.048-.643-.863.173-1.858.565-2.745.25-.563.5-1.127.782-1.674.353-.68.46-1.83,1.412-1.692.906.132,1.376,1.071,1.577,1.931-.536.7-.958-.043-1.56.111a7.95,7.95,0,0,0-1.071,2.624c.976-.306,1.765-.547,2.55-.8.463-.15.944-.455,1.369.014.479.529.129,1.028-.142,1.514A9.167,9.167,0,0,0,173.067,328.3Z" transform="translate(-12.175 -29.298)"/>
    <path id="Path_2161" data-name="Path 2161" d="M165.649,315.073a10.431,10.431,0,0,1-.36,5.031,2.363,2.363,0,0,1-2.405,1.693,3.251,3.251,0,0,1-2.928-2.216,2.246,2.246,0,0,1,.706-2.675c.444-.448,1.06-.835,1.635-.308.621.569.078.962-.4,1.3a.994.994,0,0,0-.352,1.446,1.459,1.459,0,0,0,1.345.837c.772-.039,1-.622,1.137-1.256a11.6,11.6,0,0,0,.079-3.5c-.11-1.248.423-2.057,1.825-1.923,1.322.127,3.027,1.655,2.806,2.554a1.329,1.329,0,0,1-1.321,1.1c-.706-.02-.634-.52-.552-1.076C166.987,315.283,166.335,315.279,165.649,315.073Z" transform="translate(-11.216 -28.657)"/>
    <path id="Path_2162" data-name="Path 2162" d="M260.868,238.6c-.086,2.924-3.791,6.822-6.464,6.8-2.778-.021-6.595-4.209-6.4-7.02.213-3.058,3.871-6.808,6.53-6.693C257.288,231.81,260.949,235.806,260.868,238.6Z" transform="translate(-20.821 -19.754)"/>
  </g>
</svg>
