<svg xmlns="http://www.w3.org/2000/svg" xmlns:xlink="http://www.w3.org/1999/xlink" width="311.209" height="347.864" viewBox="0 0 311.209 347.864">
  <defs>
    <clipPath id="clip-path">
      <path id="Path_2131" data-name="Path 2131" d="M204.487,468.728a9.118,9.118,0,0,1,7.375-3.813s3.063-14.25-11.375-18.187-11.187.625-11.375.687a40.3,40.3,0,0,0-4.187,4.5c.125.188,10.062,7.5,10.312,7.5S204.487,468.728,204.487,468.728Z" fill="#fff" stroke="#333" stroke-width="2"/>
    </clipPath>
  </defs>
  <g id="hook" transform="matrix(0.966, 0.259, -0.259, 0.966, 107.873, -446.908)" opacity="0.1">
    <path id="Path_2098" data-name="Path 2098" d="M219.362,476.6c-.4-1.19,4.459-11.054,3.764-18.358,0,0,15.651,8,6.26,19.824C229.386,478.069,221.8,483.906,219.362,476.6Z" fill="#fff" stroke="#333" stroke-linejoin="round" stroke-width="2"/>
    <path id="Path_2099" data-name="Path 2099" d="M174.676,717.622a15.977,15.977,0,0,0,14.7-5.9s-12.193-1.116-18.689-9.325c0,0-8.336-5.916-9.989-2.911S165.639,717.733,174.676,717.622Z" fill="#fff" stroke="#333" stroke-linejoin="round" stroke-width="2"/>
    <path id="Path_2100" data-name="Path 2100" d="M189.7,711.747s10.342-2.32,10.91-9.537a171.025,171.025,0,0,1-18.383-3.1c-10.035-2.092-12.71-.467-12.7,2.5S177.824,712.192,189.7,711.747Z" fill="#fff" stroke="#333" stroke-linejoin="round" stroke-width="2"/>
    <g id="Group_599" data-name="Group 599">
      <path id="Path_2101" data-name="Path 2101" d="M207.8,695.165s10.076-3.518,9.2-7.645c-.055-.1-12.91-6.007-21.384-2.683s-8.389,6.692-8.389,6.692S206.086,695.155,207.8,695.165Z" fill="#fff" stroke="#333" stroke-linejoin="round" stroke-width="2"/>
      <path id="Path_2102" data-name="Path 2102" d="M215.717,687.718c1.746.381,11.109-2.779,8.281-10.053-.058-.1-12.415-3.476-20.782.107s-8.178,6.952-8.178,6.952S211.6,687.461,215.717,687.718Z" fill="#fff" stroke="#333" stroke-linejoin="round" stroke-width="2"/>
      <path id="Path_2103" data-name="Path 2103" d="M223.865,678.3s7.933-7.8,6.076-13.468c0,0-5.991-.689-17.292,3.064,0,0-6.333,1.718-13.658,11.843A40.076,40.076,0,0,0,223.865,678.3Z" fill="#fff" stroke="#333" stroke-linejoin="round" stroke-width="2"/>
      <path id="Path_2104" data-name="Path 2104" d="M198.712,703.016s9.935-2.6,10.046-8.568c0,0-2.409-3.371-16.094-5.154,0,0-7.718-1.676-19.053,8.617A55.306,55.306,0,0,0,198.712,703.016Z" fill="#fff" stroke="#333" stroke-linejoin="round" stroke-width="2"/>
      <path id="Path_2105" data-name="Path 2105" d="M233.94,655.8" fill="#fff" stroke="#333" stroke-width="2"/>
      <path id="Path_2106" data-name="Path 2106" d="M223.532,640.3c-.92-.275-4.249-11.008,2.546-15.966s11.924-5.353,17.716-7.053c2.976-.876-.338,12.322-3.87,14.005S227.046,641.345,223.532,640.3Z" fill="#fff" stroke="#333" stroke-linejoin="round" stroke-width="2"/>
      <path id="Path_2107" data-name="Path 2107" d="M221.523,649.681a61.156,61.156,0,0,1,11.737-5.667c5.734-1.984,10.805-7.659,7.361-13.274,0,0-9.143,6.738-14.483,7.356S220.034,646.993,221.523,649.681Z" fill="#fff" stroke="#333" stroke-linejoin="round" stroke-width="2"/>
      <path id="Path_2108" data-name="Path 2108" d="M215.807,661.7a111.714,111.714,0,0,1,14.4-6.346c6.811-2.379,13.305-8.333,9.326-15.08,0,0-11.637,7.122-18,7.749S214.093,658.47,215.807,661.7Z" fill="#fff" stroke="#333" stroke-linejoin="round" stroke-width="2"/>
      <path id="Path_2109" data-name="Path 2109" d="M207.5,670.956s8.6-3.384,15.8-3.847,14.407-6.579,11.524-13.861c0,0-12.272,5.842-18.656,5.469S205.293,666.091,207.5,670.956Z" fill="#fff" stroke="#333" stroke-linejoin="round" stroke-width="2"/>
    </g>
    <path id="Path_2110" data-name="Path 2110" d="M242.631,601.538s6.8,8.808.143,17.563-17.675,9.572-20.757,10.335c-1.965.487,1.028-9.583,4.045-11.251S243.085,604.877,242.631,601.538Z" fill="#fff" stroke="#333" stroke-linejoin="round" stroke-width="2"/>
    <path id="Path_2111" data-name="Path 2111" d="M225.27,607.045s-5.681,6.144-3.826,10.317,13.449-1.507,18.2-7.419,7.883-16.809,3.362-19.592S227.125,604.843,225.27,607.045Z" fill="#fff" stroke="#333" stroke-linejoin="round" stroke-width="2"/>
    <path id="Path_2112" data-name="Path 2112" d="M328.02,570.575c.7,22.049-39.2,55.65-39.2,60.9s11.55,6.3,11.55,6.3c-50.4,52.849-71.4,36.4-71.4,36.4-7-13.3-7.35-184.1-7.35-184.1l-9.1-5.523c0-.28,0-.426,0-.426l-.349.212-.35-.212s0,.146,0,.426l-9.1,5.523s-.35,170.8-7.349,184.1c0,0-21,16.45-71.4-36.4,0,0,11.549-1.049,11.549-6.3,0-6.756-39.851-40.344-39.2-60.9,0,0-21.7,49-3.85,73.849,0,0,4.9,3.5,14.35-1.051,0,0,29.213,57.022,104.956,87.2.013.192.769.192.78,0,75.745-30.177,104.958-87.2,104.958-87.2,9.449,4.55,14.35,1.051,14.35,1.051C349.719,619.574,328.02,570.575,328.02,570.575Z" fill="#fff" stroke="#333" stroke-linejoin="round" stroke-width="2"/>
    <path id="Path_2113" data-name="Path 2113" d="M212.174,417.03a37.1,37.1,0,1,0,37.1,37.1A37.1,37.1,0,0,0,212.174,417.03Zm0,59.18a22.081,22.081,0,1,1,22.082-22.082A22.081,22.081,0,0,1,212.174,476.21Z" fill="#fff" stroke="#333" stroke-linejoin="round" stroke-width="2"/>
    <path id="Path_2114" data-name="Path 2114" d="M216.008,469.655c-.6-.938.914-10.382-1.243-16.511,0,0,15.158,3.536,9.611,15.7C224.376,468.847,219.658,475.412,216.008,469.655Z" fill="#fff" stroke="#333" stroke-linejoin="round" stroke-width="2"/>
    <path id="Path_2115" data-name="Path 2115" d="M214.9,452.827s-3.852-7.1-12.29-3.224c0,0,7.852,6.939,8.874,16.885,0,0,1.253,3.624,3.159,3C214.645,469.492,220.438,460.739,214.9,452.827Z" fill="#fff" stroke="#333" stroke-linejoin="round" stroke-width="2"/>
    <path id="Path_2116" data-name="Path 2116" d="M169.159,516.5s-1.622,10.55,2.435,11.71c.115,0,11.361-8.58,12.4-17.622s-1.97-10.55-1.97-10.55S169.971,514.994,169.159,516.5Z" fill="#fff" stroke="#333" stroke-linejoin="round" stroke-width="2"/>
    <path id="Path_2117" data-name="Path 2117" d="M172.019,526.989c-1.157,1.364-2.761,11.114,4.989,12.031.116,0,8.9-9.331,9.659-18.4s-2.3-10.483-2.3-10.483S174.175,523.478,172.019,526.989Z" fill="#fff" stroke="#333" stroke-linejoin="round" stroke-width="2"/>
    <path id="Path_2118" data-name="Path 2118" d="M176.508,538.6s3.163,10.665,9.042,11.687c0,0,3.419-4.967,5.408-16.708,0,0,1.456-6.4-4.045-17.618A40.07,40.07,0,0,0,176.508,538.6Z" fill="#fff" stroke="#333" stroke-linejoin="round" stroke-width="2"/>
    <path id="Path_2119" data-name="Path 2119" d="M188.694,452.506s-10.661-.294-13.269,9.1c0,0,13.1-1.446,23.877,6.207,0,0,4.695,1.912,5.738-.523C205.04,467.287,201.389,453.9,188.694,452.506Z" fill="#fff" stroke="#333" stroke-linejoin="round" stroke-width="2"/>
    <path id="Path_2120" data-name="Path 2120" d="M175.477,461.375s-8.607,1.652-8.781,13.042c0,0,2.869-4,10.173-3.13s19.129,1.392,21.563-3.826A23.923,23.923,0,0,0,175.477,461.375Z" fill="#fff" stroke="#333" stroke-linejoin="round" stroke-width="2"/>
    <path id="Path_2121" data-name="Path 2121" d="M166.608,474.94a15.976,15.976,0,0,0-2.434,15.65s7.188-9.912,17.564-11.3c0,0,9.343-4.144,7.6-7.1S171.13,467.113,166.608,474.94Z" fill="#fff" stroke="#333" stroke-linejoin="round" stroke-width="2"/>
    <path id="Path_2122" data-name="Path 2122" d="M166.493,504.793s-2.369,9.994,2.848,12.892c0,0,4.107-.545,12.107-11.791,0,0,5.1-6.029,1.333-20.869A55.29,55.29,0,0,0,166.493,504.793Z" fill="#fff" stroke="#333" stroke-linejoin="round" stroke-width="2"/>
    <path id="Path_2123" data-name="Path 2123" d="M163.987,490.853s-3.287,10.076,2.625,14.25a171.323,171.323,0,0,1,12.053-14.222c6.925-7.558,6.894-10.689,4.343-12.2S169.667,480.419,163.987,490.853Z" fill="#fff" stroke="#333" stroke-linejoin="round" stroke-width="2"/>
    <path id="Path_2124" data-name="Path 2124" d="M191.65,558.063" fill="#fff" stroke="#333" stroke-width="2"/>
    <path id="Path_2125" data-name="Path 2125" d="M210.223,556.147c.674-.684,11.713,1.416,12.9,9.742s-.87,13.042-2.087,18.955c-.625,3.037-10.721-6.083-10.552-9.991S207.649,558.759,210.223,556.147Z" fill="#fff" stroke="#333" stroke-linejoin="round" stroke-width="2"/>
    <path id="Path_2126" data-name="Path 2126" d="M202.881,549.969a61.18,61.18,0,0,1-.506,13.024c-.938,5.994,1.691,13.135,8.266,12.729,0,0-1.658-11.235.3-16.241S205.952,549.915,202.881,549.969Z" fill="#fff" stroke="#333" stroke-linejoin="round" stroke-width="2"/>
    <path id="Path_2127" data-name="Path 2127" d="M194.954,539.282a111.94,111.94,0,0,1-1.154,15.7c-1.1,7.13,1.112,15.66,8.937,15.312,0,0-.827-13.618,1.608-19.531S198.606,539.282,194.954,539.282Z" fill="#fff" stroke="#333" stroke-linejoin="round" stroke-width="2"/>
    <path id="Path_2128" data-name="Path 2128" d="M190.675,527.6s-1.049,9.18-4.019,15.754-.953,15.811,6.831,16.683c0,0,.6-13.577,3.926-19.04S196.008,527.935,190.675,527.6Z" fill="#fff" stroke="#333" stroke-linejoin="round" stroke-width="2"/>
    <path id="Path_2129" data-name="Path 2129" d="M233.177,574.159s9.629,5.573,6.788,16.2-12.728,15.558-15.29,17.433c-1.634,1.2-2.681-9.259-.521-11.945S234.863,577.077,233.177,574.159Z" fill="#fff" stroke="#333" stroke-linejoin="round" stroke-width="2"/>
    <g id="Group_601" data-name="Group 601">
      <g id="Group_600" data-name="Group 600" clip-path="url(#clip-path)">
        <path id="Path_2130" data-name="Path 2130" d="M202.471,449.482s-8.171-4.879-15.359,2.933c0,0,12.007,3.948,18.613,15.4,0,0,3.467,3.7,5.432,1.921C211.157,469.737,213.426,456.045,202.471,449.482Z" fill="#fff" stroke="#333" stroke-linejoin="round" stroke-width="2"/>
      </g>
    </g>
    <path id="Path_2132" data-name="Path 2132" d="M222.546,563.106s10.665,2.9,10.9,12.753-6.84,18.9-9.623,19.592-4.985-6.492-2.956-11.3S223.937,564.613,222.546,563.106Z" fill="#fff" stroke="#333" stroke-linejoin="round" stroke-width="2"/>
    <path id="Path_2133" data-name="Path 2133" d="M149.158,671.422c-.819.947-11.78,1.811-17.7,6.141,0,0-.154-15.21,13.845-15.509C150.675,661.6,154.193,665.6,149.158,671.422Z" fill="#fff" stroke="#333" stroke-linejoin="round" stroke-width="2"/>
    <path id="Path_2134" data-name="Path 2134" d="M145.55,679.228c-.791.782-10.043,3.143-14.211,8.129,0,0-4.7-14.838,8.591-16.285C139.93,671.072,157.55,667.353,145.55,679.228Z" fill="#fff" stroke="#333" stroke-linejoin="round" stroke-width="2"/>
    <path id="Path_2135" data-name="Path 2135" d="M131,687.4s-4.136,6.939,3.506,12.212c0,0,1.955-10.294,9.984-16.255,0,0,5.563-3.129.968-4.249C145.455,679.108,134.971,678.6,131,687.4Z" fill="#fff" stroke="#333" stroke-linejoin="round" stroke-width="2"/>
    <path id="Path_2136" data-name="Path 2136" d="M144.109,710.1s5.193,9.315,14.6,6.759c0,0-7.931-10.519-6.859-23.7,0,0-.756-5.012-3.381-4.667C148.466,688.491,138.82,698.471,144.109,710.1Z" fill="#fff" stroke="#333" stroke-linejoin="round" stroke-width="2"/>
    <path id="Path_2137" data-name="Path 2137" d="M158.485,716.926s5.817,6.557,15.7.889c0,0-4.9-.424-7.887-7.147s-8.575-17.156-14.3-16.583A23.917,23.917,0,0,0,158.485,716.926Z" fill="#fff" stroke="#333" stroke-linejoin="round" stroke-width="2"/>
    <path id="Path_2138" data-name="Path 2138" d="M134.472,699.8s-.021,9.517,10.367,11.7c0,0-2.74-12.338,3.733-23.868,0,0,1.978-5.593-1.147-6.468C147.425,681.165,134.517,687.025,134.472,699.8Z" fill="#fff" stroke="#333" stroke-linejoin="round" stroke-width="2"/>
    <rect id="Rectangle_89" data-name="Rectangle 89" width="18" height="58.332" rx="8" transform="translate(203.174 464.938)" fill="#fff" stroke="#333" stroke-linejoin="round" stroke-width="2"/>
    <path id="Path_2139" data-name="Path 2139" d="M246.174,518.1c0,4.418-4.175,8-9.325,8H187.5c-5.15,0-9.325-3.582-9.325-8v-2c0-4.418,4.175-8,9.325-8h49.35c5.15,0,9.325,3.582,9.325,8Z" fill="#fff" stroke="#333" stroke-linejoin="round" stroke-width="2"/>
  </g>
</svg>
