<svg id="_360" data-name="360" xmlns="http://www.w3.org/2000/svg" width="29.223" height="21.918" viewBox="0 0 29.223 21.918">
  <path id="Path_2141" data-name="Path 2141" d="M96.1,98.362c1.563,0,2.825-.692,2.825-2.523v-.212a1.618,1.618,0,0,0-1.139-1.641,1.961,1.961,0,0,0,.86-1.831c0-1.507-1.072-2.021-2.49-2.021-1.92,0-2.545,1.128-2.545,2,0,.536.1.7.9.7.648,0,.815-.257.815-.637,0-.435.279-.569.826-.569.458,0,.826.156.826.8,0,.9-.447.96-.871.96-.38,0-.5.335-.5.67s.123.67.5.67c.614,0,1.072.145,1.072.893v.212c0,.726-.268,1-1.027,1-.5,0-.994-.123-.994-.648,0-.424-.179-.581-.893-.581-.614,0-.826.134-.826.637C93.445,97.189,94.182,98.362,96.1,98.362Zm0,0" transform="translate(-88.147 -84.986)" fill="#dcbb6a"/>
  <path id="Path_2142" data-name="Path 2142" d="M211.564,91.651c.525,0,.971.223.971.648,0,.514.424.636.9.636.558,0,.815-.167.815-.7,0-.927-.748-2.1-2.635-2.1-1.608,0-2.847.715-2.847,2.635v2.959a2.743,2.743,0,0,0,5.482,0v-.1a2.093,2.093,0,0,0-2.345-2.345,1.785,1.785,0,0,0-1.4.491v-1c0-.771.391-1.117,1.049-1.117Zm-.056,2.97c.637,0,1,.313,1,1.128v.1c0,.77-.368,1.105-.994,1.105s-1-.335-1-1.105v-.2a.9.9,0,0,1,.994-1.027Zm0,0" transform="translate(-196.935 -84.986)" fill="#dcbb6a"/>
  <path id="Path_2144" data-name="Path 2144" d="M327.79,98.361a2.427,2.427,0,0,0,2.747-2.635V92.768a2.743,2.743,0,0,0-5.482,0v2.959A2.418,2.418,0,0,0,327.79,98.361Zm-.994-5.594c0-.77.368-1.117.994-1.117s1,.346,1,1.117v2.959c0,.77-.379,1.117-1,1.117s-.994-.346-.994-1.117Zm0,0" transform="translate(-306.623 -84.986)" fill="#dcbb6a"/>
  <path id="Path_2145" data-name="Path 2145" d="M412,5.289a2.644,2.644,0,1,0-2.644-2.644A2.647,2.647,0,0,0,412,5.289Zm0-3.526a.881.881,0,1,1-.881.881A.883.883,0,0,1,412,1.763Zm0,0" transform="translate(-386.161)" fill="#dcbb6a"/>
  <path id="Path_2146" data-name="Path 2146" d="M316.676,144.018a.882.882,0,0,0-1,1.453,3.71,3.71,0,0,1,1.889,2.705c0,1.054-.878,2.146-2.473,3.075a19.254,19.254,0,0,1-7.023,2.125.882.882,0,0,0,.11,1.756.9.9,0,0,0,.113-.007,20.718,20.718,0,0,0,7.688-2.351c2.19-1.276,3.348-2.866,3.348-4.6,0-1.526-.917-2.964-2.653-4.158Zm0,0" transform="translate(-290.106 -135.807)" fill="#dcbb6a"/>
  <path id="Path_2147" data-name="Path 2147" d="M13.316,145.71a.881.881,0,1,0-1.246,1.246l.768.768a22.6,22.6,0,0,1-7.449-1.7c-2.3-1.028-3.625-2.363-3.625-3.662,0-1.037.855-2.116,2.408-3.036a.882.882,0,1,0-.9-1.517C.567,139.417,0,141.175,0,142.367c0,2.056,1.659,3.928,4.67,5.272a24.611,24.611,0,0,0,8.31,1.862l-.911.911a.881.881,0,1,0,1.246,1.246l2.351-2.351a.881.881,0,0,0,0-1.246Zm0,0" transform="translate(0.001 -129.998)" fill="#dcbb6a"/>
</svg>
