<svg xmlns="http://www.w3.org/2000/svg" width="37.143" height="26" viewBox="0 0 37.143 26">
  <g id="ac" transform="translate(1 -74.541)">
    <g id="Group_818" data-name="Group 818" transform="translate(-1 74.541)">
      <g id="Group_817" data-name="Group 817" transform="translate(0 0)">
        <path id="Path_2445" data-name="Path 2445" d="M34.286,74.541H.857A1.824,1.824,0,0,0-1,76.4V88.779A1.824,1.824,0,0,0,.857,90.636H34.286a1.824,1.824,0,0,0,1.857-1.857V76.4A1.824,1.824,0,0,0,34.286,74.541ZM34.9,88.779a.585.585,0,0,1-.619.619H.857a.585.585,0,0,1-.619-.619V76.4a.62.62,0,0,1,.619-.619H34.286a.585.585,0,0,1,.619.619V88.779Z" transform="translate(1 -74.541)" fill="#dcbb6a"/>
        <path id="Path_2446" data-name="Path 2446" d="M209.455,134.534h4.952a.619.619,0,1,0,0-1.238h-4.952a.619.619,0,1,0,0,1.238Z" transform="translate(-193.36 -128.963)" fill="#dcbb6a"/>
        <path id="Path_2448" data-name="Path 2448" d="M64.145,208.836H33.193a.619.619,0,0,0,0,1.238H64.145a.619.619,0,0,0,0-1.238Z" transform="translate(-30.098 -198.931)" fill="#dcbb6a"/>
        <path id="Path_2449" data-name="Path 2449" d="M227.79,312.4c-.619-.31-.929-.681-.929-.991s.371-.681.867-1.052a.591.591,0,0,0,.248-.8.546.546,0,0,0-.8-.248,2.56,2.56,0,0,0-1.548,2.1,2.725,2.725,0,0,0,1.548,2.167c.619.31.929.681.929.991s-.371.681-.929.99a.546.546,0,0,0-.248.8.65.65,0,0,0,.557.31.558.558,0,0,0,.31-.062,2.56,2.56,0,0,0,1.548-2.1A2.484,2.484,0,0,0,227.79,312.4Z" transform="translate(-208.909 -291.906)" fill="#dcbb6a"/>
        <path id="Path_2450" data-name="Path 2450" d="M135.462,329.183c-.619-.31-.929-.681-.929-.991s.371-.681.867-1.052a.6.6,0,1,0-.557-1.052,2.56,2.56,0,0,0-1.548,2.1,2.725,2.725,0,0,0,1.548,2.167c.619.31.929.681.929.991s-.371.681-.929.991a.546.546,0,0,0-.248.8.65.65,0,0,0,.557.31.558.558,0,0,0,.31-.062,2.56,2.56,0,0,0,1.548-2.1A2.484,2.484,0,0,0,135.462,329.183Z" transform="translate(-123.39 -307.455)" fill="#dcbb6a"/>
        <path id="Path_2451" data-name="Path 2451" d="M320.118,329.183c-.619-.31-.929-.681-.929-.991s.371-.681.867-1.052a.591.591,0,0,0,.248-.8.546.546,0,0,0-.8-.248,2.56,2.56,0,0,0-1.548,2.1,2.725,2.725,0,0,0,1.548,2.167c.619.31.929.681.929.991s-.371.681-.929.991a.546.546,0,0,0-.248.8.65.65,0,0,0,.557.31.558.558,0,0,0,.31-.062,2.56,2.56,0,0,0,1.548-2.1A2.484,2.484,0,0,0,320.118,329.183Z" transform="translate(-294.427 -307.455)" fill="#dcbb6a"/>
      </g>
    </g>
  </g>
</svg>
