<svg xmlns="http://www.w3.org/2000/svg" width="36.863" height="36.863" viewBox="0 0 36.863 36.863">
  <g id="Group_805" data-name="Group 805" transform="translate(-819.544 -3404.392)">
    <g id="Path_2087" data-name="Path 2087" transform="translate(817.975 3402.822)" fill="none">
      <path d="M20,11.269A8.733,8.733,0,1,0,28.733,20,8.742,8.742,0,0,0,20,11.269Z" stroke="none"/>
      <path d="M 20.0008430480957 12.26899528503418 C 15.73749351501465 12.26899528503418 12.26900291442871 15.73783493041992 12.26900291442871 20.00161552429199 C 12.26900291442871 24.26539611816406 15.73749351501465 27.7342357635498 20.0008430480957 27.7342357635498 C 24.26419258117676 27.7342357635498 27.7326831817627 24.26539611816406 27.7326831817627 20.00161552429199 C 27.7326831817627 15.73783493041992 24.26419258117676 12.26899528503418 20.0008430480957 12.26899528503418 M 20.0008430480957 11.26899528503418 C 24.81490325927734 11.26899528503418 28.7326831817627 15.18601608276367 28.7326831817627 20.00161552429199 C 28.7326831817627 24.81721496582031 24.81490325927734 28.7342357635498 20.0008430480957 28.7342357635498 C 15.18601226806641 28.7342357635498 11.26900291442871 24.81644439697266 11.26900291442871 20.00161552429199 C 11.26900291442871 15.1867847442627 15.18601226806641 11.26899528503418 20.0008430480957 11.26899528503418 Z" stroke="none" fill="#dcbb6a"/>
    </g>
    <path id="Path_2088" data-name="Path 2088" d="M22.077,6.133a1.7,1.7,0,0,1-1.7-1.7V1.7a1.7,1.7,0,1,1,3.408,0V4.43A1.7,1.7,0,0,1,22.077,6.133Z" transform="translate(815.898 3405.392)" fill="#dcbb6a" stroke="#333" stroke-width="2"/>
    <path id="Path_2089" data-name="Path 2089" d="M22.077,37.215a1.7,1.7,0,0,0-1.7,1.7v2.725a1.7,1.7,0,1,0,3.408,0V38.919A1.7,1.7,0,0,0,22.077,37.215Z" transform="translate(815.898 3396.906)" fill="#dcbb6a" stroke="#333" stroke-width="2"/>
    <path id="Path_2090" data-name="Path 2090" d="M32.781,10.8a1.7,1.7,0,0,1,0-2.409l1.928-1.928a1.7,1.7,0,0,1,2.409,2.409L35.19,10.8A1.7,1.7,0,0,1,32.781,10.8Z" transform="translate(813.183 3404.031)" fill="#dcbb6a" stroke="#333" stroke-width="2"/>
    <path id="Path_2091" data-name="Path 2091" d="M10.8,32.782a1.7,1.7,0,0,0-2.409,0L6.466,34.709a1.7,1.7,0,0,0,2.409,2.409L10.8,35.19A1.7,1.7,0,0,0,10.8,32.782Z" transform="translate(819.184 3398.031)" fill="#dcbb6a" stroke="#333" stroke-width="2"/>
    <path id="Path_2092" data-name="Path 2092" d="M37.215,22.077a1.7,1.7,0,0,1,1.7-1.7h2.726a1.7,1.7,0,1,1,0,3.407H38.919A1.7,1.7,0,0,1,37.215,22.077Z" transform="translate(812.059 3400.746)" fill="#dcbb6a" stroke="#333" stroke-width="2"/>
    <path id="Path_2093" data-name="Path 2093" d="M6.133,22.077a1.7,1.7,0,0,0-1.7-1.7H1.7a1.7,1.7,0,1,0,0,3.407H4.43A1.7,1.7,0,0,0,6.133,22.077Z" transform="translate(820.544 3400.746)" fill="#dcbb6a" stroke="#333" stroke-width="2"/>
    <path id="Path_2094" data-name="Path 2094" d="M32.781,32.783a1.7,1.7,0,0,1,2.409,0l1.928,1.928a1.7,1.7,0,0,1-2.409,2.409l-1.928-1.928A1.7,1.7,0,0,1,32.781,32.783Z" transform="translate(813.184 3398.03)" fill="#dcbb6a" stroke="#333" stroke-width="2"/>
    <path id="Path_2095" data-name="Path 2095" d="M10.8,10.8a1.7,1.7,0,0,0,0-2.409L8.875,6.467A1.7,1.7,0,0,0,6.466,8.875L8.393,10.8A1.7,1.7,0,0,0,10.8,10.8Z" transform="translate(819.184 3404.031)" fill="#dcbb6a" stroke="#333" stroke-width="2"/>
  </g>
</svg>
