<svg xmlns="http://www.w3.org/2000/svg" width="406" height="263.266" viewBox="0 0 406 263.266">
  <g id="beam-bg" opacity="0.1">
    <path id="Path_2151" data-name="Path 2151" d="M398.07,247.406a45.623,45.623,0,0,1-33.225-14.511,7.871,7.871,0,0,0-11.577,0,45.209,45.209,0,0,1-24.582,13.718L352.554,162a7.857,7.857,0,0,0-4.758-9.516l-22.679-8.723V106.258a33.3,33.3,0,0,0-33.3-33.3h-4.758V28.309A28.326,28.326,0,0,0,258.746,0H147.254a28.326,28.326,0,0,0-28.309,28.309V72.953h-4.758a33.3,33.3,0,0,0-33.3,33.3v37.349L58.2,152.329a7.932,7.932,0,0,0-4.758,9.516l23.868,84.768a45.209,45.209,0,0,1-24.582-13.718,7.871,7.871,0,0,0-11.577,0A45.321,45.321,0,0,1,7.93,247.406a7.93,7.93,0,1,0,0,15.859,61.2,61.2,0,0,0,39.014-14.115,60.976,60.976,0,0,0,78.028,0,60.976,60.976,0,0,0,78.028,0,60.976,60.976,0,0,0,78.028,0,60.976,60.976,0,0,0,78.028,0,61.2,61.2,0,0,0,39.014,14.115,7.93,7.93,0,1,0,0-15.859ZM147.254,15.859H258.746a12.42,12.42,0,0,1,12.45,12.45v8.168H235.512a7.93,7.93,0,1,0,0,15.859H271.2V72.953H134.8V52.336h35.684a7.93,7.93,0,1,0,0-15.859H134.8V28.309A12.42,12.42,0,0,1,147.254,15.859Zm-50.512,90.4a17.5,17.5,0,0,1,17.445-17.445H291.813a17.5,17.5,0,0,1,17.445,17.445V137.5l-103.4-39.886a7.88,7.88,0,0,0-5.709,0L96.742,137.5ZM262.79,191.343l58.6,22.6-9.278,32.75a46.008,46.008,0,0,1-25.3-13.8,7.871,7.871,0,0,0-11.577,0,45.167,45.167,0,0,1-64.31,2.062v-54.08a7.93,7.93,0,0,0-15.859,0v54.08a45.167,45.167,0,0,1-64.31-2.062,7.871,7.871,0,0,0-11.577,0,45.044,45.044,0,0,1-25.3,13.8L84.61,213.864l57.57-22.2a7.908,7.908,0,0,0-5.709-14.749L80.328,198.559l-9.595-34.018L203,113.553l132.346,50.988-9.595,34.018-57.173-22.045a7.96,7.96,0,0,0-5.789,14.829ZM195.07,44.406a7.93,7.93,0,1,1,7.93,7.93A7.953,7.953,0,0,1,195.07,44.406ZM210.93,149.078a7.93,7.93,0,1,1-7.93-7.93A7.953,7.953,0,0,1,210.93,149.078Z" fill="#fff"/>
  </g>
</svg>
