<svg xmlns="http://www.w3.org/2000/svg" width="24.274" height="21.2" viewBox="0 0 24.274 21.2">
  <g id="bed" transform="translate(-1498.686 -622.162)">
    <path id="Path_2396" data-name="Path 2396" d="M1499.286,644.3v-9.056a1.715,1.715,0,0,1,1.715-1.715h19.644a1.715,1.715,0,0,1,1.715,1.715V644.3" transform="translate(0 -1.536)" fill="none" stroke="#dcbb6a" stroke-linecap="round" stroke-linejoin="round" stroke-width="1.2"/>
    <line id="Line_17" data-name="Line 17" x2="23.074" transform="translate(1499.286 635.838)" fill="none" stroke="#dcbb6a" stroke-linecap="round" stroke-linejoin="round" stroke-width="1.2"/>
    <line id="Line_18" data-name="Line 18" x2="23.074" transform="translate(1499.286 639.683)" fill="none" stroke="#dcbb6a" stroke-linecap="round" stroke-linejoin="round" stroke-width="1.2"/>
    <path id="Rectangle_167" data-name="Rectangle 167" d="M2,0H18a2,2,0,0,1,2,2V9.229a0,0,0,0,1,0,0H0a0,0,0,0,1,0,0V2A2,2,0,0,1,2,0Z" transform="translate(1500.826 622.762)" fill="none" stroke="#dcbb6a" stroke-linecap="round" stroke-linejoin="round" stroke-width="1.2"/>
    <path id="Rectangle_168" data-name="Rectangle 168" d="M.5,0H4.884a.5.5,0,0,1,.5.5V4.612a0,0,0,0,1,0,0H0a0,0,0,0,1,0,0V.5A.5.5,0,0,1,.5,0Z" transform="translate(1503.904 627.379)" fill="none" stroke="#dcbb6a" stroke-linecap="round" stroke-linejoin="round" stroke-width="1.2"/>
    <path id="Rectangle_169" data-name="Rectangle 169" d="M.5,0H4.881a.5.5,0,0,1,.5.5V4.619a0,0,0,0,1,0,0H0a0,0,0,0,1,0,0V.5A.5.5,0,0,1,.5,0Z" transform="translate(1512.364 627.373)" fill="none" stroke="#dcbb6a" stroke-linecap="round" stroke-linejoin="round" stroke-width="1.2"/>
  </g>
</svg>
