<svg xmlns="http://www.w3.org/2000/svg" width="84.117" height="53.856" viewBox="0 0 84.117 53.856">
  <path id="boat-length" d="M610.139,672.493a4.046,4.046,0,1,0,4.046-4.049A4.051,4.051,0,0,0,610.139,672.493Zm4.045,2.68a2.682,2.682,0,1,1,2.682-2.686v0A2.685,2.685,0,0,1,614.184,675.173Zm0-3.364a.682.682,0,1,0,.685.682A.681.681,0,0,0,614.181,671.809Zm34.918-31.72a.682.682,0,0,0,0,1.363h8.072a.682.682,0,0,0,0-1.363Zm-23.084,32.4a4.046,4.046,0,1,0,4.046-4.049A4.051,4.051,0,0,0,626.015,672.493Zm4.045,2.68a2.682,2.682,0,1,1,2.682-2.686v0A2.685,2.685,0,0,1,630.06,675.173Zm0-3.364a.682.682,0,1,0,.685.682A.681.681,0,0,0,630.057,671.809Zm12.1.684a4.046,4.046,0,1,0,4.046-4.049A4.051,4.051,0,0,0,642.161,672.493Zm4.045,2.68a2.682,2.682,0,1,1,2.682-2.686v0A2.685,2.685,0,0,1,646.206,675.173Zm0-3.364a.682.682,0,1,0,.685.682A.681.681,0,0,0,646.2,671.809Zm16.149-3.366a4.046,4.046,0,1,0,4.046,4.046A4.051,4.051,0,0,0,662.352,668.443Zm0,6.73a2.682,2.682,0,0,1,0-5.364h0a2.682,2.682,0,1,1,0,5.364Zm0-3.364a.682.682,0,1,0,.681.681A.681.681,0,0,0,662.353,671.809Zm-40.364-16.247a.682.682,0,0,0,0,1.364h8.073a.684.684,0,0,0,.683-.682.683.683,0,0,0-.682-.682Zm31.231,7.081a.682.682,0,1,0,.682.681A.682.682,0,0,0,653.22,662.643Zm-56.462,21.544a.681.681,0,0,0-.682.681.684.684,0,0,0,.682.683,12.011,12.011,0,0,0,7.638-2.764l.64-.531.639.532a11.929,11.929,0,0,0,15.269,0l.64-.532.64.532a11.928,11.928,0,0,0,15.27,0l.639-.532.64.532a11.932,11.932,0,0,0,15.269,0l.64-.532.64.532a11.929,11.929,0,0,0,15.269,0l.637-.529.638.525a12.094,12.094,0,0,0,7.642,2.749.683.683,0,0,0,.679-.682.684.684,0,0,0-.682-.681h0a10.649,10.649,0,0,1-7.761-3.4.725.725,0,0,0-.508-.217.746.746,0,0,0-.512.232,10.592,10.592,0,0,1-7.749,3.384,10.718,10.718,0,0,1-7.778-3.391.723.723,0,0,0-.51-.22.686.686,0,0,0-.483.219,10.6,10.6,0,0,1-14.958.582c-.2-.188-.4-.382-.586-.586a.733.733,0,0,0-.516-.215h0a.665.665,0,0,0-.485.214,10.6,10.6,0,0,1-7.765,3.4,10.715,10.715,0,0,1-7.778-3.4.683.683,0,0,0-.48-.218.6.6,0,0,0-.494.183,10.59,10.59,0,0,1-15.577.035.669.669,0,0,0-.449-.222l-.621-.044-6.714-16.505H645.7a.682.682,0,0,0,0-1.364H611.927l7.055-14.11h46.052v14.791a.689.689,0,0,0,.685.683h8.239l4.453,10.983a.685.685,0,0,0,.89.373.711.711,0,0,0,.19-.117.64.64,0,0,0,.184-.748l-4.632-11.417a.691.691,0,0,0-.63-.419h-8V648.55h6.365a.718.718,0,0,0,.736-.651.68.68,0,0,0-.637-.711l-6.481,0V632.379a.688.688,0,0,0-.685-.683H645.69a.637.637,0,0,0-.6.363l-7.565,15.111h-18.95a.654.654,0,0,0-.6.361l-7.566,15.112H596.76a.721.721,0,0,0-.579.311.692.692,0,0,0-.06.639l7.393,18.183-.643.459a10.438,10.438,0,0,1-6.1,1.952C596.769,684.187,596.762,684.185,596.758,684.187Zm68.293-37.017h-26l7.055-14.109h18.941Zm-26.919,8.392a.682.682,0,0,0,0,1.364h8.073a.683.683,0,0,0,.682-.682.681.681,0,0,0-.681-.682Zm16.148,0a.682.682,0,0,0,0,1.364h4.707a.684.684,0,0,0,.683-.682.681.681,0,0,0-.681-.682Z" transform="translate(-596.07 -631.696)" fill="#dcbb6a"/>
</svg>
