<svg xmlns="http://www.w3.org/2000/svg" width="58.496" height="58.503" viewBox="0 0 58.496 58.503">
  <path id="boat-speed" d="M1189.814,663.617c-.131-4.942-1.827-12.1-6.17-16l-.02-.017a8.925,8.925,0,0,0-6.768-2.378,14.188,14.188,0,0,0-5.663,2.162l-5.079,3.489,3.361-5.238c3-4.4,5.1-8.885,5.1-10.9a3.591,3.591,0,0,0-1.122-2.606c-2.079-2.024-6.181-2.246-8.453-2.183-4.952.132-12.124,1.829-16.026,6.179a8.9,8.9,0,0,0-2.394,6.776,14.131,14.131,0,0,0,2.151,5.641l3.361,5.238-5.11-3.52c-4.39-2.986-8.857-5.072-10.861-5.072h0a3.586,3.586,0,0,0-2.6,1.122c-2.116,2.172-2.231,6.63-2.183,8.447.131,4.956,1.829,12.129,6.185,16.032a8.915,8.915,0,0,0,6.049,2.423c.235,0,.48-.01.725-.03a14.147,14.147,0,0,0,5.667-2.165l5.055-3.531-3.334,5.279c-2.99,4.4-5.076,8.869-5.076,10.876a3.591,3.591,0,0,0,1.124,2.613c1.955,1.9,5.719,2.185,7.791,2.185.22,0,.432,0,.627-.006,4.949-.131,12.1-1.827,16-6.172a8.915,8.915,0,0,0,2.4-6.787,14.2,14.2,0,0,0-2.176-5.689l-3.331-5.209,5.079,3.489c4.412,3,8.9,5.1,10.911,5.1h0a3.593,3.593,0,0,0,2.6-1.124C1189.747,669.88,1189.862,665.43,1189.814,663.617ZM1147.887,642.8a7.476,7.476,0,0,1,2.077-5.807c3.381-3.747,10.18-5.6,15.073-5.724,3.525-.089,6.228.573,7.483,1.8a2.19,2.19,0,0,1,.74,1.69c0,3.182-4.829,10.505-8.093,14.449l-.56.677-.826-.3a9.742,9.742,0,0,0-9.624,1.772l-.9.769-.819-.852C1150.342,649.084,1148.119,645.615,1147.887,642.8Zm4.762,24.527c-2.184,2.1-5.651,4.324-8.473,4.557q-.328.028-.655.029a7.356,7.356,0,0,1-5.181-2.132c-3.713-3.333-5.564-10.147-5.694-15.05-.095-3.493.56-6.221,1.8-7.485a2.323,2.323,0,0,1,1.689-.737c3.179,0,10.5,4.829,14.447,8.093l.677.559-.3.826a9.742,9.742,0,0,0,1.771,9.624l.77.9Zm20.584,8.26a7.483,7.483,0,0,1-2.053,5.789l-.015.017c-3.372,3.758-10.166,5.608-15.052,5.736-.256.009-.509.013-.757.013-3.052,0-5.531-.66-6.709-1.807a2.192,2.192,0,0,1-.741-1.693c0-3.178,4.818-10.5,8.073-14.447l.559-.677.827.3a9.745,9.745,0,0,0,9.61-1.773l.9-.77.818.855C1170.781,669.309,1173,672.771,1173.233,675.585Zm-12.659-7.514a8.9,8.9,0,0,1-8.875-8.874h0a8.875,8.875,0,1,1,8.875,8.875Zm26.166,3.015a2.247,2.247,0,0,1-1.7.774h-.021c-3.18,0-10.5-4.817-14.446-8.073l-.676-.558.295-.828a9.738,9.738,0,0,0-1.772-9.611l-.771-.9.856-.819c2.184-2.09,5.646-4.3,8.46-4.542.22-.018.434-.028.646-.028a7.525,7.525,0,0,1,5.187,2.126c3.724,3.339,5.573,10.133,5.7,15.019C1188.595,667.094,1187.956,669.8,1186.74,671.086Z" transform="translate(-1131.325 -629.944)" fill="#dcbb6a"/>
</svg>
