<svg xmlns="http://www.w3.org/2000/svg" width="55.292" height="58.497" viewBox="0 0 55.292 58.497">
  <path id="boat-capacity" d="M970.7,632.466a7.5,7.5,0,1,0,7.5,7.5A7.505,7.505,0,0,0,970.7,632.466Zm0,13.425a5.928,5.928,0,0,1,0-11.857h0a5.928,5.928,0,0,1,0,11.857Zm28.885,4.2h-4.914a6.4,6.4,0,0,0-6.261,5.8l-2.123,24.456a.786.786,0,0,0,.715.848l4.409,0,1.492,6.643a.78.78,0,0,0,.765.611h6.509a.787.787,0,0,0,.753-.565l1.933-6.689h4.348a.789.789,0,0,0,.784-.79.64.64,0,0,0-.009-.108l-2.12-24.394A6.4,6.4,0,0,0,999.589,650.087Zm0,36.792H994.3l-1.276-5.688h8.206Zm6.764-7.255H987.928l2.051-23.635a4.837,4.837,0,0,1,4.664-4.335h4.966a4.843,4.843,0,0,1,4.7,4.337Zm-33.214-29.537h-4.9a6.741,6.741,0,0,0-6.5,5.76l-1.879,14.962a.786.786,0,0,0,.681.876l3.017.005,2.418,16.089a.786.786,0,0,0,.774.667h8.477a.785.785,0,0,0,.78-.694l1.875-16.063h2.9a.785.785,0,0,0,.784-.784l-1.89-15.073A6.745,6.745,0,0,0,973.142,650.087Zm1.379,36.792h-7.1l-2.282-15.189H976.3Zm5.37-16.757H961.524l1.777-14.1a5.152,5.152,0,0,1,4.9-4.359h4.976a5.152,5.152,0,0,1,4.934,4.318Zm35.065-33.506c-.457-2.82-1.779-5.034-3.542-5.941-4.606-2.368-9.624,1.8-9.836,1.979l-.886.67-.621-.263a7.5,7.5,0,1,0,4.566,6.9,7.839,7.839,0,0,0-.038-.816l-.149-1.4,1.41.021a3.339,3.339,0,0,1,2.04.736c2.518,1.824,2.784,6.086,2.565,8.079a.785.785,0,0,0,1.34.645A12.4,12.4,0,0,0,1014.956,636.616Zm-17.813,9.275h0a5.928,5.928,0,1,1,5.928-5.928A5.935,5.935,0,0,1,997.142,645.891Zm16.349-6.071a12.664,12.664,0,0,1-1.653,4.69,21.115,21.115,0,0,0-.745-4.335,7.141,7.141,0,0,0-2.335-2.993,4.221,4.221,0,0,0-2.707-.962s-2.01-.018-2.418-.018l-.194-.3a7.7,7.7,0,0,0-.5-.681l-.851-1.045,1.105-.771c1.287-.9,4.6-2.83,7.5-1.331,1.322.68,2.335,2.467,2.709,4.78A11.713,11.713,0,0,1,1013.492,639.82Z" transform="translate(-959.852 -629.949)" fill="#dcbb6a"/>
</svg>
