<svg id="boats" xmlns="http://www.w3.org/2000/svg" width="78.48" height="33.178" viewBox="0 0 78.48 33.178">
  <path id="Path_2151_1_" d="M62.987,31.158a5.551,5.551,0,0,1-4.147-1.808.994.994,0,0,0-1.382-.106l-.106.106a5.935,5.935,0,0,1-3.084,1.7l2.978-10.634a.917.917,0,0,0-.638-1.17l-2.871-1.063V13.505a4.152,4.152,0,0,0-4.147-4.147H48.95V3.509A3.54,3.54,0,0,0,45.44,0H31.4a3.54,3.54,0,0,0-3.509,3.509V9.145h-.638a4.152,4.152,0,0,0-4.147,4.147v4.785l-2.871,1.063a1.146,1.146,0,0,0-.638,1.17l2.978,10.634a5.935,5.935,0,0,1-3.084-1.7.994.994,0,0,0-1.382-.106L18,29.244a5.551,5.551,0,0,1-4.147,1.808.957.957,0,1,0,0,1.914,7.517,7.517,0,0,0,4.892-1.808,7.7,7.7,0,0,0,9.783,0,7.7,7.7,0,0,0,9.783,0,7.7,7.7,0,0,0,9.783,0,7.7,7.7,0,0,0,9.783,0,7.517,7.517,0,0,0,4.892,1.808.953.953,0,0,0,.957-.957C63.944,31.583,63.518,31.158,62.987,31.158ZM31.4,2.02H45.44a1.635,1.635,0,0,1,1.6,1.6V4.679H42.569a.957.957,0,1,0,0,1.914h4.466V9.145H29.808V6.593h4.466a.957.957,0,1,0,0-1.914H29.808V3.616a1.566,1.566,0,0,1,1.6-1.6ZM25.023,13.4a2.246,2.246,0,0,1,2.233-2.233H49.588A2.246,2.246,0,0,1,51.821,13.4v3.935l-12.974-5a.908.908,0,0,0-.744,0l-12.974,5L25.023,13.4ZM45.972,24.033,53.31,26.9l-1.17,4.147a6.244,6.244,0,0,1-3.19-1.7.994.994,0,0,0-1.382-.106l-.106.106a5.715,5.715,0,0,1-8.082.319l-.106-.106V22.757a.957.957,0,0,0-1.914,0v6.806a5.717,5.717,0,0,1-8.082-.213l-.106-.106a.994.994,0,0,0-1.382-.106l-.106.106a5.245,5.245,0,0,1-3.19,1.7L23.321,26.8l7.231-2.765a.978.978,0,0,0-.744-1.808L22.79,24.99l-1.17-4.254,16.589-6.38,16.7,6.38-1.17,4.254L46.5,22.225a1.028,1.028,0,0,0-1.276.532c-.213.425.213,1.063.744,1.276Zm-8.507-18.4a.957.957,0,1,1,.957.957A.953.953,0,0,1,37.465,5.636Zm1.914,13.08a.957.957,0,1,1-.957-.957A.953.953,0,0,1,39.379,18.716Z" transform="translate(0.818 0)" fill="#dcbb6a"/>
  <path id="Path_22" data-name="Path 22" d="M66.3,28.291a.921.921,0,0,0-.744-.425,1.149,1.149,0,0,0-.744.319l-.106.106A5.724,5.724,0,0,1,60.559,30.1v2.02a7.731,7.731,0,0,0,4.892-1.808,7.731,7.731,0,0,0,4.892,1.808V30.1A5.862,5.862,0,0,1,66.3,28.291ZM50.457,16.7a.957.957,0,1,0,.957.957C51.52,17.125,50.989,16.7,50.457,16.7Z" transform="translate(3.139 1.059)" fill="#dcbb6a"/>
  <ellipse id="Ellipse_6" data-name="Ellipse 6" cx="0.957" cy="0.957" rx="0.957" ry="0.957" transform="translate(52.639 4.679)" fill="#dcbb6a"/>
  <ellipse id="Ellipse_7" data-name="Ellipse 7" cx="0.957" cy="0.957" rx="0.957" ry="0.957" transform="translate(52.639 4.679)" fill="#dcbb6a"/>
  <path id="Path_23" data-name="Path 23" d="M69.216,20.411,66.238,31.045H64.112l1.17-4.147-6.274-2.446a.978.978,0,1,1,.744-1.808l6.061,2.34,1.17-4.254L56.349,16.583a.93.93,0,0,1-.638-.957v-.213a1.008,1.008,0,0,1,1.382-.744l6.7,2.552V13.286a2.246,2.246,0,0,0-2.233-2.233H56.136a.957.957,0,1,1,0-1.914h2.871V6.587H54.541a.957.957,0,1,1,0-1.914h4.466V3.609a1.635,1.635,0,0,0-1.6-1.6H51.457a.957.957,0,0,1,0-1.914h5.955a3.564,3.564,0,0,1,3.616,3.509V9.245h.638a4.152,4.152,0,0,1,4.147,4.147v4.679l2.871,1.063A1.151,1.151,0,0,1,69.216,20.411Z" transform="translate(3.202 0.006)" fill="#dcbb6a"/>
  <ellipse id="Ellipse_8" data-name="Ellipse 8" cx="0.957" cy="0.957" rx="0.957" ry="0.957" transform="translate(52.639 4.679)" fill="#dcbb6a"/>
  <path id="Path_24" data-name="Path 24" d="M8.741,27.625a.921.921,0,0,1,.744-.425,1.149,1.149,0,0,1,.744.319l.106.106a5.724,5.724,0,0,0,4.147,1.808v2.02a7.731,7.731,0,0,1-4.892-1.808A7.731,7.731,0,0,1,4.7,31.454v-2.02A5.862,5.862,0,0,0,8.741,27.625Z" transform="translate(0.298 1.725)" fill="#dcbb6a"/>
  <path id="Path_25" data-name="Path 25" d="M5.7,20.417,8.679,31.052h2.127L9.636,26.9l6.274-2.446a.978.978,0,0,0-.744-1.808L9.1,24.99l-1.17-4.254,10.74-4.147a.93.93,0,0,0,.638-.957v-.213a1.008,1.008,0,0,0-1.382-.744l-6.7,2.552V13.293a2.246,2.246,0,0,1,2.233-2.233h5.317a.957.957,0,1,0,0-1.914H15.91V6.593h4.466a.957.957,0,0,0,0-1.914H15.91V3.616a1.635,1.635,0,0,1,1.6-1.6h5.955a.953.953,0,0,0,.957-.957A.856.856,0,0,0,23.567,0H17.612A3.564,3.564,0,0,0,14,3.509V9.145h-.638a4.152,4.152,0,0,0-4.147,4.147v4.785L6.34,19.141A1.085,1.085,0,0,0,5.7,20.417Z" transform="translate(0.36 0)" fill="#dcbb6a"/>
  <ellipse id="Ellipse_9" data-name="Ellipse 9" cx="0.957" cy="0.957" rx="0.957" ry="0.957" transform="translate(23.927 4.679)" fill="#dcbb6a"/>
  <path id="Path_26" data-name="Path 26" d="M78.48,29.06a.967.967,0,0,1-.425.851A7.757,7.757,0,0,1,73.588,31.4v-2.02a5.978,5.978,0,0,0,3.4-1.17A.985.985,0,0,1,78.48,29.06ZM0,29.06a.967.967,0,0,0,.425.851A7.757,7.757,0,0,0,4.892,31.4v-2.02a5.978,5.978,0,0,1-3.4-1.17A.985.985,0,0,0,0,29.06Z" transform="translate(0 1.779)" fill="#dcbb6a"/>
</svg>
