<svg xmlns="http://www.w3.org/2000/svg" width="84.11" height="53.839" viewBox="0 0 84.11 53.839">
  <path id="boat-beam" d="M794.586,682.239l.64.532a11.928,11.928,0,0,0,15.27,0l.639-.532.64.532a11.929,11.929,0,0,0,15.269,0l.64-.532.64.532a11.929,11.929,0,0,0,15.269,0l.639-.532.64.532a12.007,12.007,0,0,0,7.638,2.762.681.681,0,0,0,.678-.682.682.682,0,0,0-.681-.681h0a10.716,10.716,0,0,1-7.774-3.391.668.668,0,0,0-.469-.22.713.713,0,0,0-.481.176,10.58,10.58,0,0,1-5.8,3.253l-1.594.312,5.5-19.515a.663.663,0,0,0-.4-.812l-5.454-2.1v-8.642a6.062,6.062,0,0,0-6.062-6.063h-2.011V636.7a5.016,5.016,0,0,0-5-5H799.31a5.016,5.016,0,0,0-5,5v10.469h-2.015a6.062,6.062,0,0,0-6.062,6.062v8.609l-5.451,2.1a.679.679,0,0,0-.4.816l5.5,19.543-1.594-.311a10.519,10.519,0,0,1-5.758-3.213.666.666,0,0,0-.465-.216.686.686,0,0,0-.481.176,10.68,10.68,0,0,1-7.82,3.44h0a.682.682,0,1,0,0,1.363,12.007,12.007,0,0,0,7.638-2.762l.64-.532.639.532a11.929,11.929,0,0,0,15.269,0Zm24.816,1.926a10.518,10.518,0,0,1-7.163-2.8l-.39-.369-.034-.462V669.06a.683.683,0,0,0-.682-.681h0a.684.684,0,0,0-.681.682v11.9l-.31.3a10.6,10.6,0,0,1-14.958-.369l-.1-.112a.668.668,0,0,0-.467-.218.7.7,0,0,0-.481.176A10.673,10.673,0,0,1,788.164,684l-.89.155-2.462-8.709,13.061-5.036a.677.677,0,0,0,.028-1.251.665.665,0,0,0-.518-.012l-12.932,4.987-2.583-9.147,29.265-11.282.36.138,28.92,11.144-2.58,9.147-13.151-5.071a.688.688,0,1,0-.505,1.281l13.277,5.119-2.461,8.7L834.1,684a10.83,10.83,0,0,1-5.918-3.221.67.67,0,0,0-.952-.046A10.63,10.63,0,0,1,819.4,684.165Zm-6.416-3.632-.069.1.09-.1Zm-1.856-18.9a.681.681,0,1,0,.685.683A.681.681,0,0,0,811.13,661.633Zm23.54-.316-23.291-8.988a.677.677,0,0,0-.489,0L787.6,661.313V653.23a4.723,4.723,0,0,1,4.7-4.7H829.97a4.723,4.723,0,0,1,4.7,4.7ZM826.6,647.17H795.669V640.8h8.569a.682.682,0,1,0,0-1.364h-8.569V636.7a3.633,3.633,0,0,1,3.632-3.635v.042l.005-.043h23.66a3.633,3.633,0,0,1,3.631,3.624v2.749h-8.568a.682.682,0,1,0,0,1.364H826.6Zm-16.146-7.056a.682.682,0,1,0,1.364,0,.682.682,0,0,0-1.364,0Z" transform="translate(-769.078 -631.696)" fill="#dcbb6a"/>
</svg>