<svg xmlns="http://www.w3.org/2000/svg" width="32" height="32" viewBox="0 0 32 32">
  <path id="calendar-1" d="M5,32a5.006,5.006,0,0,1-5-5V7.5a5.006,5.006,0,0,1,5-5H6.563V1.25a1.25,1.25,0,0,1,2.5,0V2.5h5.625V1.25a1.25,1.25,0,0,1,2.5,0V2.5h5.687V1.25a1.25,1.25,0,1,1,2.5,0V2.5H27a5.006,5.006,0,0,1,5,5v2.812a1.25,1.25,0,1,1-2.5,0V7.5A2.5,2.5,0,0,0,27,5H25.375V6.25a1.25,1.25,0,1,1-2.5,0V5H17.188V6.25a1.25,1.25,0,0,1-2.5,0V5H9.062V6.25a1.25,1.25,0,1,1-2.5,0V5H5A2.5,2.5,0,0,0,2.5,7.5V27A2.5,2.5,0,0,0,5,29.5H27A2.5,2.5,0,0,0,29.5,27,1.25,1.25,0,0,1,32,27a5.006,5.006,0,0,1-5,5Zm12.437-8a1.25,1.25,0,1,1,1.25,1.25A1.25,1.25,0,0,1,17.437,24ZM12,24a1.25,1.25,0,1,1,1.25,1.25A1.25,1.25,0,0,1,12,24ZM6.563,24a1.25,1.25,0,1,1,1.25,1.25A1.25,1.25,0,0,1,6.563,24Zm19.3.442a1.25,1.25,0,0,1,.009-1.768l2.89-2.862H18.687a1.25,1.25,0,1,1,0-2.5h10.08l-2.843-2.87A1.25,1.25,0,1,1,27.7,12.683l3.194,3.225a3.741,3.741,0,0,1,0,5.314l-3.261,3.229a1.25,1.25,0,0,1-1.768-.009ZM12,18.562a1.25,1.25,0,1,1,1.25,1.25A1.25,1.25,0,0,1,12,18.562Zm-5.437,0a1.25,1.25,0,1,1,1.25,1.25A1.25,1.25,0,0,1,6.563,18.562Zm10.875-5.438a1.25,1.25,0,1,1,1.25,1.25A1.25,1.25,0,0,1,17.437,13.125Zm-5.438,0a1.25,1.25,0,1,1,1.25,1.25A1.25,1.25,0,0,1,12,13.125Zm-5.437,0a1.25,1.25,0,1,1,1.25,1.25A1.25,1.25,0,0,1,6.563,13.125Z" fill="#dcbb6a"/>
</svg>
