<svg xmlns="http://www.w3.org/2000/svg" width="32" height="32" viewBox="0 0 32 32">
  <path id="calendar-2" d="M5,32a5.006,5.006,0,0,1-5-5,1.25,1.25,0,0,1,2.5,0A2.5,2.5,0,0,0,5,29.5H27A2.5,2.5,0,0,0,29.5,27V7.5A2.5,2.5,0,0,0,27,5H25.437V6.25a1.25,1.25,0,1,1-2.5,0V5H17.313V6.25a1.25,1.25,0,0,1-2.5,0V5H9.125V6.25a1.25,1.25,0,1,1-2.5,0V5H5A2.5,2.5,0,0,0,2.5,7.5v2.812a1.25,1.25,0,1,1-2.5,0V7.5a5.006,5.006,0,0,1,5-5H6.625V1.25a1.25,1.25,0,1,1,2.5,0V2.5h5.687V1.25a1.25,1.25,0,0,1,2.5,0V2.5h5.625V1.25a1.25,1.25,0,0,1,2.5,0V2.5H27a5.006,5.006,0,0,1,5,5V27a5.006,5.006,0,0,1-5,5Zm17.875-8a1.25,1.25,0,1,1,1.25,1.25A1.25,1.25,0,0,1,22.875,24Zm-5.438,0a1.25,1.25,0,1,1,1.25,1.25A1.25,1.25,0,0,1,17.437,24ZM12,24a1.25,1.25,0,1,1,1.25,1.25A1.25,1.25,0,0,1,12,24Zm-7.629.451L1.11,21.222a3.741,3.741,0,0,1,0-5.315L4.3,12.683a1.25,1.25,0,0,1,1.776,1.759l-2.843,2.87h10.08a1.25,1.25,0,1,1,0,2.5H3.24l2.89,2.862a1.25,1.25,0,1,1-1.759,1.776Zm18.5-5.888a1.25,1.25,0,1,1,1.25,1.25A1.25,1.25,0,0,1,22.875,18.562Zm-5.438,0a1.25,1.25,0,1,1,1.25,1.25A1.25,1.25,0,0,1,17.437,18.562Zm5.438-5.438a1.25,1.25,0,1,1,1.25,1.25A1.25,1.25,0,0,1,22.875,13.125Zm-5.438,0a1.25,1.25,0,1,1,1.25,1.25A1.25,1.25,0,0,1,17.437,13.125Zm-5.438,0a1.25,1.25,0,1,1,1.25,1.25A1.25,1.25,0,0,1,12,13.125Z" fill="#dcbb6a"/>
</svg>
