<svg xmlns="http://www.w3.org/2000/svg" width="16.928" height="16.251" viewBox="0 0 16.928 16.251">
  <g id="depth" transform="translate(-4.688 -3.437)">
    <path id="Path_325" data-name="Path 325" d="M18.644,3.438A4.516,4.516,0,0,0,16.3,4.585a6.093,6.093,0,0,0-2.677-1.147,6.05,6.05,0,0,0-2.534,1.147A4.218,4.218,0,0,0,8.846,3.438c-.908,0-2.629,1.147-3.059,1.338a.83.83,0,0,0-.1.717.765.765,0,0,0,.526.191.351.351,0,0,0,.287-.1,7.891,7.891,0,0,1,2.437-1.1,4.316,4.316,0,0,1,1.864,1.1q.287.359.574,0a6.5,6.5,0,0,1,2.389-1.1,7.039,7.039,0,0,1,2.438,1.1.708.708,0,0,0,.622,0c.382-.287,1.386-1.1,1.912-1.1a5.41,5.41,0,0,1,2.055,1.1c.191.239.478.1.717-.1a.531.531,0,0,0-.1-.717c-.239-.1-1.673-1.338-2.772-1.338ZM15.681,15.195l-1.912,2.438V8.647l1.816,2.581a.725.725,0,0,0,.382.191.4.4,0,0,0,.334-.1c.191-.239.287-.526.1-.717l-2.629-3.68a.58.58,0,0,0-.86,0l-2.82,3.585c-.239.191-.1.477.1.717a.5.5,0,0,0,.717-.144l1.815-2.342v8.89L11,15.195c-.191-.191-.525-.334-.717-.1a.525.525,0,0,0-.1.717l2.629,3.632a.5.5,0,0,0,.43.239.425.425,0,0,0,.382-.239l2.868-3.537a.547.547,0,0,0-.813-.717ZM20.46,7.452H17.4a.452.452,0,0,0-.478.479.466.466,0,0,0,.478.525H20.46a.478.478,0,0,0,.525-.526.466.466,0,0,0-.526-.477Zm0,4.063H17.4a.466.466,0,0,0-.478.526.451.451,0,0,0,.478.477H20.46a.466.466,0,0,0,.525-.477.478.478,0,0,0-.526-.526Zm0,4.063H17.4a.528.528,0,0,0,0,1.051H20.46a.526.526,0,0,0,0-1.052ZM8.225,7.453H5.166a.451.451,0,0,0-.478.477.466.466,0,0,0,.478.526H8.225A.478.478,0,0,0,8.75,7.93a.466.466,0,0,0-.526-.477Zm0,4.062H5.166a.466.466,0,0,0-.478.526.451.451,0,0,0,.478.477H8.225a.466.466,0,0,0,.525-.477.478.478,0,0,0-.526-.526Zm0,4.063H5.166a.528.528,0,0,0,0,1.051H8.225a.526.526,0,0,0,0-1.052Z" fill="#dcbb6a"/>
  </g>
</svg>
