<svg xmlns="http://www.w3.org/2000/svg" width="33.107" height="33.107" viewBox="0 0 33.107 33.107">
  <path id="dive-center" d="M31.167,17.755V4.85A4.85,4.85,0,0,0,26.318,0H23.279a4.858,4.858,0,0,0-4.752,3.88H3.905a.986.986,0,0,0-.989.86A.97.97,0,0,0,3.88,5.82h.97V7.97A5.829,5.829,0,0,0,0,13.708V32.137a.97.97,0,0,0,.97.97h9.7a.97.97,0,0,0,.97-.97V13.708A5.829,5.829,0,0,0,6.79,7.97V5.82H18.429V7.97a5.829,5.829,0,0,0-4.85,5.738V32.137a.97.97,0,0,0,.97.97h9.7a.97.97,0,0,0,.97-.97V13.708a5.829,5.829,0,0,0-4.85-5.738V5.82h.944a.986.986,0,0,0,.989-.86.97.97,0,0,0-.964-1.08h-.8a2.914,2.914,0,0,1,2.743-1.94h3.039a2.91,2.91,0,0,1,2.91,2.91V17.755a2.91,2.91,0,1,0,1.94,0ZM9.7,25.348H1.94v-9.7H9.7Zm-7.76,5.82v-3.88H9.7v3.88ZM9.7,13.708H1.94a3.88,3.88,0,0,1,7.76,0ZM23.279,25.348h-7.76v-9.7h7.76Zm-7.76,5.82v-3.88h7.76v3.88Zm7.76-17.459h-7.76a3.88,3.88,0,0,1,7.76,0ZM30.2,21.461a.97.97,0,1,1,.97-.97A.971.971,0,0,1,30.2,21.461Z" fill="#dcbb6a"/>
</svg>
