<svg xmlns="http://www.w3.org/2000/svg" width="48.542" height="24.328" viewBox="0 0 48.542 24.328">
  <g id="family-bed" transform="translate(-1511.632 -689.276)">
    <g id="Group_742" data-name="Group 742">
      <path id="Path_2407" data-name="Path 2407" d="M1542.64,713.1V702.541a2,2,0,0,1,2-2h13.034a2,2,0,0,1,2,2V713.1" fill="none" stroke="#000" stroke-linecap="round" stroke-linejoin="round" stroke-width="1"/>
      <line id="Line_23" data-name="Line 23" x2="17.034" transform="translate(1542.64 705.028)" fill="none" stroke="#000" stroke-linecap="round" stroke-linejoin="round" stroke-width="1"/>
      <line id="Line_24" data-name="Line 24" x2="17.034" transform="translate(1542.64 709.512)" fill="none" stroke="#000" stroke-linecap="round" stroke-linejoin="round" stroke-width="1"/>
      <path id="Rectangle_175" data-name="Rectangle 175" d="M2,0h9.446a2,2,0,0,1,2,2v8.765a0,0,0,0,1,0,0H0a0,0,0,0,1,0,0V2A2,2,0,0,1,2,0Z" transform="translate(1544.436 689.776)" fill="none" stroke="#000" stroke-linecap="round" stroke-linejoin="round" stroke-width="1"/>
      <path id="Rectangle_176" data-name="Rectangle 176" d="M.5,0H5.776a.5.5,0,0,1,.5.5V5.387a0,0,0,0,1,0,0H0a0,0,0,0,1,0,0V.5A.5.5,0,0,1,.5,0Z" transform="translate(1548.015 695.154)" fill="none" stroke="#000" stroke-linecap="round" stroke-linejoin="round" stroke-width="1"/>
    </g>
    <g id="Group_743" data-name="Group 743">
      <path id="Path_2408" data-name="Path 2408" d="M1512.132,713.1V702.541a2,2,0,0,1,2-2h22.913a2,2,0,0,1,2,2V713.1" fill="none" stroke="#000" stroke-linecap="round" stroke-linejoin="round" stroke-width="1"/>
      <line id="Line_25" data-name="Line 25" x2="26.913" transform="translate(1512.132 705.028)" fill="none" stroke="#000" stroke-linecap="round" stroke-linejoin="round" stroke-width="1"/>
      <line id="Line_26" data-name="Line 26" x2="26.913" transform="translate(1512.132 709.512)" fill="none" stroke="#000" stroke-linecap="round" stroke-linejoin="round" stroke-width="1"/>
      <path id="Rectangle_177" data-name="Rectangle 177" d="M2,0H21.325a2,2,0,0,1,2,2v8.765a0,0,0,0,1,0,0H0a0,0,0,0,1,0,0V2A2,2,0,0,1,2,0Z" transform="translate(1513.928 689.776)" fill="none" stroke="#000" stroke-linecap="round" stroke-linejoin="round" stroke-width="1"/>
      <path id="Rectangle_178" data-name="Rectangle 178" d="M.5,0H5.78a.5.5,0,0,1,.5.5V5.38a0,0,0,0,1,0,0H0a0,0,0,0,1,0,0V.5A.5.5,0,0,1,.5,0Z" transform="translate(1517.519 695.162)" fill="none" stroke="#000" stroke-linecap="round" stroke-linejoin="round" stroke-width="1"/>
      <path id="Rectangle_179" data-name="Rectangle 179" d="M.5,0H5.776a.5.5,0,0,1,.5.5V5.387a0,0,0,0,1,0,0H0a0,0,0,0,1,0,0V.5A.5.5,0,0,1,.5,0Z" transform="translate(1527.386 695.154)" fill="none" stroke="#000" stroke-linecap="round" stroke-linejoin="round" stroke-width="1"/>
    </g>
  </g>
</svg>
