<svg xmlns="http://www.w3.org/2000/svg" width="40.035" height="35.188" viewBox="0 0 40.035 35.188">
  <path id="food" d="M38.862,21.1h-1.29A17.6,17.6,0,0,0,23.216,4.973a3.469,3.469,0,0,0,.3-1.8,3.519,3.519,0,1,0-6.7,1.8A17.6,17.6,0,0,0,2.463,21.1H1.173A1.171,1.171,0,0,0,0,22.277H0A1.171,1.171,0,0,0,1.173,23.45h1.7L5,27.712a.781.781,0,0,0,.7.43H16.045l-1.564,4.692h-1.5a1.171,1.171,0,0,0-1.173,1.173h0a1.171,1.171,0,0,0,1.173,1.173H27.055a1.171,1.171,0,0,0,1.173-1.173h0a1.171,1.171,0,0,0-1.173-1.173h-1.5L23.99,28.142H34.335a.764.764,0,0,0,.7-.43l2.127-4.262h1.7a1.171,1.171,0,0,0,1.173-1.173h0A1.171,1.171,0,0,0,38.862,21.1ZM18.845,3.511a1.173,1.173,0,1,1,1.173,1.173A1.171,1.171,0,0,1,18.845,3.511Zm1.173,3.519A15.268,15.268,0,0,1,35.219,21.1H4.817A15.268,15.268,0,0,1,20.018,7.029Zm3.065,25.8h-6.13l1.564-4.692h3ZM33.076,25.8H6.959a.473.473,0,0,1-.422-.258L5.5,23.45H34.546l-1.04,2.088A.494.494,0,0,1,33.076,25.8Z" transform="translate(0 0.009)" fill="#fff"/>
</svg>
