<svg xmlns="http://www.w3.org/2000/svg" width="306.056" height="269" viewBox="0 0 306.056 269">
  <path id="food-bg" d="M297.09,161.393h-9.863A134.568,134.568,0,0,0,177.477,38.074a26.517,26.517,0,0,0,2.331-13.749A26.9,26.9,0,1,0,128.58,38.074,134.569,134.569,0,0,0,18.83,161.393H8.966A8.955,8.955,0,0,0,0,170.36H0a8.954,8.954,0,0,0,8.966,8.966H21.938L38.257,211.9a5.972,5.972,0,0,0,5.32,3.288h79.085l-11.955,35.866H99.229a8.954,8.954,0,0,0-8.966,8.966h0a8.955,8.955,0,0,0,8.966,8.967h107.6a8.955,8.955,0,0,0,8.966-8.967h0a8.954,8.954,0,0,0-8.966-8.966H195.35l-11.955-35.866h79.084a5.84,5.84,0,0,0,5.32-3.288l16.259-32.578H297.09a8.954,8.954,0,0,0,8.966-8.966h0A8.954,8.954,0,0,0,297.09,161.393ZM144.062,26.9a8.966,8.966,0,1,1,8.966,8.966A8.954,8.954,0,0,1,144.062,26.9Zm8.966,26.9a116.72,116.72,0,0,1,116.206,107.6H36.822A116.72,116.72,0,0,1,153.028,53.8Zm23.432,197.263H129.6l11.955-35.866h22.954Zm76.395-53.8H53.2a3.614,3.614,0,0,1-3.228-1.973l-7.95-15.96h222.07l-7.95,15.96A3.776,3.776,0,0,1,252.855,197.259Z" transform="translate(0 0.009)" fill="#fff" opacity="0.1"/>
</svg>
