<svg xmlns="http://www.w3.org/2000/svg" width="31.439" height="26" viewBox="0 0 31.439 26">
  <g id="hair-dryer" transform="translate(0 -37.819)">
    <g id="Group_822" data-name="Group 822" transform="translate(0 37.819)">
      <g id="Group_821" data-name="Group 821" transform="translate(0 0)">
        <path id="Path_2458" data-name="Path 2458" d="M46.8,89.65a4.631,4.631,0,1,0,4.631-4.631A4.646,4.646,0,0,0,46.8,89.65Zm8.341,0a3.71,3.71,0,1,1-3.71-3.71A3.719,3.719,0,0,1,55.141,89.65Z" transform="translate(-43.435 -81.625)" fill="#dcbb6a"/>
        <path id="Path_2459" data-name="Path 2459" d="M21.83,40.925C21.657,40.81,17.285,37.819,8,37.819A7.98,7.98,0,0,0,2.589,51.682v8.082a4.041,4.041,0,1,0,8.082,0V57l2.761-3.336a.261.261,0,0,0,.086-.2c5.465-.748,8.139-2.387,8.283-2.5a.459.459,0,0,0,.23-.4V41.3A.492.492,0,0,0,21.83,40.925ZM6.155,62.841a3.125,3.125,0,0,1-2.617-3.077V52.458a8.25,8.25,0,0,0,2.617,1.15Zm3.566-3.049A3.092,3.092,0,0,1,7.1,62.841v-9.06c.288.029.6.058.892.058.6,0,1.179,0,1.726-.029Zm.949-4.285V53.724c.546-.029,1.064-.086,1.553-.115ZM21.082,50.3C20.1,50.819,15.761,52.89,8,52.89A7.061,7.061,0,0,1,8,38.768c7.881,0,12.137,2.243,13.086,2.79Z" transform="translate(0 -37.819)" fill="#dcbb6a"/>
        <path id="Path_2460" data-name="Path 2460" d="M332.793,172.828a2.1,2.1,0,0,1-1.5-.6,3.065,3.065,0,0,0-4.142,0,2.1,2.1,0,0,1-1.5.6.46.46,0,0,0,0,.92,3.009,3.009,0,0,0,2.071-.805,2.154,2.154,0,0,1,2.991,0,3.009,3.009,0,0,0,2.071.805.454.454,0,0,0,.46-.46A.423.423,0,0,0,332.793,172.828Z" transform="translate(-301.817 -161.813)" fill="#dcbb6a"/>
        <path id="Path_2461" data-name="Path 2461" d="M332.793,134.028a2.1,2.1,0,0,1-1.5-.6,3.065,3.065,0,0,0-4.142,0,2.1,2.1,0,0,1-1.5.6.46.46,0,0,0,0,.92,3.009,3.009,0,0,0,2.071-.805,2.154,2.154,0,0,1,2.991,0,3.009,3.009,0,0,0,2.071.805.454.454,0,0,0,.46-.46A.423.423,0,0,0,332.793,134.028Z" transform="translate(-301.817 -125.803)" fill="#dcbb6a"/>
        <path id="Path_2462" data-name="Path 2462" d="M325.66,96.149a3.009,3.009,0,0,0,2.071-.805,2.154,2.154,0,0,1,2.991,0,3.009,3.009,0,0,0,2.071.805.454.454,0,0,0,.46-.46.437.437,0,0,0-.46-.46,2.1,2.1,0,0,1-1.5-.6,3.065,3.065,0,0,0-4.142,0,2.1,2.1,0,0,1-1.5.6.46.46,0,0,0,0,.92Z" transform="translate(-301.817 -89.792)" fill="#dcbb6a"/>
      </g>
    </g>
  </g>
</svg>
