<svg xmlns="http://www.w3.org/2000/svg" width="49.42" height="32.045" viewBox="0 0 49.42 32.045">
  <path id="header-beam" d="M48.443,30.111A5.535,5.535,0,0,1,44.4,28.352a.946.946,0,0,0-1.348-.062l-.062.062a5.555,5.555,0,0,1-2.983,1.667l2.9-10.287a.957.957,0,0,0-.576-1.214l-2.767-1.029V12.931a4.053,4.053,0,0,0-4.043-4.053h-.545V3.446A3.446,3.446,0,0,0,31.489,0H17.92a3.457,3.457,0,0,0-3.446,3.446V8.878H13.9a4.043,4.043,0,0,0-4.053,4.053v4.557L7.088,18.517A.967.967,0,0,0,6.5,19.68L9.413,29.967A5.493,5.493,0,0,1,6.419,28.29a.957.957,0,0,0-1.358-.051v.051A5.493,5.493,0,0,1,.967,30.111a.967.967,0,1,0,0,1.934A7.541,7.541,0,0,0,5.72,30.327a7.438,7.438,0,0,0,9.5,0,7.438,7.438,0,0,0,9.5,0,7.438,7.438,0,0,0,9.5,0,7.438,7.438,0,0,0,9.5,0,7.541,7.541,0,0,0,4.753,1.718.967.967,0,1,0,0-1.934ZM17.92,1.934H31.489A1.5,1.5,0,0,1,33,3.436V4.465H28.66a.967.967,0,1,0,0,1.924H33v2.49H16.46V6.368H20.8a.967.967,0,1,0,0-1.924H16.46V3.415A1.512,1.512,0,0,1,17.972,1.9Zm-6.172,11a2.119,2.119,0,0,1,2.119-2.119h21.6A2.129,2.129,0,0,1,37.6,12.931v3.806L25.05,11.882a.885.885,0,0,0-.689,0L11.779,16.737ZM31.983,23.29l7.109,2.747L37.97,30.029a5.617,5.617,0,0,1-3.086-1.677.946.946,0,0,0-1.348-.062l-.062.062a5.493,5.493,0,0,1-7.767.3l.01-.051V22.015a.967.967,0,1,0-1.924,0V28.6a5.5,5.5,0,0,1-7.777-.2v-.062a.967.967,0,0,0-1.358-.051l-.051.051a5.514,5.514,0,0,1-3.086,1.687l-1.234-4,7.006-2.7a1.029,1.029,0,0,0,.556-1.255.957.957,0,0,0-1.245-.545L9.773,24.165,8.61,20.05l16.1-6.172,16.1,6.172-1.162,4.115L32.693,21.48a.957.957,0,0,0-1.255.556.967.967,0,0,0,.545,1.255ZM23.753,5.4a.4.4,0,1,1-.01,0Zm1.965,12.746a.993.993,0,1,0-.072,0Z" transform="translate(0 0)" fill="#dcbb6a"/>
</svg>
