<svg xmlns="http://www.w3.org/2000/svg" width="44.073" height="40.096" viewBox="0 0 44.073 40.096">
  <g id="kite-surf" transform="translate(1 1)">
    <path id="Path_6" data-name="Path 6" d="M-1418.784,541.231a.554.554,0,0,1,.025-.478.556.556,0,0,1,.387-.281l1.024-.189a8.715,8.715,0,0,1,1.575-.141c3.766,0,8.158,2.328,12.367,6.555a53.1,53.1,0,0,1,10.36,15.726l.578,1.308-14.506,6.008Z" transform="translate(1434.541 -540.142)" fill="none" stroke="#dcbb6a" stroke-linecap="round" stroke-linejoin="round" stroke-width="2"/>
    <ellipse id="Ellipse_1" data-name="Ellipse 1" cx="3.101" cy="3.101" rx="3.101" ry="3.101" transform="translate(0 5.13)" fill="none" stroke="#dcbb6a" stroke-linecap="round" stroke-linejoin="round" stroke-width="2"/>
    <path id="Path_7" data-name="Path 7" d="M-1473.4,606.839l-5.174,2.67h-8.039l4.59,8.9h8.623l5.23,5.619" transform="translate(1489.723 -594.435)" fill="none" stroke="#dcbb6a" stroke-linecap="round" stroke-linejoin="round" stroke-width="2"/>
    <path id="Path_8" data-name="Path 8" d="M-1500.09,723.686a7.874,7.874,0,0,0,6.834,3.96,7.88,7.88,0,0,0,6.8-3.893,7.873,7.873,0,0,0,6.794,3.893,7.881,7.881,0,0,0,6.8-3.892,7.873,7.873,0,0,0,6.8,3.892,7.875,7.875,0,0,0,6.834-3.96" transform="translate(1500.687 -689.55)" fill="none" stroke="#dcbb6a" stroke-linecap="round" stroke-linejoin="round" stroke-width="2"/>
  </g>
</svg>
