<svg xmlns="http://www.w3.org/2000/svg" xmlns:xlink="http://www.w3.org/1999/xlink" width="186.827" height="56" viewBox="0 0 186.827 56">
  <defs>
    <linearGradient id="linear-gradient" x1="0.5" y1="1.018" x2="0.5" y2="-0.026" gradientUnits="objectBoundingBox">
      <stop offset="0" stop-color="#9f7723"/>
      <stop offset="1" stop-color="#e1c467"/>
    </linearGradient>
    <linearGradient id="linear-gradient-2" x1="0.5" y1="0.972" x2="0.5" y2="0.021" xlink:href="#linear-gradient"/>
    <linearGradient id="linear-gradient-3" x1="0.5" y1="2.586" x2="0.5" y2="0.244" xlink:href="#linear-gradient"/>
    <linearGradient id="linear-gradient-4" x1="0.5" y1="2.545" x2="0.5" y2="0.235" xlink:href="#linear-gradient"/>
    <linearGradient id="linear-gradient-5" x1="0.5" y1="2.5" x2="0.5" y2="0.285" xlink:href="#linear-gradient"/>
    <linearGradient id="linear-gradient-6" x1="0.5" y1="2.627" x2="0.5" y2="0.224" xlink:href="#linear-gradient"/>
    <linearGradient id="linear-gradient-7" x1="0.5" y1="2.584" x2="0.5" y2="0.245" xlink:href="#linear-gradient"/>
    <linearGradient id="linear-gradient-9" x1="0.5" y1="2.581" x2="0.5" y2="0.246" xlink:href="#linear-gradient"/>
    <linearGradient id="linear-gradient-10" x1="0.5" y1="2.543" x2="0.5" y2="0.236" xlink:href="#linear-gradient"/>
    <linearGradient id="linear-gradient-11" x1="0.5" y1="1.161" x2="0.5" y2="-1.148" xlink:href="#linear-gradient"/>
    <linearGradient id="linear-gradient-12" x1="0.5" y1="0.915" x2="0.5" y2="-0.935" xlink:href="#linear-gradient"/>
    <linearGradient id="linear-gradient-13" x1="0.5" y1="1.165" x2="0.5" y2="-1.191" xlink:href="#linear-gradient"/>
    <linearGradient id="linear-gradient-14" x1="0.5" y1="1.188" x2="0.5" y2="-1.214" xlink:href="#linear-gradient"/>
    <linearGradient id="linear-gradient-17" x1="0.5" y1="1.161" x2="0.5" y2="-1.145" xlink:href="#linear-gradient"/>
    <linearGradient id="linear-gradient-19" x1="0.5" y1="-1.42" x2="0.5" y2="0.949" xlink:href="#linear-gradient"/>
    <linearGradient id="linear-gradient-21" x1="0.5" y1="-1.408" x2="0.5" y2="0.941" xlink:href="#linear-gradient"/>
    <linearGradient id="linear-gradient-22" x1="0.5" y1="-1.496" x2="0.5" y2="0.967" xlink:href="#linear-gradient"/>
    <linearGradient id="linear-gradient-23" x1="0.5" y1="-1.427" x2="0.5" y2="0.968" xlink:href="#linear-gradient"/>
    <linearGradient id="linear-gradient-24" x1="0.5" y1="-1.416" x2="0.5" y2="0.949" xlink:href="#linear-gradient"/>
    <linearGradient id="linear-gradient-25" x1="0.5" y1="-1.496" x2="0.5" y2="0.967" xlink:href="#linear-gradient"/>
    <linearGradient id="linear-gradient-26" x1="0.5" y1="-1.27" x2="0.5" y2="0.849" xlink:href="#linear-gradient"/>
    <linearGradient id="linear-gradient-29" x1="0.5" y1="-1.421" x2="0.5" y2="0.95" xlink:href="#linear-gradient"/>
    <linearGradient id="linear-gradient-30" x1="0.5" y1="-1.434" x2="0.5" y2="0.968" xlink:href="#linear-gradient"/>
    <linearGradient id="linear-gradient-31" x1="0.5" y1="-1.913" x2="0.5" y2="0.962" xlink:href="#linear-gradient"/>
    <linearGradient id="linear-gradient-32" x1="0.5" y1="-1.515" x2="0.5" y2="0.784" xlink:href="#linear-gradient"/>
    <linearGradient id="linear-gradient-34" x1="0.5" y1="-1.792" x2="0.5" y2="0.963" xlink:href="#linear-gradient"/>
  </defs>
  <g id="Group_636" data-name="Group 636" transform="translate(-78.049 -407.322)">
    <g id="Group_633" data-name="Group 633" transform="translate(78.049 407.322)">
      <path id="Path_2277" data-name="Path 2277" d="M102.758,446.451c.2-.406.391-.816.592-1.223a28.636,28.636,0,0,0,2.689-8.751,35.784,35.784,0,0,0,.252-8.229c-.178-2.088-.389-4.174-.694-6.248a35.852,35.852,0,0,0-1.933-7.371,8.316,8.316,0,0,1-.422-1.5c-.288-1.674.765-2.69,2.388-2.184a11.8,11.8,0,0,1,2.825,1.384,41.53,41.53,0,0,1,7.23,6.075c1.864,1.918,3.584,3.974,5.292,6.035a43.7,43.7,0,0,1,4.865,7.1,16.815,16.815,0,0,1,2.061,10.931,10.048,10.048,0,0,1-4.332,6.663,14.692,14.692,0,0,1-3.684,1.887,8.069,8.069,0,0,0-.986.416c-.134.072-.318.035-.318.375s.272.234.43.273c.391.1.8.1,1.183.22a5.094,5.094,0,0,1,1.41.612,1.331,1.331,0,0,1-.024,2.12,4.509,4.509,0,0,1-2.694.819c-1.6.075-3.213.045-4.817.125a36.318,36.318,0,0,0-6.869.685,2.263,2.263,0,0,0-.748.278c-.209.148-.515.429-.483.594a.956.956,0,0,0,.58.562,5.372,5.372,0,0,0,1.355.24,24.349,24.349,0,0,0,5.016-.375c.7-.1,1.416-.117,2.13-.154a.675.675,0,0,1,.763.418.71.71,0,0,1-.258.881,17.777,17.777,0,0,1-2.235,1.056c-.639.239-1.325.341-1.986.525-.3.085-.741.111-.726.524.016.43.471.368.773.445.1.024,1.161.089,1.258.1a3.425,3.425,0,0,1-.969.1,4.205,4.205,0,0,1-1.195-.155.514.514,0,0,1-.016-.917,5.365,5.365,0,0,1,1.206-.545c.892-.33,1.8-.621,2.685-.955a1.817,1.817,0,0,0,.566-.426c.081-.081.13-.088.13-.336s-.22-.17-.329-.159c-.751.074-1.5.141-2.249.266a18.721,18.721,0,0,1-5.72.335,3.412,3.412,0,0,1-1.249-.43,1.159,1.159,0,0,1-.183-1.955,4.8,4.8,0,0,1,1.917-.865,46.682,46.682,0,0,1,4.724-.645c1.777-.154,3.566-.165,5.345-.283a21.327,21.327,0,0,0,2.424-.345c.175-.033.474-.071.474-.39s-.281-.371-.462-.421a5.1,5.1,0,0,0-1.184-.173,56.453,56.453,0,0,0-8.94.562,53.668,53.668,0,0,1-9.256.559,8.848,8.848,0,0,1-2.517-.5,1.69,1.69,0,0,1-.549-2.828,4.282,4.282,0,0,1,2.679-1.085,28.937,28.937,0,0,1,3.464-.265c3.053-.019,6.1.051,9.152.037a17.525,17.525,0,0,0,7.905-1.754,8.916,8.916,0,0,0,4.854-5.215,11.368,11.368,0,0,0,.28-5.477,18.247,18.247,0,0,0-2.294-5.968,60.074,60.074,0,0,0-7.452-10.112,48.24,48.24,0,0,0-8.617-7.862,7.848,7.848,0,0,0-1.351-.781,1.068,1.068,0,0,0-.868,0c-.155.1-.182.545-.12.8.369,1.548.874,3.068,1.163,4.629.41,2.206.771,4.43.965,6.661a66.783,66.783,0,0,1,.181,6.685,31.173,31.173,0,0,1-1.382,8.471,27.478,27.478,0,0,1-2.081,5.07c-.264.491-.584.954-.874,1.431Zm4.96,5.963c.081-.086.152-.041.008-.185s-.343-.1-.513-.117c-.668-.05-1.345-.023-2-.135a18.347,18.347,0,0,0-4.483.092c-.252.017-.7.28-.69.391.041.392.45.345.746.364a29.915,29.915,0,0,0,6.439-.269A1.14,1.14,0,0,0,107.718,452.413Z" transform="translate(-83.37 -408.315)" fill-rule="evenodd" fill="url(#linear-gradient)"/>
      <g id="Group_632" data-name="Group 632">
        <path id="Path_2278" data-name="Path 2278" d="M106.046,463.322a28,28,0,1,1,28-28A28.03,28.03,0,0,1,106.046,463.322Zm0-52.468a24.468,24.468,0,1,0,24.471,24.469A24.5,24.5,0,0,0,106.046,410.854Z" transform="translate(-78.049 -407.322)" fill="url(#linear-gradient-2)"/>
      </g>
    </g>
    <g id="Group_634" data-name="Group 634" transform="translate(145.981 411.219)">
      <path id="Path_2279" data-name="Path 2279" d="M173.727,427.447a1.162,1.162,0,0,0,.853-.355,1.237,1.237,0,0,0,.375-.854V415.556a1.2,1.2,0,0,0-.633-1,1.244,1.244,0,0,0-.595-.154h-.25v-.191h7.346a8.138,8.138,0,0,0,1.3-.116,5.324,5.324,0,0,0,1-.23v3.356h-.192v-.23a1.917,1.917,0,0,0-.509-1.39,1.945,1.945,0,0,0-1.371-.566h-3.223v5.581h2.532a1.632,1.632,0,0,0,1.17-.489,1.592,1.592,0,0,0,.461-1.161V418.8h.191v4.43h-.191v-.153a1.541,1.541,0,0,0-.768-1.42,1.889,1.889,0,0,0-.844-.23h-2.551v5.389h2.513a3.505,3.505,0,0,0,2.35-.806,4.757,4.757,0,0,0,1.41-2.282h.192l-.882,3.913h-9.935v-.192Z" transform="translate(-173.132 -413.082)" fill="url(#linear-gradient-3)"/>
      <path id="Path_2280" data-name="Path 2280" d="M207.785,421.435H207.5a1.039,1.039,0,0,0-.71.221.812.812,0,0,0-.25.643v3.165a6.094,6.094,0,0,1-2.474,1.726,9.635,9.635,0,0,1-3.874.748,7.32,7.32,0,0,1-5.265-1.889,7.535,7.535,0,0,1,0-10.194,7.505,7.505,0,0,1,5.38-1.88,14.6,14.6,0,0,1,2.973.3,9.642,9.642,0,0,1,2.32.738l.039,3.3h-.172a4.55,4.55,0,0,0-1.707-2.695,4.933,4.933,0,0,0-2.876-.834,4.2,4.2,0,0,0-3.568,1.659,7.406,7.406,0,0,0-1.246,4.545,7.773,7.773,0,0,0,1.141,4.518,3.711,3.711,0,0,0,3.232,1.63,3.779,3.779,0,0,0,2.532-.863,2.656,2.656,0,0,0,.728-1.035V422.3a.8.8,0,0,0-.259-.643,1.109,1.109,0,0,0-.738-.221h-.307v-.191h5.39Z" transform="translate(-178.669 -413.112)" fill="url(#linear-gradient-4)"/>
      <path id="Path_2281" data-name="Path 2281" d="M213.956,412.788c.2-.014.527-.019.968-.019a7.405,7.405,0,0,1,1.746.278,6.793,6.793,0,0,1,2,.873,8.568,8.568,0,0,1,1.688,1.439,11.4,11.4,0,0,1,2.224,3.778,12.481,12.481,0,0,1,2.993-5.025,4.4,4.4,0,0,1,3.087-1.324h.154v.191a3.041,3.041,0,0,0-1.985,1.007,9.849,9.849,0,0,0-1.794,2.388,19.133,19.133,0,0,0-1.3,2.915,11.113,11.113,0,0,0-.623,2.628v4.008a1.228,1.228,0,0,0,1.228,1.208h.25v.192H218.77v-.192h.25a1.162,1.162,0,0,0,.853-.355,1.233,1.233,0,0,0,.374-.854V421.9a13.254,13.254,0,0,0-1.381-4.392,9.7,9.7,0,0,0-2.973-3.816,3.615,3.615,0,0,0-1.937-.71Z" transform="translate(-184.649 -412.769)" fill="url(#linear-gradient-5)"/>
      <path id="Path_2282" data-name="Path 2282" d="M248.335,419.855a3.729,3.729,0,0,1-2.417,2.071,3.018,3.018,0,0,1-.958.173,4.313,4.313,0,0,1-2.436-.71V421.2a2.861,2.861,0,0,0,2.32-.94,3.1,3.1,0,0,0,.787-2.205,2.45,2.45,0,0,0-2.474-2.9h-1.286v11.219a1.147,1.147,0,0,0,.365.854,1.193,1.193,0,0,0,.863.355h.25v.192h-5.831v-.192h.25a1.163,1.163,0,0,0,.854-.355,1.239,1.239,0,0,0,.374-.854V415.655a1.184,1.184,0,0,0-.652-.959,1.137,1.137,0,0,0-.576-.154h-.25v-.191h6.406q3.472,0,4.45,2.205a4.337,4.337,0,0,1-.039,3.3Z" transform="translate(-191.353 -413.219)" fill="url(#linear-gradient-6)"/>
      <path id="Path_2283" data-name="Path 2283" d="M264.824,414.991V426.25a1.2,1.2,0,0,0,.373.844,1.178,1.178,0,0,0,.854.346h.23l.019.192h-5.83v-.192h.249a1.154,1.154,0,0,0,.834-.346,1.261,1.261,0,0,0,.393-.824V414.991h-2.589a1.843,1.843,0,0,0-1.918,1.957v.23h-.192v-3.337a4.712,4.712,0,0,0,.969.23,7.953,7.953,0,0,0,1.294.115h7.729a7.888,7.888,0,0,0,1.535-.153,5.94,5.94,0,0,0,.729-.192v3.337h-.192v-.23a1.843,1.843,0,0,0-1.918-1.957Z" transform="translate(-196.967 -413.074)" fill="url(#linear-gradient-7)"/>
      <path id="Path_2284" data-name="Path 2284" d="M278.782,427.585a1.164,1.164,0,0,0,.854-.355,1.233,1.233,0,0,0,.374-.854V415.731a1.2,1.2,0,0,0-.374-.844,1.181,1.181,0,0,0-.854-.346h-.249v-.191h5.83l-.019.191h-.23a1.209,1.209,0,0,0-.863.346,1.116,1.116,0,0,0-.365.844v10.645a1.147,1.147,0,0,0,.365.854,1.192,1.192,0,0,0,.863.355h.23l.019.192h-5.83v-.192Z" transform="translate(-203.023 -413.219)" fill="url(#linear-gradient-6)"/>
      <path id="Path_2285" data-name="Path 2285" d="M303.9,427.432h.172v.192h-6.118v-.192h.173a.74.74,0,0,0,.623-.259.814.814,0,0,0,.2-.489,1.194,1.194,0,0,0-.1-.461l-.939-2.359h-4.489l-1,2.359a1.3,1.3,0,0,0-.1.469.8.8,0,0,0,.2.48.763.763,0,0,0,.643.259h.152v.192h-4.1v-.192h.172a1.688,1.688,0,0,0,.883-.268,2.041,2.041,0,0,0,.728-.806l4.431-10.031a10.136,10.136,0,0,0,.959-2.513h.172l5.7,12.505a2.077,2.077,0,0,0,.728.834A1.667,1.667,0,0,0,303.9,427.432Zm-10.146-4.373h3.836l-1.861-4.718Z" transform="translate(-206.065 -413.066)" fill="url(#linear-gradient-9)"/>
      <path id="Path_2286" data-name="Path 2286" d="M327.725,414.427a1.142,1.142,0,0,0-.825.336,1.164,1.164,0,0,0-.364.815v9.9a11.5,11.5,0,0,0,.172,2.167l.057.288h-.172l-9.685-9.225v7.613a1.1,1.1,0,0,0,.345.816,1.146,1.146,0,0,0,.825.336h.365v.192h-5.811v-.192h.345a1.167,1.167,0,0,0,.844-.336,1.116,1.116,0,0,0,.346-.834v-9.954a10.753,10.753,0,0,0-.173-2.109l-.038-.288h.172l9.685,9.225V415.6a1.178,1.178,0,0,0-.364-.834,1.142,1.142,0,0,0-.825-.336h-.345v-.191h5.811v.191Z" transform="translate(-212.724 -413.104)" fill="url(#linear-gradient-10)"/>
      <path id="Path_2287" data-name="Path 2287" d="M188.032,447.17q.058.575.057,1.447a8.29,8.29,0,0,1-.345,2.129,5.192,5.192,0,0,1-1.246,2.215,6.583,6.583,0,0,1-5.063,1.975,9.217,9.217,0,0,1-6.176-1.928,6.735,6.735,0,0,1,.029-10.1,9.06,9.06,0,0,1,6.052-1.938,12.709,12.709,0,0,1,2.742.288,8.539,8.539,0,0,1,2.167.748l.039,3.3h-.154a4.75,4.75,0,0,0-1.093-2.052,4.851,4.851,0,0,0-3.721-1.477,4.718,4.718,0,0,0-3.769,1.669,7.52,7.52,0,0,0,.058,8.9,5.281,5.281,0,0,0,4.095,1.784,5.822,5.822,0,0,0,4.488-1.8,6.917,6.917,0,0,0,1.669-4.891v-.268Z" transform="translate(-172.995 -420.794)" fill="url(#linear-gradient-11)"/>
      <path id="Path_2288" data-name="Path 2288" d="M218.73,458.037a7.023,7.023,0,0,1-3.183.748,7.7,7.7,0,0,1-2.724-.461,9.257,9.257,0,0,1-4.508-3.817q-.48-.689-1.784-2.647t-1.687-2.493q-.672-1.055-1.075-1.151v-.192h.384a3.761,3.761,0,0,0,1.8-.441,2.657,2.657,0,0,0,1.246-2.551,2.779,2.779,0,0,0-.767-2.1,2.562,2.562,0,0,0-1.841-.739h-1.458v11.182a1.147,1.147,0,0,0,.365.854,1.192,1.192,0,0,0,.863.355h.249v.192h-5.83v-.192h.249a1.246,1.246,0,0,0,1.228-1.189V442.75a1.238,1.238,0,0,0-.374-.854,1.167,1.167,0,0,0-.854-.355h-.249v-.191h6.579a5.842,5.842,0,0,1,3.836,1.131,3.046,3.046,0,0,1,1.074,2.493,3.474,3.474,0,0,1-1.045,2.618,3.35,3.35,0,0,1-2.388,1.007,1.666,1.666,0,0,1-.25-.019,5.738,5.738,0,0,1,1.314.94q.527.518.92.978t.672.815q.277.355.738.94t.959,1.218q.5.633,1.1,1.3a11.929,11.929,0,0,0,1.342,1.256,8.407,8.407,0,0,0,1.505.979,8.014,8.014,0,0,0,3.587.844Z" transform="translate(-180.332 -420.901)" fill="url(#linear-gradient-12)"/>
      <path id="Path_2289" data-name="Path 2289" d="M235.777,441.542h-.326a1.032,1.032,0,0,0-.7.259.817.817,0,0,0-.3.642v7.48a4.876,4.876,0,0,1-1.477,3.741,5.692,5.692,0,0,1-4.047,1.38,7.041,7.041,0,0,1-4.641-1.352,4.631,4.631,0,0,1-1.611-3.751V442.5a.892.892,0,0,0-.3-.691,1.038,1.038,0,0,0-.72-.268h-.307v-.191h5.524v.191h-.307a1.023,1.023,0,0,0-.71.259.911.911,0,0,0-.307.662v7.327a4.85,4.85,0,0,0,1,3.221,3.386,3.386,0,0,0,2.742,1.19,3.539,3.539,0,0,0,2.762-1.123,4.426,4.426,0,0,0,1.036-3.039v-7.576a.837.837,0,0,0-.3-.662,1.058,1.058,0,0,0-.719-.259h-.306v-.191h4.008Z" transform="translate(-186.754 -420.901)" fill="url(#linear-gradient-13)"/>
      <path id="Path_2290" data-name="Path 2290" d="M246.748,454.585a1.164,1.164,0,0,0,.854-.355,1.233,1.233,0,0,0,.374-.854V442.731a1.2,1.2,0,0,0-.374-.844,1.181,1.181,0,0,0-.854-.346H246.5v-.191h5.83l-.019.191h-.23a1.212,1.212,0,0,0-.863.346,1.118,1.118,0,0,0-.364.844v10.645a1.149,1.149,0,0,0,.364.854,1.194,1.194,0,0,0,.863.355h.23l.019.192H246.5v-.192Z" transform="translate(-193.908 -420.901)" fill="url(#linear-gradient-14)"/>
      <path id="Path_2291" data-name="Path 2291" d="M260.332,452.886a4.456,4.456,0,0,1,.594-2.359h.173a2.321,2.321,0,0,0-.019.307,3.227,3.227,0,0,0,.949,2.31,3.432,3.432,0,0,0,2.6.988,2.992,2.992,0,0,0,2-.613,1.955,1.955,0,0,0,.719-1.554q0-1.131-1.534-1.975l-3.337-2.206a3.561,3.561,0,0,1-1.429-1.39,3.5,3.5,0,0,1-.432-1.659,3.463,3.463,0,0,1,1.142-2.781,4.335,4.335,0,0,1,2.925-.978,21.866,21.866,0,0,1,2.608.192H268.5l-.25,2.82h-.192a1.967,1.967,0,0,0-.738-1.6,3.009,3.009,0,0,0-1.966-.6,2.5,2.5,0,0,0-2.166.921,1.576,1.576,0,0,0-.346,1q0,.922,1.343,1.707l3.663,2.378a3.2,3.2,0,0,1,1.726,2.935,3.738,3.738,0,0,1-1.391,3.136,5.845,5.845,0,0,1-3.692,1.083,8.7,8.7,0,0,1-2.407-.316,3.6,3.6,0,0,1-1.621-.854A2.546,2.546,0,0,1,260.332,452.886Z" transform="translate(-197.844 -420.794)" fill="url(#linear-gradient-11)"/>
      <path id="Path_2292" data-name="Path 2292" d="M278.97,454.585a1.162,1.162,0,0,0,.853-.355,1.237,1.237,0,0,0,.375-.854V442.731a1.2,1.2,0,0,0-.375-.844,1.179,1.179,0,0,0-.853-.346h-.25v-.191h5.831l-.02.191h-.23a1.211,1.211,0,0,0-.863.346,1.116,1.116,0,0,0-.365.844v10.645a1.147,1.147,0,0,0,.365.854,1.193,1.193,0,0,0,.863.355h.23l.02.192H278.72v-.192Z" transform="translate(-203.076 -420.901)" fill="url(#linear-gradient-14)"/>
      <path id="Path_2293" data-name="Path 2293" d="M307.111,441.427a1.142,1.142,0,0,0-.825.336,1.158,1.158,0,0,0-.364.815v9.9a11.5,11.5,0,0,0,.172,2.167l.057.288h-.172l-9.685-9.225v7.613a1.1,1.1,0,0,0,.345.816,1.145,1.145,0,0,0,.825.336h.364v.192h-5.811v-.192h.346a1.164,1.164,0,0,0,.843-.336,1.114,1.114,0,0,0,.346-.834v-9.954a10.756,10.756,0,0,0-.173-2.109l-.038-.288h.172l9.685,9.225V442.6a1.176,1.176,0,0,0-.365-.834,1.141,1.141,0,0,0-.824-.336h-.345v-.191h5.811v.191Z" transform="translate(-206.859 -420.786)" fill="url(#linear-gradient-17)"/>
      <path id="Path_2294" data-name="Path 2294" d="M333.267,448.435h-.288a1.04,1.04,0,0,0-.71.221.814.814,0,0,0-.25.643v3.165a6.089,6.089,0,0,1-2.474,1.726,9.635,9.635,0,0,1-3.874.748,7.322,7.322,0,0,1-5.264-1.889,7.537,7.537,0,0,1,0-10.194,7.506,7.506,0,0,1,5.38-1.88,14.612,14.612,0,0,1,2.974.3,9.642,9.642,0,0,1,2.32.738l.039,3.3h-.173a4.545,4.545,0,0,0-1.706-2.694,4.934,4.934,0,0,0-2.877-.834,4.193,4.193,0,0,0-3.567,1.659,7.406,7.406,0,0,0-1.246,4.545,7.779,7.779,0,0,0,1.14,4.518,3.713,3.713,0,0,0,3.232,1.63,3.777,3.777,0,0,0,2.532-.863,2.65,2.65,0,0,0,.729-1.035V449.3a.8.8,0,0,0-.26-.643,1.108,1.108,0,0,0-.738-.221h-.307v-.191h5.39Z" transform="translate(-214.371 -420.794)" fill="url(#linear-gradient-11)"/>
    </g>
    <g id="Group_635" data-name="Group 635" transform="translate(145.732 451.204)">
      <path id="Path_2295" data-name="Path 2295" d="M179.516,471.558q.026.263.026.661a3.753,3.753,0,0,1-.158.973,2.369,2.369,0,0,1-.57,1.012,3.006,3.006,0,0,1-2.312.9,4.213,4.213,0,0,1-2.821-.881,3.076,3.076,0,0,1,.013-4.612,4.138,4.138,0,0,1,2.764-.885,5.813,5.813,0,0,1,1.253.131,3.9,3.9,0,0,1,.99.342l.017,1.507h-.069a2.165,2.165,0,0,0-.5-.937,2.215,2.215,0,0,0-1.7-.675,2.155,2.155,0,0,0-1.722.763,3.435,3.435,0,0,0,.026,4.065,2.411,2.411,0,0,0,1.871.815,2.659,2.659,0,0,0,2.05-.824,3.16,3.16,0,0,0,.762-2.234v-.122Z" transform="translate(-172.647 -468.675)" fill="url(#linear-gradient-19)"/>
      <path id="Path_2296" data-name="Path 2296" d="M187.786,468.728a3.711,3.711,0,0,1,2.576.859,3.322,3.322,0,0,1,0,4.661,4.291,4.291,0,0,1-5.152,0,2.974,2.974,0,0,1-.954-2.33,3.234,3.234,0,0,1,.434-1.7,2.832,2.832,0,0,1,1.231-1.108A4.234,4.234,0,0,1,187.786,468.728Zm-1.529,5.252a1.92,1.92,0,0,0,3.058,0,3.38,3.38,0,0,0,.565-2.063,4.026,4.026,0,0,0-.255-1.5,2.147,2.147,0,0,0-.726-.981,1.851,1.851,0,0,0-1.113-.342,1.809,1.809,0,0,0-1.529.758,4.048,4.048,0,0,0,0,4.126Z" transform="translate(-175.95 -468.675)" fill="url(#linear-gradient-19)"/>
      <path id="Path_2297" data-name="Path 2297" d="M203.945,474.9h.14v.087h-2.629V474.9h.132a.327.327,0,0,0,.255-.118.319.319,0,0,0,.087-.258l-.342-3.18-1.647,2.838a2.038,2.038,0,0,0-.333.973h-.088l-2.251-3.785-.342,3.154a.319.319,0,0,0,.087.258.326.326,0,0,0,.255.118h.132v.079H195.57V474.9h.14a.645.645,0,0,0,.425-.15.611.611,0,0,0,.215-.4l.727-5.616h.079l2.716,4.468,2.61-4.468h.079l.745,5.616a.647.647,0,0,0,.224.4A.631.631,0,0,0,203.945,474.9Z" transform="translate(-179.169 -468.675)" fill="url(#linear-gradient-21)"/>
      <path id="Path_2298" data-name="Path 2298" d="M214.066,471.413a1.7,1.7,0,0,1-1.1.947,1.378,1.378,0,0,1-.438.079,1.979,1.979,0,0,1-1.113-.323v-.088a1.309,1.309,0,0,0,1.06-.429,1.418,1.418,0,0,0,.359-1.007,1.12,1.12,0,0,0-1.13-1.324h-.587v5.126a.525.525,0,0,0,.166.39.551.551,0,0,0,.394.162h.114v.087h-2.663v-.087h.114a.535.535,0,0,0,.39-.162.567.567,0,0,0,.171-.39v-4.9a.543.543,0,0,0-.3-.438.528.528,0,0,0-.263-.07h-.114V468.9h2.926a1.978,1.978,0,0,1,2.033,1.008,1.972,1.972,0,0,1-.017,1.506Z" transform="translate(-183.026 -468.724)" fill="url(#linear-gradient-22)"/>
      <path id="Path_2299" data-name="Path 2299" d="M223.371,474.875h.079v.087h-2.795v-.087h.079a.34.34,0,0,0,.285-.119.371.371,0,0,0,.092-.223.539.539,0,0,0-.044-.21l-.429-1.078h-2.051l-.455,1.078a.611.611,0,0,0-.044.215.371.371,0,0,0,.092.219.35.35,0,0,0,.293.119h.071v.087h-1.875v-.087h.079a.77.77,0,0,0,.4-.123.928.928,0,0,0,.333-.368l2.023-4.581a4.652,4.652,0,0,0,.439-1.148h.079l2.6,5.712a.947.947,0,0,0,.333.381A.766.766,0,0,0,223.371,474.875Zm-4.635-2h1.751l-.849-2.156Z" transform="translate(-185.172 -468.654)" fill="url(#linear-gradient-23)"/>
      <path id="Path_2300" data-name="Path 2300" d="M234.253,468.934a.524.524,0,0,0-.377.154.534.534,0,0,0-.166.372v4.521a5.283,5.283,0,0,0,.079.99l.026.132h-.078l-4.425-4.215v3.478a.5.5,0,0,0,.157.373.523.523,0,0,0,.377.154h.166v.087h-2.654v-.087h.158a.534.534,0,0,0,.386-.154.513.513,0,0,0,.157-.381v-4.548a4.895,4.895,0,0,0-.079-.964l-.017-.131h.079l4.425,4.213v-3.46a.539.539,0,0,0-.167-.381.52.52,0,0,0-.376-.154h-.158v-.087h2.655v.087Z" transform="translate(-188.213 -468.672)" fill="url(#linear-gradient-24)"/>
      <path id="Path_2301" data-name="Path 2301" d="M245.142,468.986h-.122a.928.928,0,0,0-.5.149,1.233,1.233,0,0,0-.376.359l-1.726,2.752v2.146a.525.525,0,0,0,.166.39.548.548,0,0,0,.394.162h.105l.009.087h-2.664v-.087h.114a.542.542,0,0,0,.389-.158.55.55,0,0,0,.172-.386v-2.164l-1.674-2.75a1.079,1.079,0,0,0-.373-.355.948.948,0,0,0-.5-.145h-.122V468.9h2.9v.087h-.114a.33.33,0,0,0-.3.176.389.389,0,0,0-.053.187.4.4,0,0,0,.044.18l1.253,2.278,1.3-2.278a.348.348,0,0,0,.053-.18.317.317,0,0,0-.061-.18.33.33,0,0,0-.3-.184h-.105V468.9h2.085Z" transform="translate(-191.366 -468.724)" fill="url(#linear-gradient-25)"/>
      <path id="Path_2302" data-name="Path 2302" d="M253.828,472.5a2.141,2.141,0,0,0-.351,1.148,1.835,1.835,0,0,0,1.108,1.629,2.165,2.165,0,0,0,.854.166,1.914,1.914,0,0,0,.832-.175,1.217,1.217,0,0,0,.736-1.173,1.266,1.266,0,0,0-.205-.649,1.979,1.979,0,0,0-.617-.613l-1.49-1a1.611,1.611,0,0,1-.867-1.4c0-.059,0-.117.009-.176a1.565,1.565,0,0,1,.539-1.1,1.909,1.909,0,0,1,1.3-.424,10.072,10.072,0,0,1,1.21.088h.542l-.114,1.287h-.079a.918.918,0,0,0-.35-.731,1.392,1.392,0,0,0-.9-.276,1.155,1.155,0,0,0-.99.411.774.774,0,0,0-.149.456.61.61,0,0,0,.149.416,2.157,2.157,0,0,0,.473.373l1.638,1.068a2.563,2.563,0,0,1,.78.762,1.935,1.935,0,0,1,.333,1.061,2.14,2.14,0,0,1-.145.74,2.059,2.059,0,0,1-.473.723,2.508,2.508,0,0,1-.846.542,3,3,0,0,1-1.144.21,2.837,2.837,0,0,1-1.134-.219,1.953,1.953,0,0,1-1.192-1.375,1.8,1.8,0,0,1-.052-.439,2.214,2.214,0,0,1,.517-1.393Z" transform="translate(-195.575 -468.675)" fill="url(#linear-gradient-26)"/>
      <path id="Path_2303" data-name="Path 2303" d="M262.395,474.945a.535.535,0,0,0,.39-.162.566.566,0,0,0,.17-.39V469.53a.549.549,0,0,0-.17-.386.539.539,0,0,0-.39-.158h-.114V468.9h2.663l-.009.087h-.106a.553.553,0,0,0-.393.158.508.508,0,0,0-.167.386v4.862a.523.523,0,0,0,.167.39.548.548,0,0,0,.393.162h.106l.009.087h-2.663v-.087Z" transform="translate(-198.15 -468.724)" fill="url(#linear-gradient-22)"/>
      <path id="Path_2304" data-name="Path 2304" d="M274.979,468.934a.521.521,0,0,0-.376.154.528.528,0,0,0-.166.372v4.521a5.28,5.28,0,0,0,.079.99l.026.132h-.078l-4.425-4.215v3.478a.5.5,0,0,0,.158.373.521.521,0,0,0,.376.154h.167v.087h-2.654v-.087h.157a.533.533,0,0,0,.386-.154.51.51,0,0,0,.157-.381v-4.548a4.9,4.9,0,0,0-.079-.964l-.018-.131h.079l4.424,4.213v-3.46a.541.541,0,0,0-.166-.381.521.521,0,0,0-.377-.154h-.157v-.087h2.655v.087Z" transform="translate(-199.801 -468.672)" fill="url(#linear-gradient-24)"/>
      <path id="Path_2305" data-name="Path 2305" d="M283.5,475.1a3.889,3.889,0,0,1-2.654-.854,3.315,3.315,0,0,1-.009-4.665,3.786,3.786,0,0,1,2.619-.854,4.68,4.68,0,0,1,2.182.473l.017,1.507h-.07a1.958,1.958,0,0,0-2.041-1.612,1.981,1.981,0,0,0-1.634.749,3.18,3.18,0,0,0-.6,2.046,3.347,3.347,0,0,0,.573,2.058,1.914,1.914,0,0,0,1.555.789,2.162,2.162,0,0,0,1.55-.508,3.209,3.209,0,0,0,.754-1.8h.07l.088,1.506A2.572,2.572,0,0,1,283.5,475.1Z" transform="translate(-203.156 -468.675)" fill="url(#linear-gradient-29)"/>
      <path id="Path_2306" data-name="Path 2306" d="M290.694,474.882a.536.536,0,0,0,.39-.162.567.567,0,0,0,.17-.39v-4.88a.549.549,0,0,0-.289-.456.58.58,0,0,0-.271-.07h-.114v-.087h3.355a3.674,3.674,0,0,0,.6-.053,2.451,2.451,0,0,0,.456-.1v1.533H294.9v-.1a.84.84,0,0,0-.858-.894h-1.472v2.549h1.156a.749.749,0,0,0,.534-.223.726.726,0,0,0,.21-.53v-.079h.087v2.023h-.087v-.069a.7.7,0,0,0-.351-.649.878.878,0,0,0-.385-.105h-1.166v2.462h1.148a1.607,1.607,0,0,0,1.073-.368,2.173,2.173,0,0,0,.643-1.042h.088l-.4,1.787H290.58v-.087Z" transform="translate(-206.201 -468.661)" fill="url(#linear-gradient-30)"/>
      <path id="Path_2307" data-name="Path 2307" d="M304.478,474.82v-4.144a.443.443,0,0,0-.245-.4.5.5,0,0,0-.246-.062h-.175l-.009-.087h2.647v.087h-.184a.455.455,0,0,0-.412.228.444.444,0,0,0-.07.238v4.144a.448.448,0,0,0,.245.411.467.467,0,0,0,.237.062h.184v.087h-2.637v-.087H304a.47.47,0,0,0,.338-.141A.45.45,0,0,0,304.478,474.82Z" transform="translate(-209.963 -469.072)" fill="url(#linear-gradient-31)"/>
      <path id="Path_2308" data-name="Path 2308" d="M311.888,473.4a.836.836,0,0,0,.613-.254l.061.079a1.307,1.307,0,0,1-.438.438,1.585,1.585,0,0,1-.858.254,1.624,1.624,0,0,1-1.017-.351,1.408,1.408,0,0,1-.438-.582,2.153,2.153,0,0,1-.167-.872,2.04,2.04,0,0,1,.6-1.533,2.4,2.4,0,0,1,1.731-.587,2.221,2.221,0,0,1,1.735.683,2.988,2.988,0,0,1,.617,2.058,4.023,4.023,0,0,1-.964,2.787,2.822,2.822,0,0,1-1.17.788,4.253,4.253,0,0,1-1.476.255c-.1,0-.2,0-.306-.009l-.035-.061a3.623,3.623,0,0,0,1.813-1.1,3.2,3.2,0,0,0,.631-1.7,9.144,9.144,0,0,0,.052-1.052,5.233,5.233,0,0,0-.2-1.7.784.784,0,0,0-1.3-.31,1.816,1.816,0,0,0-.376,1.3q0,1.359.736,1.446A.742.742,0,0,0,311.888,473.4Z" transform="translate(-211.626 -469.034)" fill="url(#linear-gradient-32)"/>
      <path id="Path_2309" data-name="Path 2309" d="M320.815,473.4a.836.836,0,0,0,.613-.254l.061.079a1.313,1.313,0,0,1-.438.438,1.587,1.587,0,0,1-.858.254,1.623,1.623,0,0,1-1.017-.351,1.416,1.416,0,0,1-.439-.582,2.165,2.165,0,0,1-.166-.872,2.037,2.037,0,0,1,.6-1.533,2.4,2.4,0,0,1,1.731-.587,2.221,2.221,0,0,1,1.735.683,2.988,2.988,0,0,1,.617,2.058,4.02,4.02,0,0,1-.964,2.787,2.815,2.815,0,0,1-1.169.788,4.253,4.253,0,0,1-1.476.255c-.1,0-.2,0-.307-.009l-.034-.061a3.626,3.626,0,0,0,1.813-1.1,3.211,3.211,0,0,0,.631-1.7,9.306,9.306,0,0,0,.052-1.052,5.233,5.233,0,0,0-.2-1.7.784.784,0,0,0-1.3-.31,1.813,1.813,0,0,0-.376,1.3q0,1.359.736,1.446A.737.737,0,0,0,320.815,473.4Z" transform="translate(-214.165 -469.034)" fill="url(#linear-gradient-32)"/>
      <path id="Path_2310" data-name="Path 2310" d="M329.323,469.806a2.962,2.962,0,0,1,1.651.416,1.3,1.3,0,0,1,.635,1.143,1.676,1.676,0,0,1-.411,1.069,4.085,4.085,0,0,1-.548.574q-.241.2-.368.3c-.084.067-.2.152-.359.255l-.333.218c-.067.044-.177.113-.328.206s-.245.152-.28.175h1.813a1.1,1.1,0,0,0,.645-.18,1.793,1.793,0,0,0,.494-.592h.088l-.526,1.9h-4.2v-.079q.219-.228.617-.626c.265-.266.488-.489.666-.67s.379-.4.6-.657a6.342,6.342,0,0,0,.539-.693,2.431,2.431,0,0,0,.491-1.292,1.017,1.017,0,0,0-1.087-1.125,1.2,1.2,0,0,0-.977.4,1.666,1.666,0,0,0-.328,1.09h-.087l-.412-1.261a2.383,2.383,0,0,1,.881-.416A4.211,4.211,0,0,1,329.323,469.806Z" transform="translate(-216.646 -468.982)" fill="url(#linear-gradient-34)"/>
    </g>
  </g>
</svg>
