<svg id="menu" xmlns="http://www.w3.org/2000/svg" width="150" height="140" viewBox="0 0 150 140">
  <path id="XMLID_241_" d="M15,20H135c8.284,0,15-4.477,15-10S143.284,0,135,0H15C6.716,0,0,4.477,0,10S6.716,20,15,20Z" fill="#dcbb6a"/>
  <path id="XMLID_242_" d="M135,60H15C6.716,60,0,64.477,0,70S6.716,80,15,80H135c8.284,0,15-4.477,15-10S143.284,60,135,60Z" fill="#dcbb6a"/>
  <path id="XMLID_243_" d="M135,120H15c-8.284,0-15,4.477-15,10s6.716,10,15,10H135c8.284,0,15-4.477,15-10S143.284,120,135,120Z" fill="#dcbb6a"/>
</svg>
