<svg xmlns="http://www.w3.org/2000/svg" width="92.696" height="92.696" viewBox="0 0 92.696 92.696">
  <path id="message-circle" d="M91.7,44.884a41.293,41.293,0,0,1-4.435,18.725A41.884,41.884,0,0,1,49.811,86.768a41.293,41.293,0,0,1-18.725-4.435L3,91.7l9.362-28.087A41.293,41.293,0,0,1,7.928,44.884,41.884,41.884,0,0,1,31.087,7.435,41.293,41.293,0,0,1,49.811,3h2.464A41.785,41.785,0,0,1,91.7,42.42Z" transform="translate(-1 -1)" fill="none" stroke="#dcbb6a" stroke-linecap="round" stroke-linejoin="round" stroke-width="4"/>
</svg>
