<svg id="play-btn" xmlns="http://www.w3.org/2000/svg" width="100" height="100" viewBox="0 0 100 100">
  <path id="Path_388" data-name="Path 388" d="M94.467,27.115A50.443,50.443,0,0,0,79.7,9.773a2.035,2.035,0,1,0-2.42,3.273A46.356,46.356,0,0,1,90.849,28.98,45.424,45.424,0,0,1,95.93,50,45.93,45.93,0,1,1,50,4.07,2.035,2.035,0,1,0,50,0,49.971,49.971,0,1,0,94.467,27.115Z" fill="#dcbb6a"/>
  <path id="Path_389" data-name="Path 389" d="M107.707,78.454a2.062,2.062,0,0,0-1.043,1.792v45.24a2.061,2.061,0,1,0,4.123,0V83.873l30.521,18.169L118.864,116.5a2.061,2.061,0,1,0,2.233,3.466l25.241-16.262a2.062,2.062,0,0,0-.062-3.5l-36.5-21.726A2.061,2.061,0,0,0,107.707,78.454Z" transform="translate(-70.802 -51.995)" fill="#dcbb6a"/>
</svg>
