<svg xmlns="http://www.w3.org/2000/svg" width="23.326" height="26" viewBox="0 0 23.326 26">
  <g id="safe" transform="translate(-0.17)">
    <g id="_003---Safe" data-name="003---Safe" transform="translate(0.17)">
      <path id="Shape" d="M1.9,23.357v.91A1.733,1.733,0,0,0,3.635,26H7.9A1.733,1.733,0,0,0,9.63,24.267V23.4h4.333v.867A1.733,1.733,0,0,0,15.7,26h4.261a1.733,1.733,0,0,0,1.733-1.733v-.9a2.167,2.167,0,0,0,1.806-2.13V2.167A2.169,2.169,0,0,0,21.33,0H2.337A2.169,2.169,0,0,0,.17,2.167V3.9a.433.433,0,1,0,.867,0V2.167a1.3,1.3,0,0,1,1.3-1.3H21.33a1.3,1.3,0,0,1,1.3,1.3V21.233a1.3,1.3,0,0,1-1.3,1.3H2.337a1.3,1.3,0,0,1-1.3-1.3V6.067a.433.433,0,1,0-.867,0V21.233A2.171,2.171,0,0,0,1.9,23.357Zm18.922.043v.867a.867.867,0,0,1-.867.867H15.7a.867.867,0,0,1-.867-.867V23.4Zm-12.061,0v.867a.867.867,0,0,1-.867.867H3.635a.867.867,0,0,1-.867-.867V23.4Z" transform="translate(-0.17)" fill="#dcbb6a"/>
      <path id="Shape-2" data-name="Shape" d="M7.433,18.7A.433.433,0,0,0,7,19.133v3.9a1.3,1.3,0,0,0,1.3,1.3H23.033a1.3,1.3,0,0,0,1.3-1.3V22.6a1.3,1.3,0,0,0,1.3-1.3V18.7a1.3,1.3,0,0,0-1.3-1.3V13.933a1.3,1.3,0,0,0,1.3-1.3v-2.6a1.3,1.3,0,0,0-1.3-1.3V8.3a1.3,1.3,0,0,0-1.3-1.3H8.3A1.3,1.3,0,0,0,7,8.3v8.667a.433.433,0,0,0,.867,0V8.3A.433.433,0,0,1,8.3,7.867H23.033a.433.433,0,0,1,.433.433v.433a1.3,1.3,0,0,0-1.3,1.3v2.6a1.3,1.3,0,0,0,1.3,1.3V17.4a1.3,1.3,0,0,0-1.3,1.3v2.6a1.3,1.3,0,0,0,1.3,1.3v.433a.433.433,0,0,1-.433.433H8.3a.433.433,0,0,1-.433-.433v-3.9A.433.433,0,0,0,7.433,18.7Zm15.6-6.067v-2.6a.433.433,0,0,1,.433-.433h.867a.433.433,0,0,1,.433.433v2.6a.433.433,0,0,1-.433.433h-.867A.433.433,0,0,1,23.033,12.633Zm0,8.667V18.7a.433.433,0,0,1,.433-.433h.867a.433.433,0,0,1,.433.433v2.6a.433.433,0,0,1-.433.433h-.867A.433.433,0,0,1,23.033,21.3Z" transform="translate(-4.04 -3.967)" fill="#dcbb6a"/>
      <path id="Shape-3" data-name="Shape" d="M15.392,22.189a5.2,5.2,0,1,0,0-3.98,5.2,5.2,0,0,0,0,3.98Zm2.753-5.807.158.38a.433.433,0,1,0,.8-.332l-.157-.38a4.294,4.294,0,0,1,2.5,0l-.157.38a.433.433,0,1,0,.8.332l.158-.381a4.3,4.3,0,0,1,1.767,1.768l-.38.158a.433.433,0,1,0,.332.8l.38-.157a4.294,4.294,0,0,1,0,2.5l-.38-.157a.433.433,0,1,0-.332.8l.381.158a4.3,4.3,0,0,1-1.768,1.767l-.158-.38a.433.433,0,1,0-.8.332l.157.38a4.294,4.294,0,0,1-2.5,0l.157-.38a.433.433,0,1,0-.8-.332l-.158.381a4.3,4.3,0,0,1-1.767-1.768l.38-.158a.433.433,0,1,0-.332-.8l-.38.157a4.294,4.294,0,0,1,0-2.5l.38.157a.433.433,0,1,0,.332-.8l-.381-.158a4.3,4.3,0,0,1,1.768-1.768Z" transform="translate(-8.57 -8.499)" fill="#dcbb6a"/>
      <path id="Shape-4" data-name="Shape" d="M23.6,26.2A2.6,2.6,0,1,0,21.2,24.6,2.6,2.6,0,0,0,23.6,26.2ZM22.936,22a1.729,1.729,0,1,1-.942.938A1.733,1.733,0,0,1,22.936,22Z" transform="translate(-11.973 -11.9)" fill="#dcbb6a"/>
      <path id="Shape-5" data-name="Shape" d="M13.6,11H11.433a.433.433,0,0,0-.433.433V13.6a.433.433,0,0,0,.867,0V11.867H13.6a.433.433,0,0,0,0-.867Z" transform="translate(-6.307 -6.233)" fill="#dcbb6a"/>
    </g>
  </g>
</svg>
