<svg xmlns="http://www.w3.org/2000/svg" width="27.771" height="27.07" viewBox="0 0 27.771 27.07">
  <path id="shower" d="M9923.3,26h-22.6a.7.7,0,1,1,0-1.4h22.6a.7.7,0,0,1,.117.01h.167V2.135H9921.9l.135.127a.7.7,0,1,1-.962,1l-2.16-2.068a.7.7,0,1,1,.962-1l.573.548h3.826a.7.7,0,0,1,.7.7V24.609h1.1a.7.7,0,1,1,0,1.39Zm-14.173-2.068a.695.695,0,0,1-.278-.242.693.693,0,0,1-.115-.316L9907.275,11.9a.7.7,0,1,1,1.38-.174l1.383,10.884h.972a.7.7,0,1,1,0,1.39h-1.564a.058.058,0,0,1-.021,0A.68.68,0,0,1,9909.126,23.931Zm-4.74.037-.048-.015a.7.7,0,0,1-.349-.294.725.725,0,0,1-.08-.207.66.66,0,0,1-.007-.252.531.531,0,0,1,.034-.137l2.1-6.183a.694.694,0,1,1,1.315.446l-1.789,5.282h.613a.7.7,0,1,1,0,1.39h-1.56a.072.072,0,0,1-.022,0A.647.647,0,0,1,9904.386,23.969Zm9.417-9-3.01-3.328a5.142,5.142,0,0,0-2.382-1.814c-.064-.007-.366-.02-.812-.02h-.03a11.3,11.3,0,0,1-1.176-.035,6,6,0,0,1-3.2-2.255l-3.01-3.331a.7.7,0,0,1,1.032-.932l3.009,3.328A5.147,5.147,0,0,0,9906.6,8.4c.067.007.366.02.813.02h.032c.271,0,.932,0,1.176.035a6.037,6.037,0,0,1,3.2,2.255l3.007,3.331a.692.692,0,0,1-.05.982.68.68,0,0,1-.466.179A.692.692,0,0,1,9913.8,14.973Zm3.537-4.37a.694.694,0,0,1-.286-.942l.074-.14a.7.7,0,0,1,1.229.658l-.077.14a.691.691,0,0,1-.613.366A.67.67,0,0,1,9917.34,10.6Zm-2.84-2.332a.7.7,0,0,1-.042-.984l.109-.117a.695.695,0,1,1,1.023.939l-.106.117a.7.7,0,0,1-.984.045Zm4.081.017a.7.7,0,0,1-.284-.942l.074-.14a.7.7,0,0,1,1.227.658l-.075.14a.7.7,0,0,1-.615.366A.675.675,0,0,1,9918.581,8.289Zm-13.334-3.749A2.551,2.551,0,1,1,9907.8,7.09,2.555,2.555,0,0,1,9905.247,4.539Zm1.391,0a1.161,1.161,0,1,0,1.161-1.161A1.162,1.162,0,0,0,9906.638,4.539Zm9.639,1.794a.694.694,0,0,1-.045-.982l.109-.117a.695.695,0,1,1,1.024.939l-.107.117a.691.691,0,0,1-.981.042Zm-4.178-.715a.693.693,0,0,1,.174-.967l.133-.092A.7.7,0,0,1,9913.2,5.7l-.132.092a.706.706,0,0,1-.4.125A.689.689,0,0,1,9912.1,5.618Zm7.813.189a.7.7,0,0,1-.284-.942l.075-.14a.7.7,0,0,1,1.226.658l-.075.14a.69.69,0,0,1-.612.366A.678.678,0,0,1,9919.911,5.807Zm-1.734-1.55a.7.7,0,0,1-.042-.984l.107-.117a.7.7,0,0,1,1.026.942l-.107.117a.7.7,0,0,1-.984.042Zm-3.921-.135a.7.7,0,0,1,.177-.969l.13-.09a.7.7,0,1,1,.792,1.144l-.132.09a.678.678,0,0,1-.394.125A.7.7,0,0,1,9914.256,4.123Zm2.314-1.6a.7.7,0,0,1,.175-.967l.132-.092a.7.7,0,1,1,.792,1.144l-.13.09a.688.688,0,0,1-.4.125A.7.7,0,0,1,9916.57,2.519Z" transform="translate(-9899.499 0.571)" fill="#dcbb6a" stroke="rgba(0,0,0,0)" stroke-miterlimit="10" stroke-width="1"/>
</svg>
