<svg xmlns="http://www.w3.org/2000/svg" width="12.83" height="25.949" viewBox="0 0 12.83 25.949">
  <path id="sm-fb" d="M282.977,851.439c-.572,0-.926.088-1.061.27a2.078,2.078,0,0,0-.2,1.122v1.456h3.615a.7.7,0,0,1,.469.233.649.649,0,0,1,.162.48l-.275,3.392a.542.542,0,0,1-.178.425.639.639,0,0,1-.44.155h-3.353v12.983a.629.629,0,0,1-.185.456.6.6,0,0,1-.45.189H276.9a.6.6,0,0,1-.446-.189.627.627,0,0,1-.185-.456V858.973H274.24a.6.6,0,0,1-.447-.189.642.642,0,0,1-.185-.456v-3.362a.7.7,0,0,1,.185-.473.579.579,0,0,1,.447-.206h2.027V852.6q0-5.929,5.933-5.946a13.431,13.431,0,0,1,3.761.514.6.6,0,0,1,.47.712l-.437,3.294a.8.8,0,0,1-.258.433.608.608,0,0,1-.5.1,10.634,10.634,0,0,0-2.256-.264Z" transform="translate(-273.608 -846.652)" fill="#dcbb6a" opacity="0.471"/>
</svg>
