<svg xmlns="http://www.w3.org/2000/svg" width="150" height="150" viewBox="0 0 150 150">
  <g id="sm-linked" transform="translate(-3 -3)">
    <path id="Path_2697" data-name="Path 2697" d="M144.667,3H11.333A8.333,8.333,0,0,0,3,11.333V144.667A8.333,8.333,0,0,0,11.333,153H144.667A8.333,8.333,0,0,0,153,144.667V11.333A8.333,8.333,0,0,0,144.667,3ZM47.492,130.808H25.225V59.225H47.492ZM36.358,49.45a12.9,12.9,0,1,1,12.9-12.9,12.9,12.9,0,0,1-12.9,12.9Zm94.458,81.358H108.575V96c0-8.3-.15-18.975-11.567-18.975-11.583,0-13.342,9.05-13.342,18.392v35.4H61.442V59.233H82.775v9.783h.308c2.958-5.625,10.225-11.558,21.033-11.558,22.533,0,26.692,14.817,26.692,34.1v39.25Z" transform="translate(0 0)" fill="#dcbb6a"/>
  </g>
</svg>
