<svg xmlns="http://www.w3.org/2000/svg" width="22.458" height="26.51" viewBox="0 0 22.458 26.51">
  <path id="sm-yt" d="M362.233,854.386a2.086,2.086,0,0,0,.536,1.506,1.891,1.891,0,0,0,1.431.56,1.937,1.937,0,0,0,1.458-.543,2.047,2.047,0,0,0,.53-1.5v-3.836a1.848,1.848,0,0,0-1.925-1.926,2.086,2.086,0,0,0-1.479.51,1.787,1.787,0,0,0-.55,1.375Zm1.4-3.906a.523.523,0,0,1,.156-.394.566.566,0,0,1,.406-.149.632.632,0,0,1,.437.149.506.506,0,0,1,.166.394v4.045a.653.653,0,0,1-.163.47.581.581,0,0,1-.44.171.521.521,0,0,1-.416-.167.7.7,0,0,1-.146-.474Zm-4.653,5.784h1.535v-4.177l1.786-5.89h-1.559l-.949,4.024h-.1l-1-4.024h-1.546l1.824,6.077Zm9.315.108a1.582,1.582,0,0,0,.791-.237,3,3,0,0,0,.783-.69v.819h1.363v-7.426h-1.363v5.637a1.894,1.894,0,0,1-.421.4.734.734,0,0,1-.38.157.321.321,0,0,1-.278-.118.665.665,0,0,1-.086-.382v-5.693h-1.363v6.208a1.7,1.7,0,0,0,.24.995A.821.821,0,0,0,368.3,856.372Zm-1.557,7.257a.619.619,0,0,0-.288.073,1,1,0,0,0-.28.225v4.628a1.17,1.17,0,0,0,.322.261.717.717,0,0,0,.33.08.431.431,0,0,0,.368-.156.867.867,0,0,0,.117-.512v-3.835a.945.945,0,0,0-.146-.571A.5.5,0,0,0,366.739,863.628Zm8.714-2.843a3.246,3.246,0,0,0-3.244-3.248q-3.832-.164-7.835-.151-4-.009-7.835.151a3.247,3.247,0,0,0-3.243,3.248c-.107,1.42-.153,2.841-.15,4.261s.043,2.841.15,4.262a3.248,3.248,0,0,0,3.243,3.249q3.832.161,7.835.151,4,.006,7.835-.151a3.248,3.248,0,0,0,3.244-3.249c.107-1.421.154-2.841.15-4.262S375.56,862.205,375.453,860.785Zm-17.445,9.184h-1.534v-8.606h-1.587V859.9H359.6v1.461h-1.587Zm5.458,0H362.1v-.82a3,3,0,0,1-.784.69,1.573,1.573,0,0,1-.79.236.825.825,0,0,1-.713-.331,1.7,1.7,0,0,1-.239-.995v-6.207h1.363v5.693a.664.664,0,0,0,.086.383.317.317,0,0,0,.277.118.73.73,0,0,0,.38-.156,1.9,1.9,0,0,0,.422-.4v-5.637h1.362Zm5.245-1.539a1.97,1.97,0,0,1-.32,1.212,1.093,1.093,0,0,1-.926.42,1.516,1.516,0,0,1-.712-.163,1.815,1.815,0,0,1-.581-.5v.572h-1.377V859.9h1.377v3.241a2.086,2.086,0,0,1,.584-.516,1.242,1.242,0,0,1,.627-.177,1.139,1.139,0,0,1,.988.475,2.363,2.363,0,0,1,.341,1.386Zm5.036-2h-2.606v1.4a1.726,1.726,0,0,0,.134.813.49.49,0,0,0,.46.225.536.536,0,0,0,.473-.191,1.688,1.688,0,0,0,.136-.848v-.516h1.4v.557a2.522,2.522,0,0,1-.513,1.72,1.936,1.936,0,0,1-1.529.578,1.8,1.8,0,0,1-1.441-.613,2.5,2.5,0,0,1-.526-1.685v-3.333a2.2,2.2,0,0,1,.578-1.575,1.965,1.965,0,0,1,1.491-.608,1.826,1.826,0,0,1,1.437.563,2.363,2.363,0,0,1,.5,1.621Zm-2-2.775a.533.533,0,0,0-.467.2,1.2,1.2,0,0,0-.141.668v.753h1.2v-.753a1.2,1.2,0,0,0-.141-.668A.519.519,0,0,0,371.749,863.654Z" transform="translate(-353.145 -846.198)" fill="#dcbb6a" opacity="0.471"/>
</svg>
