<svg xmlns="http://www.w3.org/2000/svg" width="27.833" height="24.285" viewBox="0 0 27.833 24.285">
  <g id="suite" transform="translate(-1498.686 -622.162)">
    <path id="Path_2396" data-name="Path 2396" d="M1499.286,645.959V635.506a1.979,1.979,0,0,1,1.979-1.979h22.674a1.98,1.98,0,0,1,1.979,1.979v10.453" transform="translate(0 -0.112)" fill="none" stroke="#fff" stroke-linecap="round" stroke-linejoin="round" stroke-width="1.2"/>
    <line id="Line_17" data-name="Line 17" x2="26.633" transform="translate(1499.286 637.855)" fill="none" stroke="#fff" stroke-linecap="round" stroke-linejoin="round" stroke-width="1.2"/>
    <line id="Line_18" data-name="Line 18" x2="26.633" transform="translate(1499.286 642.293)" fill="none" stroke="#fff" stroke-linecap="round" stroke-linejoin="round" stroke-width="1.2"/>
    <path id="Rectangle_167" data-name="Rectangle 167" d="M2,0H21.082a2,2,0,0,1,2,2v8.653a0,0,0,0,1,0,0H0a0,0,0,0,1,0,0V2A2,2,0,0,1,2,0Z" transform="translate(1501.063 622.762)" fill="none" stroke="#fff" stroke-linecap="round" stroke-linejoin="round" stroke-width="1.2"/>
    <path id="Rectangle_168" data-name="Rectangle 168" d="M.5,0H5.715a.5.5,0,0,1,.5.5V5.323a0,0,0,0,1,0,0H0a0,0,0,0,1,0,0V.5A.5.5,0,0,1,.5,0Z" transform="translate(1504.616 628.092)" fill="none" stroke="#fff" stroke-linecap="round" stroke-linejoin="round" stroke-width="1.2"/>
    <path id="Rectangle_169" data-name="Rectangle 169" d="M.5,0H5.711a.5.5,0,0,1,.5.5V5.331a0,0,0,0,1,0,0H0a0,0,0,0,1,0,0V.5A.5.5,0,0,1,.5,0Z" transform="translate(1514.381 628.084)" fill="none" stroke="#fff" stroke-linecap="round" stroke-linejoin="round" stroke-width="1.2"/>
  </g>
</svg>
