<svg xmlns="http://www.w3.org/2000/svg" width="19.805" height="26" viewBox="0 0 19.805 26">
  <g id="toilet" transform="translate(-61)">
    <g id="Group_826" data-name="Group 826" transform="translate(61)">
      <path id="Path_2471" data-name="Path 2471" d="M80.8,16.1V14.574a2.288,2.288,0,0,0-2.285-2.285H69.379a2.274,2.274,0,0,0-.762.131V4.439A2.285,2.285,0,0,0,67.855,0H61.762A.762.762,0,0,0,61,.762V14.574a2.289,2.289,0,0,0,1.523,2.154v2.416a5.34,5.34,0,0,0,1.523,3.732v2.362a.762.762,0,0,0,.762.762H78.52a.762.762,0,0,0,0-1.523H76.234v-.914A8.382,8.382,0,0,0,80.8,16.1ZM69.379,13.813H78.52a.763.763,0,0,1,.762.762v.762H68.617v-.762A.763.763,0,0,1,69.379,13.813ZM62.523,1.523h5.332a.762.762,0,0,1,0,1.523H62.523Zm.762,13.813a.763.763,0,0,1-.762-.762v-10h4.57V15.336Zm11.883,7.047a.762.762,0,0,0-.457.7v1.4H65.57V22.551a.762.762,0,0,0-.254-.568,3.815,3.815,0,0,1-1.27-2.839v-2.29H79.239A6.867,6.867,0,0,1,75.168,22.383Z" transform="translate(-61)" fill="#dcbb6a"/>
    </g>
  </g>
</svg>
