<svg xmlns="http://www.w3.org/2000/svg" width="38.663" height="24.328" viewBox="0 0 38.663 24.328">
  <g id="twin-bed" transform="translate(-1521.511 -622.067)">
    <g id="Group_739" data-name="Group 739">
      <path id="Path_2405" data-name="Path 2405" d="M1542.64,645.9V635.332a2,2,0,0,1,2-2h13.034a2,2,0,0,1,2,2V645.9" fill="none" stroke="#fff" stroke-linecap="round" stroke-linejoin="round" stroke-width="1"/>
      <line id="Line_19" data-name="Line 19" x2="17.034" transform="translate(1542.64 637.818)" fill="none" stroke="#fff" stroke-linecap="round" stroke-linejoin="round" stroke-width="1"/>
      <line id="Line_20" data-name="Line 20" x2="17.034" transform="translate(1542.64 642.303)" fill="none" stroke="#fff" stroke-linecap="round" stroke-linejoin="round" stroke-width="1"/>
      <path id="Rectangle_171" data-name="Rectangle 171" d="M2,0h9.446a2,2,0,0,1,2,2v8.765a0,0,0,0,1,0,0H0a0,0,0,0,1,0,0V2A2,2,0,0,1,2,0Z" transform="translate(1544.436 622.567)" fill="none" stroke="#fff" stroke-linecap="round" stroke-linejoin="round" stroke-width="1"/>
      <path id="Rectangle_172" data-name="Rectangle 172" d="M.5,0H5.776a.5.5,0,0,1,.5.5V5.387a0,0,0,0,1,0,0H0a0,0,0,0,1,0,0V.5A.5.5,0,0,1,.5,0Z" transform="translate(1548.015 627.945)" fill="none" stroke="#fff" stroke-linecap="round" stroke-linejoin="round" stroke-width="1"/>
    </g>
    <g id="Group_740" data-name="Group 740">
      <path id="Path_2406" data-name="Path 2406" d="M1522.011,645.9V635.332a2,2,0,0,1,2-2h13.034a2,2,0,0,1,2,2V645.9" fill="none" stroke="#fff" stroke-linecap="round" stroke-linejoin="round" stroke-width="1"/>
      <line id="Line_21" data-name="Line 21" x2="17.034" transform="translate(1522.011 637.818)" fill="none" stroke="#fff" stroke-linecap="round" stroke-linejoin="round" stroke-width="1"/>
      <line id="Line_22" data-name="Line 22" x2="17.034" transform="translate(1522.011 642.303)" fill="none" stroke="#fff" stroke-linecap="round" stroke-linejoin="round" stroke-width="1"/>
      <path id="Rectangle_173" data-name="Rectangle 173" d="M2,0h9.446a2,2,0,0,1,2,2v8.765a0,0,0,0,1,0,0H0a0,0,0,0,1,0,0V2A2,2,0,0,1,2,0Z" transform="translate(1523.807 622.567)" fill="none" stroke="#fff" stroke-linecap="round" stroke-linejoin="round" stroke-width="1"/>
      <path id="Rectangle_174" data-name="Rectangle 174" d="M.5,0H5.776a.5.5,0,0,1,.5.5V5.387a0,0,0,0,1,0,0H0a0,0,0,0,1,0,0V.5A.5.5,0,0,1,.5,0Z" transform="translate(1527.386 627.945)" fill="none" stroke="#fff" stroke-linecap="round" stroke-linejoin="round" stroke-width="1"/>
    </g>
  </g>
</svg>
