<svg xmlns="http://www.w3.org/2000/svg" width="36.484" height="26" viewBox="0 0 36.484 26">
  <g id="wifi" transform="translate(0 -7.89)">
    <path id="Path_2441" data-name="Path 2441" d="M36.289,15.354a25.551,25.551,0,0,0-36.094,0,.664.664,0,0,0,.94.94,24.222,24.222,0,0,1,34.215,0,.664.664,0,0,0,.94-.939Z" transform="translate(0 0)" fill="#dcbb6a"/>
    <path id="Path_2442" data-name="Path 2442" d="M6.073,22.047a.664.664,0,1,0,.94.94,18.691,18.691,0,0,1,26.4,0,.664.664,0,0,0,.94-.94A20.022,20.022,0,0,0,6.073,22.047Z" transform="translate(-1.972 -2.788)" fill="#dcbb6a"/>
    <path id="Path_2443" data-name="Path 2443" d="M22.187,24.508a14.379,14.379,0,0,0-10.235,4.233.664.664,0,0,0,.94.94,13.162,13.162,0,0,1,18.591,0,.664.664,0,0,0,.94-.94A14.378,14.378,0,0,0,22.187,24.508Z" transform="translate(-3.945 -5.576)" fill="#dcbb6a"/>
    <path id="Path_2444" data-name="Path 2444" d="M25.256,33.916a4.353,4.353,0,1,0,4.353,4.353A4.358,4.358,0,0,0,25.256,33.916Zm0,7.377a3.025,3.025,0,1,1,3.025-3.025A3.027,3.027,0,0,1,25.256,41.293Z" transform="translate(-7.014 -8.733)" fill="#dcbb6a"/>
  </g>
</svg>
